<svg width="80" height="80" viewBox="0 0 80 80" fill="none" xmlns="http://www.w3.org/2000/svg">
  <!-- Filled tag shape: x=40.31, y=11.25, w=36.87, h=60.38, viewBox 0 0 36.875 60.375 -->
  <svg x="40.31" y="11.25" width="36.87" height="60.38" viewBox="0 0 36.875 60.375" overflow="visible">
    <path d="M25.9062 12.5312L12.1875 0L2.40625 2.84375L11.875 7.84375L13.0937 26.375L0 51.25L2.625 60.375L36.875 50.4688L25.9062 12.5312Z" fill="#242424"/>
  </svg>
  <!-- Tag outline: x=2.72, y=10.78, w=51.44, h=62.53, viewBox 0 0 51.4375 62.5314 -->
  <svg x="2.72" y="10.78" width="51.44" height="62.53" viewBox="0 0 51.4375 62.5314" overflow="visible">
    <path fill-rule="evenodd" clip-rule="evenodd" d="M34.7097 0.105769C34.9341 -0.0279513 35.2118 -0.0353454 35.4429 0.086249L49.8179 7.64875C50.0488 7.77022 50.2 8.00295 50.2171 8.26328L51.4359 26.7945C51.445 26.9327 51.4156 27.0708 51.351 27.1933L32.9448 62.1308C32.7518 62.4972 32.2984 62.6378 31.932 62.445L0.400718 45.8512C0.224642 45.7585 0.0926025 45.5997 0.0336625 45.4097C-0.0252776 45.2196 -0.00628705 45.014 0.0864541 44.8379L18.4927 9.90042C18.557 9.77836 18.6537 9.67641 18.7722 9.60577L34.7097 0.105769ZM35.1166 1.60949L19.7215 10.7862L1.76328 44.8732L31.9671 60.7684L49.9252 26.6816L48.7479 8.78074L35.1166 1.60949Z" fill="#242424"/>
  </svg>
  <!-- Circle: x=37.82, y=19.75, w=6.37, h=6.38, viewBox 0 0 6.375 6.375 -->
  <svg x="37.82" y="19.75" width="6.37" height="6.38" viewBox="0 0 6.375 6.375" overflow="visible">
    <path d="M3.1875 6.375C4.94791 6.375 6.375 4.94791 6.375 3.1875C6.375 1.42709 4.94791 0 3.1875 0C1.42709 0 0 1.42709 0 3.1875C0 4.94791 1.42709 6.375 3.1875 6.375Z" fill="#242424"/>
  </svg>
  <!-- Scissors/ribbon: x=18.46, y=28.70, w=20.71, h=26.98, viewBox 0 0 20.7131 26.9788 -->
  <svg x="18.46" y="28.70" width="20.71" height="26.98" viewBox="0 0 20.7131 26.9788" overflow="visible">
    <path d="M19.2316 3.33312C20.1691 3.80187 20.3566 4.64562 20.3566 5.08312C20.3566 7.64562 17.0753 9.48938 15.2003 9.20813C14.8253 9.14563 14.7628 8.64562 15.1066 8.48937C17.3566 7.61437 19.0753 6.39562 19.0753 5.23937C19.0753 4.73937 18.6378 4.39563 17.7316 4.39563C15.2628 4.39563 11.8253 6.20812 11.8253 9.11437C11.8253 11.4894 13.1066 13.1769 13.1066 15.8331C13.1066 19.8644 8.95031 23.9894 4.41906 23.9269C4.29406 23.9269 4.16906 23.9894 4.13781 24.0831L2.48156 26.4581C2.32531 26.6769 2.01281 26.6769 1.85656 26.4581C1.60656 26.1144 1.51281 25.7081 1.51281 25.3019C1.51281 24.9269 1.63781 24.5206 1.85656 24.2081L2.13781 23.8019C2.26281 23.6144 2.20031 23.3956 2.01281 23.2706C0.981562 22.5831 0.356562 21.4581 0.356562 20.0519C0.356562 16.8956 3.45031 14.0831 6.32531 14.0831C7.70031 14.0831 8.38781 14.8644 8.38781 15.7394C8.38781 16.6456 7.82531 17.7394 6.98156 18.3019C6.66906 18.5519 6.23156 18.1769 6.41906 17.8644C6.82531 17.0206 6.98156 16.4269 6.98156 15.9894C6.98156 15.3644 6.70031 15.0831 6.23156 15.0831C4.63781 15.0831 2.76281 17.2394 2.76281 19.5519C2.76281 21.0206 3.63781 22.3956 5.32531 22.3956C8.63781 22.3956 11.0441 18.6769 11.0441 15.5519C11.0441 13.6144 10.1378 10.9269 10.1378 9.39562C10.1378 5.89562 13.3566 3.61437 16.4816 3.17687C16.6066 3.14562 16.7003 3.08312 16.7628 3.02062L18.4816 0.520625C18.6378 0.301875 18.9503 0.301875 19.1066 0.520625C19.5753 1.17687 19.6066 2.08313 19.0753 2.83313C18.9816 2.98938 19.0441 3.23937 19.2316 3.33312Z" fill="#242424"/>
  </svg>
</svg>
