<svg preserveAspectRatio="none" width="100%" height="100%" overflow="visible" style="display: block;" viewBox="0 0 22 22" fill="none" xmlns="http://www.w3.org/2000/svg">
<g id="icon">
<path fill-rule="evenodd" clip-rule="evenodd" d="M15.1336 3.04461C15.1336 4.72611 13.8088 6.08923 12.1746 6.08923C10.5403 6.08923 9.21554 4.72611 9.21554 3.04461C9.21554 1.36312 10.5403 0 12.1746 0C13.8088 0 15.1336 1.36312 15.1336 3.04461ZM13.1609 3.04461C13.1609 3.60511 12.7193 4.05949 12.1746 4.05949C11.6298 4.05949 11.1882 3.60511 11.1882 3.04461C11.1882 2.48412 11.6298 2.02974 12.1746 2.02974C12.7193 2.02974 13.1609 2.48412 13.1609 3.04461Z" fill="var(--fill-0, #242424)"/>
<path fill-rule="evenodd" clip-rule="evenodd" d="M0 22L15.3439 17.6943C15.3439 17.6943 16.0414 14.1062 11.8567 9.80042C7.67195 5.49468 4.1847 6.2123 4.1847 6.2123L0 22ZM2.81151 19.1072L5.93645 18.2303C5.63063 17.8081 5.28129 17.3873 4.88222 16.9767C4.4831 16.5661 4.07407 16.2066 3.66376 15.8919L2.81151 19.1072ZM9.78776 17.1495L7.95781 17.663C7.50346 16.9517 6.95038 16.2342 6.27712 15.5415C5.60381 14.8487 4.90639 14.2796 4.21503 13.8121L4.7141 11.9292C5.67623 12.4143 6.70331 13.1095 7.67202 14.1062C8.64068 15.1029 9.31634 16.1596 9.78776 17.1495ZM9.06692 12.671C7.81025 11.378 6.46955 10.5157 5.24113 9.9409L5.67792 8.29302C5.7714 8.31191 5.86984 8.33432 5.97297 8.36085C7.0106 8.62776 8.61452 9.33501 10.4618 11.2357C12.309 13.1363 12.9963 14.7866 13.2558 15.8543C13.2815 15.9604 13.3033 16.0617 13.3217 16.1579L11.7202 16.6073C11.1615 15.3434 10.3235 13.964 9.06692 12.671Z" fill="var(--fill-0, #242424)"/>
<path d="M21.0517 10.1487C21.0517 10.7092 20.6101 11.1636 20.0653 11.1636C19.5206 11.1636 19.079 10.7092 19.079 10.1487C19.079 9.58822 19.5206 9.13384 20.0653 9.13384C20.6101 9.13384 21.0517 9.58822 21.0517 10.1487Z" fill="var(--fill-0, #242424)"/>
<path d="M2.31114 2.02974C2.81086 2.02974 3.58241 2.19234 4.20067 2.65037C4.76865 3.07114 5.27017 3.78133 5.27017 5.07436H7.24286C7.24286 3.1198 6.42926 1.80024 5.35332 1.00317C4.32768 0.243347 3.12654 0 2.31114 0V2.02974Z" fill="var(--fill-0, #242424)"/>
<path d="M16.2704 7.69139C15.8153 8.02671 15.3871 8.51629 15.0831 9.45478L13.2116 8.81292C13.6473 7.46795 14.3287 6.62551 15.122 6.0411C15.6737 5.63459 16.313 5.34386 16.8195 5.11349C16.9729 5.04374 17.1142 4.97945 17.2371 4.91923C17.8209 4.63317 18.2234 4.35573 18.5155 3.8812C18.8173 3.39087 19.079 2.55936 19.079 1.01488L21.0517 1.01487C21.0517 2.76873 20.7587 4.03039 20.182 4.96722C19.5957 5.91986 18.796 6.40356 18.0852 6.7518C17.8588 6.86274 17.6539 6.95611 17.4639 7.04269C17.0114 7.24893 16.6434 7.41664 16.2704 7.69139Z" fill="var(--fill-0, #242424)"/>
<path d="M16.7526 15.2129C17.1645 15.1524 17.8758 15.1887 18.5421 15.5169C19.1704 15.8263 19.791 16.4071 20.1032 17.5317L22 16.974C21.5232 15.2569 20.4999 14.2308 19.3938 13.6861C18.3258 13.1601 17.2123 13.095 16.4736 13.2036L16.7526 15.2129Z" fill="var(--fill-0, #242424)"/>
</g>
</svg>
