<svg preserveAspectRatio="none" width="100%" height="100%" overflow="visible" style="display: block;" viewBox="0 0 33.4867 35.5498" fill="none" xmlns="http://www.w3.org/2000/svg">
<g id="Layer_1">
<path id="Vector" d="M27.4458 4.32976C19.8754 1.48865 16.5419 9.7783 16.5419 9.7783C16.5419 9.7783 12.2852 1.91017 5.08835 5.60711C2.85984 6.92263 0.0995837 9.54162 1.55112 15.424C3.53957 21.5788 8.82623 27.7391 17.9708 35.0006C26.2415 26.7562 30.7794 20.0225 32.0539 13.6812C32.8253 7.65977 29.7855 5.38429 27.4337 4.33045L27.4458 4.32976Z" stroke="var(--stroke-0, #242424)" stroke-linecap="round" stroke-linejoin="round"/>
<path id="Vector_2" d="M27.7764 14.1611C26.8476 11.325 26.2942 8.08538 22.9486 7.28215C26.1127 6.69134 27.0063 3.94845 27.7217 0.628272C28.6012 3.71582 29.5794 6.35062 32.5484 7.24333C29.0587 8.09933 28.3424 11.1933 27.7764 14.1611Z" fill="var(--fill-0, #242424)" stroke="var(--stroke-0, #242424)" stroke-width="1.25654" stroke-linecap="round" stroke-linejoin="round"/>
<path id="Vector_3" d="M8.73165 32.9022C7.85208 29.9871 7.44998 26.3682 3.21545 25.1243C6.70863 24.1442 7.77668 20.9777 8.73165 17.3966C9.73688 20.9526 10.8301 24.0688 14.2479 25.1117C10.34 26.2677 9.53584 29.6729 8.73165 32.9022Z" fill="var(--fill-0, #242424)" stroke="var(--stroke-0, #242424)" stroke-width="1.25654" stroke-linecap="round" stroke-linejoin="round"/>
</g>
</svg>
