<svg preserveAspectRatio="none" width="100%" height="100%" overflow="visible" style="display: block;" viewBox="0 0 18 16" fill="none" xmlns="http://www.w3.org/2000/svg">
<path id="icon" fill-rule="evenodd" clip-rule="evenodd" d="M9 4.90385L6.93437 2.82332C5.79355 1.67428 3.94392 1.67428 2.80311 2.82332C1.66229 3.97237 1.66229 5.83534 2.80311 6.98438L9 13.226L15.1969 6.98438C16.3377 5.83534 16.3377 3.97237 15.1969 2.82332C14.0561 1.67428 12.2064 1.67428 11.0656 2.82332L9 4.90385ZM1.42602 8.3714C-0.47534 6.45632 -0.47534 3.35138 1.42602 1.4363C3.32738 -0.478768 6.4101 -0.478768 8.31146 1.4363L9 2.12981L9.68854 1.4363C11.5899 -0.478768 14.6726 -0.478768 16.574 1.4363C18.4753 3.35138 18.4753 6.45632 16.574 8.3714L9 16L1.42602 8.3714Z" fill="var(--fill-0, #242424)"/>
</svg>
