<svg preserveAspectRatio="none" width="100%" height="100%" overflow="visible" style="display: block;" viewBox="0 0 20 20" fill="none" xmlns="http://www.w3.org/2000/svg">
<g id="icon">
<path d="M6.99999 8C7.55228 8 7.99999 7.55228 7.99999 7C7.99999 6.44772 7.55228 6 6.99999 6C6.44771 6 5.99999 6.44772 5.99999 7C5.99999 7.55228 6.44771 8 6.99999 8Z" fill="var(--fill-0, #2E2E2E)"/>
<path d="M14 7C14 7.55228 13.5523 8 13 8C12.4477 8 12 7.55228 12 7C12 6.44772 12.4477 6 13 6C13.5523 6 14 6.44772 14 7Z" fill="var(--fill-0, #2E2E2E)"/>
<path fill-rule="evenodd" clip-rule="evenodd" d="M9.99998 19L7.49998 20L2.99998 20L2.99999 13H2C0.895431 13 0 12.1046 0 11V9C0 4.02944 4.02944 0 9 0H11C15.9706 0 20 4.02944 20 9V11C20 12.1046 19.1046 13 18 13H17L17 20H12.5L9.99998 19ZM9 2H11C14.866 2 18 5.13401 18 9V11H17V8H15V18H12.8851L11 17.2459V15.6181C11.0716 15.5536 11.1383 15.4809 11.1989 15.4L12.6976 13.4C13.4385 12.4111 12.7336 11 11.4986 11H8.50136C7.26641 11 6.56148 12.4111 7.30245 13.4L8.80109 15.4C8.86168 15.4809 8.9284 15.5536 9 15.6181V17.2459L7.11482 18L4.99998 18V8H2.99999L2.99999 11H2V9C2 5.13401 5.13401 2 9 2Z" fill="var(--fill-0, #2E2E2E)"/>
</g>
</svg>
