<svg preserveAspectRatio="none" width="100%" height="100%" overflow="visible" style="display: block;" viewBox="0 0 77.7501 69.0033" fill="none" xmlns="http://www.w3.org/2000/svg">
<g id="art">
<path id="Vector" d="M11.5664 8.06574L8.61697 9.70805C8.61697 9.70805 7.00817 11.1158 7.17575 13.1268C7.17575 13.1268 8.21477 13.529 1.57846 16.2438C1.57846 16.2438 -0.566608 17.685 1.57846 19.3609C1.57846 19.3609 2.8521 24.1538 7.34333 23.0142C7.34333 23.0142 12.9406 21.2043 12.3038 18.0202" stroke="var(--stroke-0, #242424)" stroke-width="1.25" stroke-miterlimit="10" stroke-linecap="round" stroke-linejoin="round"/>
<path id="Vector_2" d="M51.4513 38.9011C51.4513 38.9011 51.9541 49.1572 69.1816 55.3243C69.1816 55.3243 73.5388 57.4694 71.997 64.4743C71.997 64.4743 68.2432 64.776 68.2432 67.4573C68.2432 67.4573 68.7459 68.4963 73.0025 68.3623C73.0025 68.3623 75.7509 68.865 77.1251 64.2397L76.3877 56.0952C76.3877 56.0952 77.1251 54.1847 73.874 51.7045C73.874 51.7045 69.4498 44.9341 71.3602 38.3313C72.6003 34.1082 71.5613 29.8181 67.6064 28.0417C74.5778 19.2268 73.7399 13.663 73.7399 13.663C73.2036 3.30636 64.9921 0.62503 64.9921 0.62503C69.7514 9.40641 69.2822 15.2718 69.2822 15.2718C68.3772 20.9697 63.1486 23.651 63.1486 23.651C61.1376 24.8911 57.8195 20.6345 42.1337 22.8131C27.4534 21.9752 21.0517 9.67454 21.0517 9.67454C20.4148 8.56849 19.6104 7.89815 18.739 7.46244" stroke="var(--stroke-0, #242424)" stroke-width="1.25" stroke-miterlimit="10" stroke-linecap="round" stroke-linejoin="round"/>
<path id="Vector_3" d="M23.733 45.9731C19.1747 44.2303 11.6 37.1247 15.5884 25.2598C16.3258 23.0142 13.4434 23.651 13.4434 23.651C13.4434 23.651 11.734 24.8911 10.3598 24.69C9.82357 24.623 9.6895 23.8856 10.1923 23.6175C11.3318 23.0477 13.0077 21.8411 12.1027 19.696" stroke="var(--stroke-0, #242424)" stroke-width="1.25" stroke-miterlimit="10" stroke-linecap="round" stroke-linejoin="round"/>
<path id="Vector_4" d="M33.6875 42.2863C34.8605 44.3308 33.6539 46.9451 33.0842 47.9171C32.9166 48.2187 32.816 48.5539 32.749 48.8891L32.1457 58.4413C32.1122 58.743 32.1792 59.0446 32.3133 59.3463C33.0842 60.7205 32.0787 61.4243 32.0787 61.4243L28.4589 66.6529C28.1237 67.1892 27.5204 67.5579 26.8501 67.6584C26.0457 67.7925 24.839 67.9601 24.4033 67.9601H23.2973C21.1522 67.9601 21.9901 65.2787 22.0907 65.1447C22.4594 64.5749 23.1632 64.2062 23.9341 64.0721C24.6044 63.9716 24.4704 64.3068 25.2748 63.7035C25.6434 63.4353 26.9171 62.0611 26.9506 61.2232C27.0511 57.9051 24.2693 41.9511 21.789 40.778" stroke="var(--stroke-0, #242424)" stroke-width="1.25" stroke-miterlimit="10" stroke-linecap="round" stroke-linejoin="round"/>
<path id="Vector_5" d="M66.3998 54.9556L67.0701 63.0331C65.6959 67.6584 62.9475 67.1557 62.9475 67.1557C58.6909 67.2897 59.0596 66.1167 59.0596 66.1167C59.0596 63.4353 61.5398 63.1337 61.5398 63.1337C63.0816 56.1622 58.7244 53.9836 58.7244 53.9836C53.1942 51.2688 53.5293 50.5649 53.5293 50.5649" stroke="var(--stroke-0, #242424)" stroke-width="1.25" stroke-miterlimit="10" stroke-linecap="round" stroke-linejoin="round"/>
<path id="Vector_6" d="M22.0236 45.3028C24.1687 49.5594 23.7665 56.0281 23.666 59.3463C23.6324 60.1842 23.1632 60.9551 22.4594 61.3573C21.5879 61.8265 21.3533 61.3238 20.683 61.4243C19.9121 61.5249 19.2418 61.8935 18.8396 62.4968C18.739 62.6309 17.9011 65.3123 20.0462 65.3123H21.1522C22.4929 65.4463 20.9176 64.3068 23.9006 64.0721C25.4423 63.9716 26.5819 62.1282 26.9171 61.2232C26.9171 61.2232 26.8836 58.9106 26.4143 57.0336" stroke="var(--stroke-0, #242424)" stroke-width="1.25" stroke-miterlimit="10" stroke-linecap="round" stroke-linejoin="round"/>
<path id="Vector_7" d="M0.908126 17.4504C0.807576 16.9477 1.24329 16.4449 1.91363 16.3108C2.58396 16.1768 3.32133 16.3779 3.42188 16.8471C3.52243 17.3499 2.48341 18.8581 1.84659 18.9922C1.20978 19.1262 1.00868 17.9532 0.908126 17.4504Z" fill="var(--fill-0, #242424)"/>
<path id="Vector_8" d="M10.5958 13.6905C10.6265 13.2473 10.2472 12.8601 9.74857 12.8256C9.24998 12.7911 8.82093 13.1224 8.79026 13.5656C8.7596 14.0088 9.13892 14.396 9.63751 14.4305C10.1361 14.465 10.5652 14.1337 10.5958 13.6905Z" fill="var(--fill-0, #242424)"/>
<path id="Vector_9" d="M9.85709 24.4219C10.3598 26.1648 9.25378 27.2708 8.58345 27.4384C7.91312 27.606 7.2763 26.9021 7.30982 26.0642C7.30982 26.0642 7.2763 22.6455 12.0022 20.6345" stroke="var(--stroke-0, #242424)" stroke-width="1.25" stroke-miterlimit="10" stroke-linecap="round" stroke-linejoin="round"/>
<path id="Vector_10" d="M12.7395 8.80311C12.7395 8.80311 11.7675 4.44593 12.7395 1.73108C12.7395 1.73108 18.6049 5.65254 18.6049 9.57399" stroke="var(--stroke-0, #242424)" stroke-width="1.25" stroke-miterlimit="10" stroke-linecap="round" stroke-linejoin="round"/>
<path id="Vector_11" d="M11.667 5.65253L9.15323 3.60802C9.15323 3.60802 9.11972 6.65803 10.0582 8.09925" stroke="var(--stroke-0, #242424)" stroke-width="1.25" stroke-miterlimit="10" stroke-linecap="round" stroke-linejoin="round"/>
<path id="Vector_12" d="M32.749 48.9226C32.749 48.9226 43.8095 55.6594 57.1491 49.0902" stroke="var(--stroke-0, #242424)" stroke-width="1.25" stroke-miterlimit="10" stroke-linecap="round" stroke-linejoin="round"/>
</g>
</svg>
