<svg preserveAspectRatio="none" width="100%" height="100%" overflow="visible" style="display: block;" viewBox="0 0 18 20" fill="none" xmlns="http://www.w3.org/2000/svg">
<g id="icon">
<path fill-rule="evenodd" clip-rule="evenodd" d="M16.0002 12.5175H12.0006C12.0006 12.5175 11.9965 11.908 12.0006 11.5175C12.0042 11.1771 12.0079 10.8439 12.0124 10.5175C12.0503 7.78942 12.1498 5.5276 12.787 3.39984C13.3805 1.41814 14.4493 0.540016 16.0002 0.178363C16.3138 0.105239 16.6471 0.0532302 17.0001 0.0174829C17.3886 -0.0218536 18 0.0174829 18 0.0174829V20H16.0002V12.5175ZM16.0002 10.5175H14.0127C14.0521 7.80548 14.1519 5.8131 14.7027 3.97365C14.9709 3.07815 15.2974 2.70034 15.5663 2.50056C15.6807 2.41561 15.821 2.33586 16.0002 2.26488V10.5175Z" fill="var(--fill-0, #2E2E2E)"/>
<path d="M0 7.01746V0.0174561H1.9998V6.01746H2.99969V0.0174561H4.99949V6.01746H5.99939V0.0174561H7.99919V7.01746C7.99919 8.12203 7.10385 9.01746 5.99939 9.01746H4.99949V20H2.99969V9.01746H1.9998C0.89534 9.01746 0 8.12203 0 7.01746Z" fill="var(--fill-0, #2E2E2E)"/>
</g>
</svg>
