<svg preserveAspectRatio="none" width="100%" height="100%" overflow="visible" style="display: block;" viewBox="0 0 36.2253 37.4033" fill="none" xmlns="http://www.w3.org/2000/svg">
<g id="Group 920687">
<path id="Vector" d="M16.6887 24.3686C16.7338 24.3857 16.78 24.3935 16.8254 24.3935C16.9822 24.3935 17.1301 24.2976 17.1887 24.1419C17.195 24.1252 17.8235 22.4477 18.3223 20.5012C19.0064 17.8326 19.1306 15.9412 18.6919 14.8791C18.61 14.6811 18.3829 14.5867 18.1849 14.6683C17.9865 14.7502 17.8926 14.9773 17.9741 15.1753C18.7284 17.0022 17.1383 22.0696 16.462 23.8682C16.3867 24.0689 16.488 24.2929 16.6887 24.3683V24.3686Z" fill="var(--fill-0, #242424)"/>
<path id="Vector_2" d="M28.9961 16.4242C30.7058 16.4242 32.0968 14.9454 32.0968 13.1274C32.0968 12.2597 31.7824 11.441 31.2113 10.821C30.6468 10.208 29.8925 9.85707 29.0874 9.83223L28.8296 9.82446L28.7368 9.58377C28.4507 8.83994 27.7232 8.34031 26.9269 8.34031C26.6688 8.34031 26.4176 8.39039 26.1812 8.48899L25.864 8.62138L25.6943 8.32245C24.9598 7.03008 23.4792 6.22724 21.8296 6.22724C19.5698 6.22724 17.6804 7.76769 17.5286 9.73401L17.4839 10.3132L16.9661 10.0504C16.5495 9.83883 16.0759 9.72741 15.596 9.72741C14.049 9.72741 12.7908 10.8649 12.7908 12.2632C12.7908 13.6616 14.0494 14.7991 15.596 14.7991C16.8484 14.7991 17.9591 14.0378 18.2969 12.9477L18.4657 12.4022L18.9106 12.7602C19.7084 13.4015 20.745 13.7548 21.8293 13.7548C22.9784 13.7548 24.0599 13.3638 24.874 12.6538C24.9897 12.5529 25.1318 12.5008 25.277 12.5008C25.3632 12.5008 25.4505 12.5195 25.5336 12.5571C25.7572 12.6588 25.8958 12.8755 25.8954 13.1216V13.127C25.8954 14.9447 27.2864 16.4238 28.9961 16.4238V16.4242Z" fill="var(--fill-0, #242424)"/>
<path id="Vector_3" d="M36.2249 14.6743C36.2249 12.2825 34.2314 10.3341 31.7394 10.2506C31.7534 10.2654 31.7681 10.2797 31.7821 10.2949C32.4856 11.0585 32.873 12.0644 32.873 13.1273C32.873 15.3731 31.1338 17.2005 28.9959 17.2005C27.6111 17.2005 26.3937 16.4337 25.7077 15.2831L24.9149 15.9636C22.645 17.2129 21.8154 18.8255 21.5254 20.0015C21.1807 21.3975 21.4998 22.4845 21.5134 22.5299C21.5444 22.6332 21.6174 22.719 21.7145 22.7663C21.7681 22.7927 21.8267 22.8059 21.8853 22.8059C21.9327 22.8059 21.9796 22.7974 22.0247 22.7799C22.1811 22.7198 25.7453 21.3202 25.9736 18.8803C26.1285 18.9253 26.2842 18.9564 26.4364 18.9715C27.5533 19.081 29.4175 18.5977 29.4175 18.5977C29.0638 19.0725 28.8557 19.6486 28.8557 20.2705C28.8557 20.4254 28.8689 20.5772 28.8934 20.7255C27.5533 21.3121 26.4127 22.2302 25.4899 23.4698C24.4669 24.8437 23.7122 26.6109 23.2464 28.7216C22.5748 31.7656 22.6986 34.6 22.7572 35.4451C21.7075 36.0403 20.5991 36.4145 19.4586 36.5585C18.4841 36.6816 17.4821 36.6381 16.4809 36.4293C15.1796 36.1579 14.2126 35.6734 13.8143 35.4506C14.1353 32.2769 13.8725 29.2294 13.032 26.3888C12.4163 24.3076 11.5051 22.3731 10.3242 20.6366C10.2916 19.6179 9.86493 18.6912 9.18633 18.0126C9.342 17.5751 9.43556 17.1073 9.45575 16.6189C9.47089 16.2544 9.4441 15.898 9.38005 15.554C9.40878 15.5373 9.43712 15.5207 9.46546 15.5032C9.62152 15.4081 9.77059 15.3052 9.91229 15.1961C10.3805 15.5471 10.9422 15.7819 11.5564 15.8561C11.6006 16.0545 11.7687 16.6725 12.2699 17.3895C12.8096 18.1613 13.8609 19.2142 15.8058 19.845C15.8458 19.8578 15.8858 19.864 15.9258 19.864C16.0896 19.864 16.2418 19.7596 16.295 19.5954C16.361 19.3916 16.2496 19.1726 16.0453 19.1062C14.666 18.659 13.6182 17.9435 12.9315 16.98C12.5972 16.511 12.4342 16.0937 12.3612 15.8596C12.8736 15.8017 13.3542 15.6305 13.7751 15.3708L13.7855 15.1204C12.7265 14.5443 12.0141 13.4794 12.0141 12.2635C12.0141 11.206 12.5526 10.263 13.3896 9.65624C12.992 9.4536 12.5541 9.33829 12.1007 9.31966C11.8662 9.30995 11.6317 9.32665 11.4023 9.36858L11.1709 9.41128L11.0672 9.20009C11.0032 9.06926 10.9333 8.94193 10.8599 8.82158C9.98062 7.37935 8.12222 6.30865 6.51345 6.27992L6.5119 6.28497C5.74633 6.34009 4.98232 6.57341 4.28198 7.00045C2.35603 8.17442 1.5105 10.4467 2.05827 12.5213C0.870715 13.3358 0.0682699 14.6806 0.00421407 16.2299C-0.0738176 18.1217 0.970875 19.7992 2.5451 20.6203C2.46551 22.7613 4.13174 24.5653 6.27431 24.6535C8.10553 24.7288 9.69334 23.5261 10.1763 21.8385C11.0746 23.306 11.7839 24.9062 12.2878 26.6093C13.1209 29.425 13.3659 32.4551 13.0165 35.6152C13.0006 35.7604 13.0673 35.9024 13.1896 35.9824C13.2397 36.0154 14.4377 36.7903 16.2911 37.1828C16.9848 37.3295 17.6794 37.4033 18.3673 37.4033C18.7594 37.4033 19.1495 37.3792 19.5358 37.3315C20.8662 37.1665 22.1539 36.7154 23.3636 35.9906C23.4921 35.9137 23.5651 35.7693 23.5504 35.6202C23.5473 35.5876 23.2456 32.3316 24.005 28.8889C24.4468 26.8861 25.156 25.2191 26.113 23.9337C26.9348 22.8296 27.9461 22.0058 29.1314 21.4709C29.6236 22.4934 30.7246 23.2062 32.005 23.2062C33.7442 23.2062 35.1542 21.8921 35.1542 20.2709C35.1542 19.4933 34.8292 18.7867 34.2997 18.2615C35.4663 17.4571 36.2253 16.1503 36.2253 14.6747L36.2249 14.6743ZM25.2088 18.6349C25.2088 19.6804 24.2961 20.5434 23.5302 21.083C23.0286 21.4367 22.5212 21.7022 22.1761 21.8657C22.1287 21.4736 22.1085 20.8548 22.2887 20.1505C22.5624 19.0798 23.1909 18.1543 24.1634 17.3837C24.3613 17.855 24.7554 18.2603 25.2197 18.5449C25.2127 18.574 25.2088 18.6039 25.2088 18.6349Z" fill="var(--fill-0, #242424)"/>
<path id="Vector_4" d="M11.3899 8.49807C11.4342 8.57106 11.4777 8.64598 11.5192 8.72246C11.7199 8.69839 11.923 8.69024 12.1256 8.69878C12.7999 8.72634 13.4448 8.93249 14.0057 9.29586C14.4848 9.07535 15.0248 8.95112 15.5951 8.95112C16.0163 8.95112 16.4344 9.02022 16.8277 9.15338C17.0261 8.20147 17.5607 7.33148 18.367 6.66336C19.3103 5.88188 20.5394 5.45135 21.8287 5.45135C23.6382 5.45135 25.2819 6.29106 26.1981 7.66302C26.4341 7.59741 26.6779 7.56402 26.9264 7.56402C27.9567 7.56402 28.904 8.16071 29.3586 9.07225C30.2115 9.15532 31.0058 9.52918 31.6343 10.1437C32.4651 8.69645 32.0582 6.56165 30.378 4.88377C28.8818 3.38952 26.7921 3.02771 25.3712 3.90973C25.1926 1.72524 23.0504 0 20.4335 0C18.702 0 17.1783 0.755471 16.2935 1.89955C15.5396 1.07381 14.4545 0.555539 13.2483 0.555539C11.0289 0.555539 9.2198 2.3095 9.13013 4.50681C8.20695 4.58407 7.38548 5.01887 6.80432 5.67185C8.55751 5.81006 10.4431 6.94482 11.3896 8.4973L11.3899 8.49807Z" fill="var(--fill-0, #242424)"/>
</g>
</svg>
