<svg preserveAspectRatio="none" width="100%" height="100%" overflow="visible" style="display: block;" viewBox="0 0 77.7506 72.5" fill="none" xmlns="http://www.w3.org/2000/svg">
<g id="art">
<path id="Vector" d="M10.6508 11.2695L7.54907 12.9965C7.54907 12.9965 5.85724 14.4769 6.03347 16.5917C6.03347 16.5917 6.91464 18.072 1.62766 19.6934C1.62766 19.6934 -0.628111 21.209 1.62766 22.9713C1.62766 22.9713 1.7334 26.5664 6.45643 25.368C6.45643 25.368 11.3204 24.5574 11.0737 22.6541" stroke="var(--stroke-0, #242424)" stroke-width="1.25" stroke-miterlimit="10" stroke-linecap="round" stroke-linejoin="round"/>
<path id="Vector_2" d="M56.1187 34.3559C54.6031 34.9551 57.1761 49.5824 69.6886 58.0063C69.6886 58.0063 74.2707 60.2621 72.6493 67.6286C72.6493 67.6286 68.7017 67.9458 68.7017 70.7655C68.7017 70.7655 68.314 71.9992 72.7903 71.8582C72.7903 71.8582 75.6805 72.3869 77.1256 67.5229L76.3502 58.958C76.3502 58.958 77.1256 56.9489 73.7067 54.3407C73.7067 54.3407 69.0542 47.2209 71.0632 40.2773C71.0632 40.2773 72.1559 33.4747 66.164 29.9501L66.0935 28.3993C72.6846 20.3631 72.6493 14.8999 72.6493 14.8999C72.0854 4.00869 64.3664 0.625029 64.3664 0.625029C69.7944 9.78911 69.4419 11.9391 68.9132 16.063C67.9615 22.0549 62.4631 24.8746 62.4631 24.8746C60.3483 26.1787 51.5367 21.9844 38.0725 23.077C23.3395 22.7598 20.837 16.3097 20.414 13.913C20.2731 13.1023 19.9558 12.2916 19.3919 11.6924C18.7927 11.0227 18.1583 10.5998 17.3828 10.3531" stroke="var(--stroke-0, #242424)" stroke-width="1.25" stroke-miterlimit="10" stroke-linecap="round" stroke-linejoin="round"/>
<path id="Vector_3" d="M26.8289 43.9077C35.852 46.0225 45.7562 38.0215 45.7562 38.0215C51.0432 34.0034 53.6162 35.3428 55.4138 37.1756" stroke="var(--stroke-0, #242424)" stroke-width="1.25" stroke-miterlimit="10" stroke-linecap="round" stroke-linejoin="round"/>
<path id="Vector_4" d="M27.7805 36.224C29.0142 38.374 27.7453 41.1232 27.1461 42.1454C26.9699 42.4626 26.8641 42.8151 26.7936 43.1675L28.0625 61.4252C28.0273 61.7424 28.0978 62.0596 28.2387 62.3769C29.0494 63.822 27.992 64.5621 27.992 64.5621L25.9477 70.0606C25.5953 70.6245 24.9608 71.0123 24.2559 71.118C23.41 71.259 22.1411 71.4352 21.6829 71.4352H20.5198C18.264 71.4352 19.1451 68.6155 19.2509 68.4745C19.6386 67.8753 20.3788 67.4876 21.1894 67.3466C21.8944 67.2409 21.7534 67.5933 22.5993 66.9589C22.987 66.6769 24.3264 65.2318 24.3616 64.3507C24.4674 60.8613 23.0575 58.7465 23.3395 51.0627C23.3395 51.0627 22.9165 49.8291 20.837 47.8553C20.837 47.8553 16.9951 43.7667 18.7222 33.1575C18.123 25.5795 11.4262 25.791 11.4262 25.791C11.4262 25.791 9.6286 27.0951 8.18349 26.8837" stroke="var(--stroke-0, #242424)" stroke-width="1.25" stroke-miterlimit="10" stroke-linecap="round" stroke-linejoin="round"/>
<path id="Vector_5" d="M69.4419 57.5481L70.2173 64.7031C68.7722 69.5672 65.882 69.0385 65.882 69.0385C61.4057 69.1794 61.7934 67.9458 61.7934 67.9458C61.7934 65.1261 65.741 64.8089 65.741 64.8089C67.3624 57.4776 62.7803 55.1866 62.7803 55.1866C52.9113 48.0668 52.1006 36.1887 52.1006 36.1887" stroke="var(--stroke-0, #242424)" stroke-width="1.25" stroke-miterlimit="10" stroke-linecap="round" stroke-linejoin="round"/>
<path id="Vector_6" d="M23.269 51.098C23.2338 51.4152 23.692 59.6276 23.7625 59.9801C24.2912 61.9539 24.2912 64.3859 24.2912 64.3859C23.974 65.3376 22.7403 67.2409 21.119 67.3819C18.0173 67.6286 19.6739 68.827 18.2288 68.686H17.0656C14.8099 68.686 15.691 65.8663 15.7968 65.7253C16.1845 65.1261 16.9247 64.7384 17.7353 64.5974C18.4403 64.4917 18.687 65.0204 19.6034 64.5269C20.3788 64.1039 20.8723 63.2933 20.8723 62.4121C20.978 58.9227 22.9871 52.4374 20.7313 47.9258" stroke="var(--stroke-0, #242424)" stroke-width="1.25" stroke-miterlimit="10" stroke-linecap="round" stroke-linejoin="round"/>
<path id="Vector_7" d="M0.957956 20.9975C0.852216 20.4688 1.31042 19.9401 2.01535 19.7991C2.72028 19.6581 3.4957 19.8696 3.60144 20.3631C3.70718 20.8918 2.61454 22.4778 1.94486 22.6188C1.27517 22.7598 1.0637 21.4909 0.957956 20.9975Z" fill="var(--fill-0, #242424)"/>
<path id="Vector_8" d="M9.63005 17.1845C9.6623 16.7185 9.2634 16.3112 8.73907 16.275C8.21475 16.2387 7.76356 16.5871 7.73131 17.0531C7.69906 17.5192 8.09796 17.9264 8.62229 17.9627C9.14661 17.999 9.5978 17.6506 9.63005 17.1845Z" fill="var(--fill-0, #242424)"/>
<path id="Vector_9" d="M11.8844 12.0449C11.8844 12.0449 10.8622 7.46283 11.8844 4.60786C11.8844 4.60786 18.0525 8.7317 18.0525 12.8555" stroke="var(--stroke-0, #242424)" stroke-width="1.25" stroke-miterlimit="10" stroke-linecap="round" stroke-linejoin="round"/>
<path id="Vector_10" d="M10.7565 8.73172L8.11304 6.58168C8.11304 6.58168 8.07779 9.78911 9.06469 11.3047" stroke="var(--stroke-0, #242424)" stroke-width="1.25" stroke-miterlimit="10" stroke-linecap="round" stroke-linejoin="round"/>
</g>
</svg>
