<svg preserveAspectRatio="none" width="100%" height="100%" overflow="visible" style="display: block;" viewBox="0 0 40 40" fill="none" xmlns="http://www.w3.org/2000/svg">
<g id="fancy_dog" clip-path="url(#clip0_0_1043)">
<mask id="mask0_0_1043" style="mask-type:alpha" maskUnits="userSpaceOnUse" x="0" y="0" width="40" height="40">
<rect id="Rectangle 1" x="1" y="1" width="38" height="38" rx="11" fill="var(--fill-0, #D9D9D9)" stroke="var(--stroke-0, #114FAF)" stroke-width="2"/>
</mask>
<g mask="url(#mask0_0_1043)">
<ellipse id="Ellipse 139" cx="31.5" cy="18.5" rx="1.5" ry="2.5" fill="var(--fill-0, white)"/>
<g id="Group 5">
<path id="Vector" d="M13.4362 14.5119C12.287 14.5756 11.8801 14.8991 11.0218 15.4646C8.10531 17.4015 8.40018 20.1208 8.12903 22.9885L8.10495 23.2321C8.11391 23.8456 8.38447 24.8079 9.33054 25.2232C10.8676 25.9023 13.2478 24.7637 16.8253 21.6417C17.2038 21.3116 17.2427 20.733 16.9126 20.3546C16.5826 19.9761 16.004 19.9372 15.6256 20.2672C11.4029 23.9555 10.1847 23.6054 10.0693 23.5575C9.94117 23.5062 9.92014 23.2776 9.91991 23.2734L9.93819 23.1513C10.1911 20.4809 10.5354 16.824 12.7269 15.3701C13.9675 14.5453 15.7941 14.4941 18.1405 15.2327C18.3617 15.304 18.5944 15.2827 18.8021 15.1877C23.4133 13.0065 25.8011 16.6748 25.8282 16.7109C26.1545 17.2483 26.8025 17.4839 27.3889 17.2884C29.271 16.6578 31.1456 16.6457 32.1891 16.709C32.4062 18.2882 32.0348 19.6495 31.1555 20.4376C29.8301 21.6179 27.3744 21.6204 24.0594 20.4385C23.5822 20.2687 23.0656 20.5187 22.8955 20.9917C22.7255 21.4648 22.9757 21.9855 23.4488 22.1556C28.4808 23.9481 31.0775 22.9479 32.3712 21.7986C33.8756 20.458 34.4291 18.1635 33.8478 15.6647C33.7644 15.2893 33.4523 15.01 33.0697 14.9644C32.1278 14.8496 29.7292 14.6777 27.17 15.4503C26.0679 13.9536 23.3084 11.7174 18.7201 13.7094C17.3956 13.3234 15.9044 14.375 14.826 14.4348L13.4362 14.5119Z" fill="var(--fill-0, #242424)"/>
<path id="Vector_2" d="M21.2307 17.9795C21.0792 17.4454 21.5316 16.8493 22.2411 16.6481C22.9505 16.4469 23.6485 16.7167 23.8 17.2508C23.9514 17.7848 23.4991 18.3809 22.7896 18.5821C22.0801 18.7833 21.3821 18.5135 21.2307 17.9795Z" fill="var(--fill-0, #242424)"/>
</g>
<g id="Union">
<path d="M19.6133 12.9696C21.1926 12.3773 24.6877 12.177 27.4053 15.2567C27.4071 15.2588 27.4093 15.2609 27.4111 15.2626C27.687 15.1928 27.9521 15.1251 28.2061 15.0604C29.5233 14.7249 30.5518 14.4627 31.3506 14.3241C32.3034 14.1588 33.1878 14.1149 33.9912 14.5165C34.3706 14.7062 34.5642 15.0278 34.6572 15.2255C34.7599 15.4436 34.818 15.6763 34.8525 15.8876C34.9223 16.3146 34.9212 16.8174 34.8574 17.3368C34.7296 18.3774 34.3305 19.6587 33.5117 20.7753C32.8244 21.7126 31.8423 22.5261 30.5146 22.9637C30.2801 23.8424 29.7531 24.9992 28.8018 25.8378C27.7375 26.7759 26.2364 27.2289 24.3838 26.6249C24.3708 27.287 24.5751 28.3881 24.9814 29.8104C25.8182 32.7392 27.344 36.4827 28.502 39.0468L26.4971 39.953C25.3217 37.3504 23.746 33.4943 22.8662 30.4149C22.4364 28.9107 22.1281 27.4463 22.1914 26.3885C22.2213 25.8906 22.3476 25.1866 22.8936 24.7137C23.5301 24.1628 24.3139 24.2552 24.8857 24.4696C26.1081 24.928 26.8457 24.6289 27.3467 24.1874C27.6249 23.9422 27.8512 23.6271 28.0283 23.3007C26.5912 23.2576 24.9385 22.8536 23.0479 22.0028C22.4942 21.7533 22.2478 21.1025 22.4971 20.5487C22.7464 19.9948 23.3972 19.7477 23.9512 19.9969C26.3219 21.0638 28.0287 21.2407 29.2275 21.0262C30.402 20.8161 31.1967 20.2116 31.7373 19.4745C32.2934 18.7161 32.5829 17.8098 32.6738 17.0692C32.7068 16.801 32.711 16.5768 32.7002 16.4091C32.5044 16.3937 32.2047 16.4091 31.7266 16.4921C31.0196 16.6148 30.0963 16.8495 28.7764 17.1854C28.5062 17.2542 28.219 17.3271 27.9141 17.4042C27.0765 17.6158 26.2601 17.2832 25.7559 16.7118C23.7782 14.4706 21.3207 14.6795 20.3857 15.0302C19.8171 15.2432 19.1831 14.9551 18.9697 14.3866C18.7564 13.8178 19.0445 13.1829 19.6133 12.9696ZM9.46973 15.6141C9.68304 15.0453 10.3169 14.7573 10.8857 14.9706C11.4544 15.184 11.7426 15.8178 11.5293 16.3866C11.2892 17.0269 10.9246 18.0951 10.6221 19.1923C10.3106 20.3219 10.0997 21.3623 10.0996 21.9999C10.0996 22.4602 10.129 22.8227 10.1816 23.0975C10.2286 23.3426 10.2848 23.4706 10.3184 23.5272C10.3309 23.527 10.3473 23.5264 10.3672 23.5243C10.4299 23.5177 10.5232 23.4996 10.6514 23.4569C10.8253 23.3989 11.1265 23.2487 11.5439 22.9901C11.9447 22.7418 12.3976 22.428 12.8613 22.0878C13.7885 21.4076 14.7163 20.6508 15.2832 20.1649C15.7445 19.7696 16.4396 19.8228 16.835 20.2841C17.2302 20.7453 17.1761 21.4395 16.7148 21.8348C16.1151 22.3489 15.1431 23.1425 14.1621 23.8622C13.815 24.1168 13.4607 24.3651 13.1182 24.5917C13.1395 26.2716 12.9377 28.621 12.2695 30.9423C11.515 33.5632 10.1151 36.3206 7.58984 37.9276L6.40918 36.0721C8.28384 34.8792 9.46808 32.7202 10.1553 30.3329C10.6274 28.6926 10.8367 27.0255 10.8975 25.6639C10.5471 25.7357 10.1852 25.7537 9.82617 25.6776C9.27704 25.5611 8.84433 25.2502 8.54199 24.827C8.00865 24.0803 7.89941 23.0083 7.89941 21.9999C7.89945 21.0375 8.18849 19.7441 8.50195 18.6073C8.82433 17.4382 9.20989 16.3071 9.46973 15.6141Z" fill="var(--fill-0, #242424)"/>
<path d="M19.6133 12.9696L19.4377 12.5014L19.4377 12.5014L19.6133 12.9696ZM27.4053 15.2567L27.0304 15.5875L27.0315 15.5888L27.4053 15.2567ZM27.4111 15.2626L27.0752 15.6329L27.2738 15.8131L27.5338 15.7473L27.4111 15.2626ZM28.2061 15.0604L28.0826 14.5759V14.5759L28.2061 15.0604ZM31.3506 14.3241L31.2651 13.8315L31.2651 13.8315L31.3506 14.3241ZM33.9912 14.5165L34.2148 14.0693L34.2148 14.0692L33.9912 14.5165ZM34.6572 15.2255L35.1096 15.0126L35.1096 15.0125L34.6572 15.2255ZM34.8525 15.8876L35.346 15.807L35.346 15.8069L34.8525 15.8876ZM34.8574 17.3368L35.3537 17.3977L35.3537 17.3977L34.8574 17.3368ZM33.5117 20.7753L33.9149 21.0709L33.9149 21.0709L33.5117 20.7753ZM30.5146 22.9637L30.3581 22.4889L30.1013 22.5735L30.0316 22.8348L30.5146 22.9637ZM28.8018 25.8378L29.1324 26.2129L29.1324 26.2129L28.8018 25.8378ZM24.3838 26.6249L24.5388 26.1495L23.8971 25.9403L23.8839 26.6151L24.3838 26.6249ZM24.9814 29.8104L24.5007 29.9478V29.9478L24.9814 29.8104ZM28.502 39.0468L28.7079 39.5024L29.1634 39.2965L28.9576 38.841L28.502 39.0468ZM26.4971 39.953L26.0414 40.1588L26.2472 40.6146L26.703 40.4086L26.4971 39.953ZM22.8662 30.4149L22.3854 30.5523V30.5523L22.8662 30.4149ZM22.1914 26.3885L21.6923 26.3586L21.6923 26.3587L22.1914 26.3885ZM22.8936 24.7137L22.5664 24.3357L22.5662 24.3358L22.8936 24.7137ZM24.8857 24.4696L24.7102 24.9378L24.7102 24.9378L24.8857 24.4696ZM27.3467 24.1874L27.6773 24.5625L27.6773 24.5625L27.3467 24.1874ZM28.0283 23.3007L28.4678 23.5391L28.8551 22.8252L28.0433 22.8009L28.0283 23.3007ZM23.0479 22.0028L22.8424 22.4587L22.8427 22.4588L23.0479 22.0028ZM22.4971 20.5487L22.0411 20.3435L22.0411 20.3435L22.4971 20.5487ZM23.9512 19.9969L23.746 20.4529L23.746 20.4529L23.9512 19.9969ZM29.2275 21.0262L29.3156 21.5184L29.3156 21.5184L29.2275 21.0262ZM31.7373 19.4745L32.1405 19.7702L32.1405 19.7702L31.7373 19.4745ZM32.6738 17.0692L33.1701 17.1302V17.1302L32.6738 17.0692ZM32.7002 16.4091L33.1992 16.377L33.1714 15.9445L32.7393 15.9106L32.7002 16.4091ZM31.7266 16.4921L31.6411 15.9994L31.6411 15.9994L31.7266 16.4921ZM28.7764 17.1854L28.653 16.7009V16.7009L28.7764 17.1854ZM27.9141 17.4042L28.0365 17.8889L28.0366 17.8889L27.9141 17.4042ZM25.7559 16.7118L26.1308 16.381L26.1308 16.381L25.7559 16.7118ZM20.3857 15.0302L20.5612 15.4984L20.5613 15.4983L20.3857 15.0302ZM18.9697 14.3866L18.5016 14.5622L18.5016 14.5623L18.9697 14.3866ZM9.46973 15.6141L9.00156 15.4386L9.00156 15.4386L9.46973 15.6141ZM10.8857 14.9706L11.0614 14.5025L11.0613 14.5024L10.8857 14.9706ZM11.5293 16.3866L11.0611 16.211L11.0611 16.211L11.5293 16.3866ZM10.6221 19.1923L10.1401 19.0594L10.1401 19.0594L10.6221 19.1923ZM10.0996 21.9999L9.59961 21.9998V21.9999H10.0996ZM10.1816 23.0975L9.69055 23.1915L9.69056 23.1916L10.1816 23.0975ZM10.3184 23.5272L9.88822 23.7821L10.0359 24.0314L10.3256 24.0272L10.3184 23.5272ZM10.3672 23.5243L10.4196 24.0215L10.4197 24.0215L10.3672 23.5243ZM10.6514 23.4569L10.8094 23.9313L10.8095 23.9313L10.6514 23.4569ZM11.5439 22.9901L11.8072 23.4152L11.8073 23.4152L11.5439 22.9901ZM12.8613 22.0878L13.1571 22.4909L13.1571 22.4909L12.8613 22.0878ZM15.2832 20.1649L15.6086 20.5445L15.6086 20.5445L15.2832 20.1649ZM16.835 20.2841L17.2146 19.9587L17.2146 19.9587L16.835 20.2841ZM16.7148 21.8348L17.0402 22.2145L17.0402 22.2145L16.7148 21.8348ZM14.1621 23.8622L14.4579 24.2653L14.4579 24.2653L14.1621 23.8622ZM13.1182 24.5917L12.8423 24.1746L12.6147 24.3252L12.6182 24.598L13.1182 24.5917ZM12.2695 30.9423L12.75 31.0806L12.75 31.0806L12.2695 30.9423ZM7.58984 37.9276L7.168 38.196L7.43643 38.6179L7.85828 38.3494L7.58984 37.9276ZM6.40918 36.0721L6.14074 35.6503L5.71892 35.9187L5.98734 36.3406L6.40918 36.0721ZM10.1553 30.3329L10.6358 30.4712L10.6358 30.4712L10.1553 30.3329ZM10.8975 25.6639L11.397 25.6862L11.4255 25.0455L10.7972 25.1741L10.8975 25.6639ZM9.82617 25.6776L9.72242 26.1667L9.72249 26.1667L9.82617 25.6776ZM8.54199 24.827L8.13513 25.1176L8.13515 25.1177L8.54199 24.827ZM7.89941 21.9999L7.39941 21.9999V21.9999H7.89941ZM8.50195 18.6073L8.01994 18.4744L8.01994 18.4744L8.50195 18.6073ZM19.6133 12.9696L19.7888 13.4378C21.2228 12.9 24.4816 12.6991 27.0304 15.5875L27.4053 15.2567L27.7802 14.9259C24.8938 11.6549 21.1625 11.8547 19.4377 12.5014L19.6133 12.9696ZM27.4053 15.2567L27.0315 15.5888C27.049 15.6085 27.065 15.6236 27.0752 15.6329L27.4111 15.2626L27.7471 14.8922C27.7511 14.8959 27.7556 14.9001 27.7604 14.9048C27.765 14.9094 27.7715 14.9161 27.779 14.9246L27.4053 15.2567ZM27.4111 15.2626L27.5338 15.7473C27.8102 15.6774 28.0758 15.6096 28.3295 15.545L28.2061 15.0604L28.0826 14.5759C27.8284 14.6407 27.5639 14.7082 27.2885 14.7778L27.4111 15.2626ZM28.2061 15.0604L28.3295 15.545C29.6548 15.2074 30.661 14.9512 31.4361 14.8167L31.3506 14.3241L31.2651 13.8315C30.4426 13.9742 29.3919 14.2424 28.0826 14.5759L28.2061 15.0604ZM31.3506 14.3241L31.4361 14.8167C32.3666 14.6553 33.1145 14.6372 33.7676 14.9637L33.9912 14.5165L34.2148 14.0692C33.2611 13.5925 32.2402 13.6623 31.2651 13.8315L31.3506 14.3241ZM33.9912 14.5165L33.7676 14.9637C34.0027 15.0813 34.1334 15.2867 34.2048 15.4384L34.6572 15.2255L35.1096 15.0125C34.995 14.769 34.7384 14.331 34.2148 14.0693L33.9912 14.5165ZM34.6572 15.2255L34.2048 15.4384C34.2812 15.6007 34.3291 15.7847 34.3591 15.9682L34.8525 15.8876L35.346 15.8069C35.3069 15.5679 35.2385 15.2865 35.1096 15.0126L34.6572 15.2255ZM34.8525 15.8876L34.3591 15.9681C34.4193 16.3372 34.4207 16.7908 34.3611 17.2759L34.8574 17.3368L35.3537 17.3977C35.4217 16.844 35.4252 16.292 35.346 15.807L34.8525 15.8876ZM34.8574 17.3368L34.3612 17.2758C34.2417 18.2482 33.8676 19.4444 33.1085 20.4796L33.5117 20.7753L33.9149 21.0709C34.7934 19.873 35.2175 18.5066 35.3537 17.3977L34.8574 17.3368ZM33.5117 20.7753L33.1085 20.4796C32.475 21.3434 31.5752 22.0877 30.3581 22.4889L30.5146 22.9637L30.6712 23.4386C32.1094 22.9645 33.1737 22.0817 33.9149 21.0709L33.5117 20.7753ZM30.5146 22.9637L30.0316 22.8348C29.8132 23.6525 29.3257 24.7094 28.4711 25.4627L28.8018 25.8378L29.1324 26.2129C30.1805 25.289 30.7469 24.0323 30.9977 23.0927L30.5146 22.9637ZM28.8018 25.8378L28.4711 25.4627C27.5379 26.2853 26.2211 26.698 24.5388 26.1495L24.3838 26.6249L24.2288 27.1003C26.2517 27.7598 27.937 27.2665 29.1324 26.2129L28.8018 25.8378ZM24.3838 26.6249L23.8839 26.6151C23.8694 27.3575 24.0928 28.5203 24.5007 29.9478L24.9814 29.8104L25.4622 29.6731C25.0573 28.2559 24.8723 27.2166 24.8837 26.6347L24.3838 26.6249ZM24.9814 29.8104L24.5007 29.9478C25.3473 32.9108 26.8844 36.6799 28.0463 39.2525L28.502 39.0468L28.9576 38.841C27.8036 36.2856 26.2892 32.5676 25.4622 29.6731L24.9814 29.8104ZM28.502 39.0468L28.296 38.5911L26.2911 39.4974L26.4971 39.953L26.703 40.4086L28.7079 39.5024L28.502 39.0468ZM26.4971 39.953L26.9528 39.7472C25.7813 37.1533 24.217 33.3227 23.347 30.2776L22.8662 30.4149L22.3854 30.5523C23.2751 33.6659 24.8621 37.5475 26.0414 40.1588L26.4971 39.953ZM22.8662 30.4149L23.347 30.2776C22.9176 28.7747 22.6327 27.3831 22.6905 26.4184L22.1914 26.3885L21.6923 26.3587C21.6234 27.5095 21.9553 29.0467 22.3854 30.5523L22.8662 30.4149ZM22.1914 26.3885L22.6905 26.4185C22.7184 25.9531 22.8341 25.4267 23.2209 25.0917L22.8936 24.7137L22.5662 24.3358C21.861 24.9465 21.7241 25.8282 21.6923 26.3586L22.1914 26.3885ZM22.8936 24.7137L23.2208 25.0918C23.6545 24.7164 24.2118 24.7509 24.7102 24.9378L24.8857 24.4696L25.0613 24.0014C24.4161 23.7595 23.4057 23.6093 22.5664 24.3357L22.8936 24.7137ZM24.8857 24.4696L24.7102 24.9378C25.3865 25.1914 25.969 25.25 26.4761 25.1579C26.9852 25.0654 27.3753 24.8286 27.6773 24.5625L27.3467 24.1874L27.0161 23.8123C26.8171 23.9876 26.5879 24.1212 26.2973 24.174C26.0048 24.2272 25.6074 24.2062 25.0613 24.0014L24.8857 24.4696ZM27.3467 24.1874L27.6773 24.5625C28.0116 24.2678 28.2716 23.9008 28.4678 23.5391L28.0283 23.3007L27.5888 23.0622C27.4308 23.3535 27.2381 23.6166 27.0161 23.8123L27.3467 24.1874ZM28.0283 23.3007L28.0433 22.8009C26.6876 22.7602 25.1 22.378 23.253 21.5468L23.0479 22.0028L22.8427 22.4588C24.7769 23.3292 26.4948 23.7549 28.0133 23.8004L28.0283 23.3007ZM23.0479 22.0028L23.2533 21.5469C22.9515 21.411 22.817 21.0562 22.953 20.7539L22.4971 20.5487L22.0411 20.3435C21.6787 21.1489 22.0369 22.0957 22.8424 22.4587L23.0479 22.0028ZM22.4971 20.5487L22.953 20.7539C23.0891 20.4516 23.444 20.317 23.746 20.4529L23.9512 19.9969L24.1564 19.541C23.3504 19.1783 22.4037 19.538 22.0411 20.3435L22.4971 20.5487ZM23.9512 19.9969L23.746 20.4529C26.1756 21.5462 27.9871 21.7561 29.3156 21.5184L29.2275 21.0262L29.1395 20.5341C28.0703 20.7253 26.4682 20.5813 24.1564 19.541L23.9512 19.9969ZM29.2275 21.0262L29.3156 21.5184C30.6306 21.2831 31.5329 20.5986 32.1405 19.7702L31.7373 19.4745L31.3341 19.1788C30.8604 19.8247 30.1734 20.3491 29.1395 20.5341L29.2275 21.0262ZM31.7373 19.4745L32.1405 19.7702C32.7562 18.9306 33.0707 17.9393 33.1701 17.1302L32.6738 17.0692L32.1776 17.0083C32.095 17.6803 31.8307 18.5016 31.3341 19.1788L31.7373 19.4745ZM32.6738 17.0692L33.1701 17.1302C33.2064 16.8349 33.2122 16.5794 33.1992 16.377L32.7002 16.4091L32.2012 16.4411C32.2098 16.5743 32.2072 16.7672 32.1776 17.0083L32.6738 17.0692ZM32.7002 16.4091L32.7393 15.9106C32.4841 15.8906 32.1379 15.9132 31.6411 15.9994L31.7266 16.4921L31.812 16.9847C32.2716 16.905 32.5248 16.8968 32.6611 16.9075L32.7002 16.4091ZM31.7266 16.4921L31.6411 15.9994C30.9103 16.1262 29.9645 16.3671 28.653 16.7009L28.7764 17.1854L28.8997 17.67C30.2281 17.3319 31.1288 17.1033 31.8121 16.9847L31.7266 16.4921ZM28.7764 17.1854L28.653 16.7009C28.3832 16.7696 28.0962 16.8424 27.7915 16.9194L27.9141 17.4042L28.0366 17.8889C28.3418 17.8117 28.6293 17.7388 28.8997 17.67L28.7764 17.1854ZM27.9141 17.4042L27.7916 16.9194C27.1589 17.0793 26.5279 16.831 26.1308 16.381L25.7559 16.7118L25.381 17.0426C25.9922 17.7354 26.9941 18.1523 28.0365 17.8889L27.9141 17.4042ZM25.7559 16.7118L26.1308 16.381C23.9859 13.9503 21.2932 14.1559 20.2102 14.562L20.3857 15.0302L20.5613 15.4983C21.3483 15.2032 23.5705 14.991 25.381 17.0426L25.7559 16.7118ZM20.3857 15.0302L20.2103 14.5619C19.9001 14.6782 19.5542 14.521 19.4378 14.2109L18.9697 14.3866L18.5016 14.5623C18.812 15.3893 19.7341 15.8083 20.5612 15.4984L20.3857 15.0302ZM18.9697 14.3866L19.4379 14.211C19.3214 13.9004 19.479 13.554 19.7889 13.4378L19.6133 12.9696L19.4377 12.5014C18.61 12.8119 18.1914 13.7351 18.5016 14.5622L18.9697 14.3866ZM9.46973 15.6141L9.93789 15.7897C10.0542 15.4795 10.3998 15.3224 10.7102 15.4387L10.8857 14.9706L11.0613 14.5024C10.234 14.1922 9.31186 14.6111 9.00156 15.4386L9.46973 15.6141ZM10.8857 14.9706L10.7101 15.4387C11.0203 15.5551 11.1774 15.9009 11.0611 16.211L11.5293 16.3866L11.9975 16.5622C12.3077 15.7348 11.8885 14.8128 11.0614 14.5025L10.8857 14.9706ZM11.5293 16.3866L11.0611 16.211C10.8166 16.8632 10.4471 17.9458 10.1401 19.0594L10.6221 19.1923L11.1041 19.3252C11.4021 18.2445 11.7618 17.1906 11.9975 16.5622L11.5293 16.3866ZM10.6221 19.1923L10.1401 19.0594C9.82816 20.1905 9.59966 21.2884 9.59961 21.9998L10.0996 21.9999L10.5996 21.9999C10.5996 21.4362 10.793 20.4533 11.1041 19.3252L10.6221 19.1923ZM10.0996 21.9999H9.59961C9.59961 22.4783 9.62995 22.8748 9.69055 23.1915L10.1816 23.0975L10.6727 23.0035C10.6282 22.7706 10.5996 22.4422 10.5996 21.9999H10.0996ZM10.1816 23.0975L9.69056 23.1916C9.74436 23.4725 9.81607 23.6604 9.88822 23.7821L10.3184 23.5272L10.7485 23.2723C10.7536 23.2809 10.7128 23.2127 10.6727 23.0035L10.1816 23.0975ZM10.3184 23.5272L10.3256 24.0272C10.3498 24.0268 10.3816 24.0255 10.4196 24.0215L10.3672 23.5243L10.3148 23.027C10.313 23.0272 10.3121 23.0273 10.3111 23.0273L10.3184 23.5272ZM10.3672 23.5243L10.4197 24.0215C10.5242 24.0105 10.6531 23.9834 10.8094 23.9313L10.6514 23.4569L10.4933 22.9825C10.3933 23.0159 10.3357 23.0248 10.3147 23.0271L10.3672 23.5243ZM10.6514 23.4569L10.8095 23.9313C11.0409 23.8541 11.3827 23.6782 11.8072 23.4152L11.5439 22.9901L11.2806 22.5651C10.8704 22.8192 10.6097 22.9438 10.4933 22.9826L10.6514 23.4569ZM11.5439 22.9901L11.8073 23.4152C12.2233 23.1574 12.6877 22.8353 13.1571 22.4909L12.8613 22.0878L12.5656 21.6846C12.1075 22.0207 11.6662 22.3262 11.2806 22.5651L11.5439 22.9901ZM12.8613 22.0878L13.1571 22.4909C14.0964 21.8018 15.0342 21.0368 15.6086 20.5445L15.2832 20.1649L14.9578 19.7853C14.3984 20.2648 13.4805 21.0134 12.5656 21.6846L12.8613 22.0878ZM15.2832 20.1649L15.6086 20.5445C15.8603 20.3288 16.2398 20.358 16.4553 20.6095L16.835 20.2841L17.2146 19.9587C16.6394 19.2876 15.6286 19.2103 14.9578 19.7853L15.2832 20.1649ZM16.835 20.2841L16.4553 20.6094C16.6705 20.8605 16.6415 21.2392 16.3894 21.4552L16.7148 21.8348L17.0402 22.2145C17.7106 21.6398 17.79 20.6301 17.2146 19.9587L16.835 20.2841ZM16.7148 21.8348L16.3894 21.4552C15.797 21.963 14.835 22.7484 13.8664 23.459L14.1621 23.8622L14.4579 24.2653C15.4511 23.5367 16.4331 22.7349 17.0402 22.2145L16.7148 21.8348ZM14.1621 23.8622L13.8664 23.459C13.5249 23.7095 13.1773 23.9531 12.8423 24.1746L13.1182 24.5917L13.394 25.0087C13.7442 24.7771 14.1051 24.5241 14.4579 24.2653L14.1621 23.8622ZM13.1182 24.5917L12.6182 24.598C12.6391 26.2386 12.4413 28.5381 11.789 30.804L12.2695 30.9423L12.75 31.0806C13.4342 28.7039 13.64 26.3045 13.6181 24.5853L13.1182 24.5917ZM12.2695 30.9423L11.789 30.8039C11.0498 33.3717 9.69879 35.9929 7.32141 37.5058L7.58984 37.9276L7.85828 38.3494C10.5314 36.6484 11.9802 33.7546 12.75 31.0806L12.2695 30.9423ZM7.58984 37.9276L8.01168 37.6592L6.83102 35.8037L6.40918 36.0721L5.98734 36.3406L7.168 38.196L7.58984 37.9276ZM6.40918 36.0721L6.67761 36.494C8.70009 35.207 9.93324 32.9118 10.6358 30.4712L10.1553 30.3329L9.67478 30.1946C9.00291 32.5287 7.86759 34.5514 6.14074 35.6503L6.40918 36.0721ZM10.1553 30.3329L10.6358 30.4712C11.1211 28.785 11.3349 27.0776 11.397 25.6862L10.8975 25.6639L10.398 25.6417C10.3386 26.9734 10.1337 28.6003 9.67478 30.1946L10.1553 30.3329ZM10.8975 25.6639L10.7972 25.1741C10.496 25.2358 10.2056 25.2469 9.92986 25.1885L9.82617 25.6776L9.72249 26.1667C10.1647 26.2605 10.5982 26.2356 10.9977 26.1538L10.8975 25.6639ZM9.82617 25.6776L9.92992 25.1885C9.51339 25.1001 9.18488 24.8668 8.94884 24.5364L8.54199 24.827L8.13515 25.1177C8.50378 25.6337 9.04068 26.0221 9.72242 26.1667L9.82617 25.6776ZM8.54199 24.827L8.94886 24.5364C8.51558 23.9298 8.39941 23.0032 8.39941 21.9999H7.89941H7.39941C7.39941 23.0133 7.50172 24.2309 8.13513 25.1176L8.54199 24.827ZM7.89941 21.9999L8.39941 21.9999C8.39945 21.1112 8.67099 19.8753 8.98397 18.7402L8.50195 18.6073L8.01994 18.4744C7.70599 19.613 7.39946 20.9637 7.39941 21.9999L7.89941 21.9999ZM8.50195 18.6073L8.98396 18.7402C9.30183 17.5875 9.68254 16.4707 9.93789 15.7897L9.46973 15.6141L9.00156 15.4386C8.73724 16.1435 8.34684 17.2889 8.01994 18.4744L8.50195 18.6073Z" fill="var(--stroke-0, white)"/>
</g>
<g id="Vector (Stroke)">
<path fill-rule="evenodd" clip-rule="evenodd" d="M25.5011 29.4077C25.6543 30.0356 25.56 30.6723 25.439 31.1368C25.3084 31.6382 25.0908 32.1518 24.8089 32.6037L24.781 32.6486C24.9271 33.5016 24.7268 34.4129 24.2498 35.1326C23.4484 36.3419 21.9905 36.9229 20.2659 36.6121C19.4901 36.4723 18.7592 36.1319 18.152 35.6721C17.9883 35.6995 17.8191 35.7127 17.6456 35.7099L17.2638 35.7038C17.0904 35.701 16.9218 35.6824 16.759 35.6498C16.1374 36.0899 15.3959 36.4067 14.616 36.5216C12.8823 36.7769 11.4438 36.1495 10.6815 34.9153C10.2278 34.1807 10.0568 33.2635 10.2301 32.4156L10.2035 32.3696C9.93637 31.909 9.73538 31.3888 9.62096 30.8834C9.51497 30.4153 9.44104 29.776 9.61431 29.1533C9.80559 28.4661 10.2547 27.9161 10.8894 27.6094C11.4508 27.3381 12.0252 27.3199 12.446 27.3543C13.2794 27.4224 14.1458 27.7561 14.7833 28.0468C15.4275 28.3406 16.4095 28.8678 17.2071 29.6616C17.2579 29.6597 17.3091 29.6591 17.3607 29.6599L17.7425 29.666C17.7941 29.6668 17.8453 29.6691 17.896 29.6727C18.7185 28.9049 19.7166 28.4094 20.37 28.1363M19.0645 30.8586C18.9519 30.9615 18.8456 31.0695 18.7481 31.1824C18.6323 31.3165 18.5288 31.4576 18.4414 31.6055C18.4097 31.579 18.3767 31.5541 18.3427 31.531C18.2677 31.4802 18.1873 31.4378 18.1025 31.4053C17.9814 31.3588 17.8515 31.3324 17.7159 31.3302L17.3341 31.3241C17.1985 31.3219 17.0678 31.3442 16.9452 31.3868C16.8594 31.4166 16.7776 31.4564 16.701 31.5049C16.6663 31.5268 16.6326 31.5506 16.6001 31.576C16.5175 31.4252 16.4184 31.2808 16.3068 31.1429C16.2131 31.0272 16.1105 30.916 16.0014 30.8096C15.4358 30.2584 14.6937 29.8353 14.0927 29.5612C12.9029 29.0187 11.4878 28.6296 11.2178 29.5995C11.1505 29.8414 11.166 30.1669 11.2429 30.5098C11.3208 30.8567 11.4616 31.2213 11.6434 31.5347C11.6434 31.5347 11.9867 31.5571 12.4213 31.6089C12.488 31.6169 12.5569 31.6255 12.627 31.6349C12.9733 31.6811 13.3498 31.7449 13.6468 31.8292C14.0958 31.9568 14.3629 32.1314 14.0683 32.3637C13.5678 32.7585 13.2177 32.8083 12.5664 32.5172C12.4162 32.4501 12.25 32.3649 12.0622 32.2616C12.0201 32.3232 11.9835 32.3901 11.9525 32.461C11.8548 32.6847 11.813 32.9492 11.8331 33.2203C11.8569 33.5414 11.9674 33.8719 12.1744 34.1547C12.5571 34.6775 13.2696 35.0375 14.3735 34.8749C14.895 34.7981 15.3991 34.5773 15.8157 34.2783C15.9054 34.214 15.9911 34.1459 16.072 34.075C16.218 33.9469 16.3486 33.8093 16.4595 33.6658C16.4838 33.6913 16.509 33.7157 16.5352 33.739C16.604 33.8003 16.6791 33.8537 16.7595 33.8978C16.9193 33.9856 17.0994 34.0365 17.2905 34.0396L17.6723 34.0457C17.8635 34.0488 18.0452 34.0036 18.2078 33.9209C18.2894 33.8794 18.3662 33.8284 18.437 33.7693C18.4638 33.7469 18.4897 33.7234 18.5147 33.6987C18.6211 33.8457 18.7473 33.9875 18.8892 34.1202C18.9676 34.1936 19.0509 34.2641 19.1383 34.3312C19.5453 34.6435 20.0421 34.8805 20.561 34.974C21.6592 35.1719 22.3829 34.8349 22.7821 34.3245C22.998 34.0485 23.1191 33.7217 23.1531 33.4015C23.1818 33.1312 23.1485 32.8654 23.058 32.6387C23.0293 32.5669 22.9948 32.4989 22.9547 32.436C22.7638 32.5333 22.595 32.6131 22.4427 32.6754C21.7824 32.9454 21.4341 32.8844 20.9464 32.4739C20.6594 32.2322 20.9319 32.0662 21.3848 31.9531C21.6844 31.8783 22.0628 31.8266 22.4103 31.7915C22.4807 31.7844 22.5498 31.778 22.6167 31.7722C23.0528 31.7343 23.3967 31.7229 23.3967 31.7229C23.5884 31.4155 23.7409 31.0556 23.8298 30.7113C23.9177 30.3711 23.9436 30.0462 23.8841 29.8023C23.6453 28.8241 22.2185 29.1677 21.0119 29.672C20.4025 29.9267 19.6474 30.3258 19.0645 30.8586ZM25.5011 29.4077C25.3319 28.7147 24.9008 28.1507 24.2762 27.8237ZM24.2762 27.8237C23.7238 27.5345 23.1502 27.4979 22.7284 27.5188ZM22.7284 27.5188C21.8932 27.5602 21.0165 27.8661 20.37 28.1363Z" fill="var(--fill-0, white)"/>
<path fill-rule="evenodd" clip-rule="evenodd" d="M25.439 31.1368C25.56 30.6723 25.6543 30.0356 25.5011 29.4077C25.3319 28.7147 24.9008 28.1507 24.2762 27.8237C23.7238 27.5345 23.1502 27.4979 22.7284 27.5188C21.8932 27.5602 21.0165 27.8661 20.37 28.1363C19.7166 28.4094 18.7185 28.9049 17.896 29.6727C17.8453 29.6691 17.7941 29.6668 17.7425 29.666L17.3607 29.6599C17.3091 29.6591 17.2579 29.6597 17.2071 29.6616C16.4095 28.8678 15.4275 28.3406 14.7833 28.0468C14.1458 27.7561 13.2794 27.4224 12.446 27.3543C12.0252 27.3199 11.4508 27.3381 10.8894 27.6094C10.2547 27.9161 9.80559 28.4661 9.61431 29.1533C9.44104 29.776 9.51497 30.4153 9.62096 30.8834C9.73538 31.3888 9.93637 31.909 10.2035 32.3696L10.2301 32.4156C10.0568 33.2635 10.2278 34.1807 10.6815 34.9153C11.4438 36.1495 12.8823 36.7769 14.616 36.5216C15.3959 36.4067 16.1374 36.0899 16.759 35.6498C16.9218 35.6824 17.0904 35.701 17.2638 35.7038L17.6456 35.7099C17.8191 35.7127 17.9883 35.6995 18.152 35.6721C18.7592 36.1319 19.4901 36.4723 20.2659 36.6121C21.9905 36.9229 23.4484 36.3419 24.2498 35.1326C24.7268 34.4129 24.9271 33.5016 24.781 32.6486L24.8089 32.6037C25.0908 32.1518 25.3084 31.6382 25.439 31.1368ZM18.7481 31.1824C18.8456 31.0695 18.9519 30.9615 19.0645 30.8586C19.6474 30.3258 20.4025 29.9267 21.0119 29.672C22.2185 29.1677 23.6453 28.8241 23.8841 29.8023C23.9436 30.0462 23.9177 30.3711 23.8298 30.7113C23.7409 31.0556 23.5884 31.4155 23.3967 31.7229C23.3967 31.7229 23.0528 31.7343 22.6167 31.7722C22.5498 31.778 22.4807 31.7844 22.4103 31.7915C22.0628 31.8266 21.6844 31.8783 21.3848 31.9531C20.9319 32.0662 20.6594 32.2322 20.9464 32.4739C21.4341 32.8844 21.7824 32.9454 22.4427 32.6754C22.595 32.6131 22.7638 32.5333 22.9547 32.436C22.9948 32.4989 23.0293 32.5669 23.058 32.6387C23.1485 32.8654 23.1818 33.1312 23.1531 33.4015C23.1191 33.7217 22.998 34.0485 22.7821 34.3245C22.3829 34.8349 21.6592 35.1719 20.561 34.974C20.0421 34.8805 19.5453 34.6435 19.1383 34.3312C19.0509 34.2641 18.9676 34.1936 18.8892 34.1202C18.7473 33.9875 18.6211 33.8457 18.5147 33.6987C18.4897 33.7234 18.4638 33.7469 18.437 33.7693C18.3662 33.8284 18.2894 33.8794 18.2078 33.9209C18.0452 34.0036 17.8635 34.0488 17.6723 34.0457L17.2905 34.0396C17.0994 34.0365 16.9193 33.9856 16.7595 33.8978C16.6791 33.8537 16.604 33.8003 16.5352 33.739C16.509 33.7157 16.4838 33.6913 16.4595 33.6658C16.3486 33.8093 16.218 33.9469 16.072 34.075C15.9911 34.1459 15.9054 34.214 15.8157 34.2783C15.3991 34.5773 14.895 34.7981 14.3735 34.8749C13.2696 35.0375 12.5571 34.6775 12.1744 34.1547C11.9674 33.8719 11.8569 33.5414 11.8331 33.2203C11.813 32.9492 11.8548 32.6847 11.9525 32.461C11.9835 32.3901 12.0201 32.3232 12.0622 32.2616C12.25 32.3649 12.4162 32.4501 12.5664 32.5172C13.2177 32.8083 13.5678 32.7585 14.0683 32.3637C14.3629 32.1314 14.0958 31.9568 13.6468 31.8292C13.3498 31.7449 12.9733 31.6811 12.627 31.6349C12.5569 31.6255 12.488 31.6169 12.4213 31.6089C11.9867 31.5571 11.6434 31.5347 11.6434 31.5347C11.4616 31.2213 11.3208 30.8567 11.2429 30.5098C11.166 30.1669 11.1505 29.8414 11.2178 29.5995C11.4878 28.6296 12.9029 29.0187 14.0927 29.5612C14.6937 29.8353 15.4358 30.2584 16.0014 30.8096C16.1105 30.916 16.2131 31.0272 16.3068 31.1429C16.4184 31.2808 16.5175 31.4252 16.6001 31.576C16.6326 31.5506 16.6663 31.5268 16.701 31.5049C16.7776 31.4564 16.8594 31.4166 16.9452 31.3868C17.0678 31.3442 17.1985 31.3219 17.3341 31.3241L17.7159 31.3302C17.8515 31.3324 17.9814 31.3588 18.1025 31.4053C18.1873 31.4378 18.2677 31.4802 18.3427 31.531C18.3767 31.5541 18.4097 31.579 18.4414 31.6055C18.5288 31.4576 18.6323 31.3165 18.7481 31.1824Z" fill="var(--fill-0, white)"/>
</g>
<path id="Vector_3" d="M22.8131 29.231C23.0772 29.2179 23.3061 29.2506 23.4813 29.3423C23.6542 29.4329 23.7787 29.583 23.8351 29.8139C23.8922 30.0477 23.868 30.366 23.7798 30.7047C23.694 31.0341 23.5483 31.3774 23.3668 31.6738C23.3643 31.6739 23.3617 31.6745 23.359 31.6747C23.3355 31.6756 23.3007 31.6768 23.2573 31.6789C23.1706 31.6831 23.0475 31.6895 22.9025 31.6996C22.6124 31.7197 22.233 31.7534 21.8772 31.8072C21.5235 31.8607 21.1857 31.9352 20.9837 32.04C20.8847 32.0914 20.803 32.1581 20.7831 32.2458C20.7622 32.3384 20.8146 32.4284 20.9146 32.5126C21.2188 32.7686 21.4777 32.8971 21.7944 32.889C22.0979 32.8812 22.4474 32.7466 22.9346 32.501C23.1955 32.9498 23.1795 33.6445 22.8207 34.1859C22.4548 34.7376 21.7297 35.1332 20.5703 34.9244C19.7512 34.7768 18.9866 34.2656 18.5549 33.6693L18.5215 33.6219L18.4798 33.6632C18.2663 33.8737 17.9817 34.001 17.6726 33.996L17.2909 33.9899C16.9821 33.9848 16.7023 33.8486 16.4957 33.6314L16.4554 33.5888L16.4204 33.6351C15.9701 34.2173 15.1895 34.7037 14.366 34.825C13.2002 34.9966 12.4883 34.5772 12.1404 34.0139C11.7992 33.4612 11.8042 32.7662 12.0795 32.3262C12.5591 32.5877 12.9043 32.734 13.2076 32.7515C13.5239 32.7697 13.7868 32.6496 14.099 32.4034C14.2016 32.3225 14.2569 32.2342 14.239 32.141C14.2219 32.0527 14.1424 31.9834 14.0451 31.9289C13.8465 31.8177 13.5114 31.7324 13.1595 31.6676C12.8056 31.6024 12.4275 31.5566 12.1382 31.5272C11.9936 31.5125 11.8707 31.5021 11.7842 31.4952C11.7409 31.4917 11.7062 31.4894 11.6827 31.4877C11.6796 31.4875 11.6767 31.4868 11.674 31.4866C11.5022 31.1846 11.3683 30.8366 11.2931 30.5048C11.2159 30.1634 11.2019 29.8445 11.2664 29.6126C11.3302 29.3837 11.4594 29.2376 11.6352 29.1526C11.8132 29.0666 12.0431 29.0413 12.3066 29.0628C12.8338 29.106 13.4781 29.3362 14.0716 29.6068C14.925 29.996 16.0533 30.682 16.5566 31.5999L16.585 31.6512L16.6305 31.6158C16.8288 31.4608 17.0726 31.3699 17.3337 31.374L17.7155 31.3802C17.9766 31.3844 18.2165 31.4831 18.4096 31.6442L18.4549 31.6811L18.4841 31.6308C19.0165 30.7294 20.1661 30.0799 21.0316 29.7182C21.6334 29.4667 22.2848 29.2573 22.8131 29.231Z" fill="var(--fill-0, #242424)" stroke="var(--stroke-0, white)" stroke-width="0.1"/>
<path id="Vector_4" d="M33.8758 17.0821C33.7485 17.8648 34.4411 19.2717 33.5343 19.1751C32.6276 19.0785 30.4583 17.5184 30.5857 16.7358C30.713 15.9532 31.5493 15.3956 32.456 15.4922C33.3627 15.5888 33.9963 16.2999 33.869 17.0825L33.8758 17.0821Z" fill="var(--fill-0, #242424)"/>
<path id="Vector_5" d="M19.9506 6.56168C20.1781 6.36584 20.533 6.45982 20.6245 6.73719L20.7858 7.2259C20.9349 7.67728 21.3643 8.00403 21.8431 8.00811L21.8428 8.00718C22.8675 8.05474 23.7361 8.22563 24.3903 8.51547C25.045 8.80552 25.4756 9.21096 25.6456 9.72596C25.8132 10.2339 25.7195 10.8108 25.3856 11.4274C25.0514 12.0443 24.4809 12.6923 23.7143 13.3335C22.1812 14.6157 19.8787 15.8564 17.1676 16.7514C14.4565 17.6464 11.8679 18.0203 9.87279 17.9028C8.87512 17.8441 8.03095 17.663 7.39516 17.3663C6.75974 17.0697 6.34009 16.6623 6.17236 16.1544C6.00221 15.639 6.10453 15.0478 6.45533 14.4166C6.80573 13.7861 7.39915 13.1238 8.19342 12.476L8.19466 12.4767C8.28114 12.4114 8.35921 12.3484 8.43639 12.2868C8.51333 12.2254 8.58856 12.1641 8.67132 12.1013C8.76946 12.0682 8.82295 11.963 8.7906 11.8645L8.42722 10.7637C8.33567 10.4864 8.56485 10.1996 8.86422 10.2215C10.8894 10.3695 12.9047 10.1125 14.7725 9.49588C16.6401 8.87932 18.4117 7.88614 19.9506 6.56168ZM22.0888 9.56526C21.9271 9.37088 21.6437 9.3759 21.4663 9.52702L21.4623 9.5304C18.2231 12.6224 13.8614 14.0623 9.41799 13.5064L9.41274 13.5061L9.338 13.5071C9.16526 13.5233 9.00859 13.6358 8.9542 13.8055C8.93465 13.8666 8.92474 13.9321 8.92802 13.9972C8.93903 14.2161 9.12755 14.3747 9.32864 14.3915L9.32895 14.3925C11.6631 14.7027 13.9956 14.4542 16.1721 13.7357C18.3485 13.0172 20.3694 11.8276 22.0601 10.1887C22.2468 10.0249 22.2361 9.74266 22.0888 9.56526ZM13.0977 5.66879C14.4459 5.23424 15.9908 5.13308 17.9364 5.29525C18.3121 5.32657 18.5629 5.56539 18.6457 5.84577C18.7282 6.12538 18.6457 6.45177 18.3389 6.66695C15.8847 8.38795 12.9668 9.32457 9.96521 9.35101C9.26743 9.35713 8.9333 8.56267 9.4245 8.06198C10.5924 6.87297 11.7509 6.10292 13.0977 5.66879Z" fill="var(--fill-0, #242424)" stroke="var(--stroke-0, white)" stroke-width="0.2"/>
</g>
</g>
<defs>
<clipPath id="clip0_0_1043">
<rect width="40" height="40" fill="white"/>
</clipPath>
</defs>
</svg>
