<svg preserveAspectRatio="none" width="100%" height="100%" overflow="visible" style="display: block;" viewBox="0 0 12 10.6667" fill="none" xmlns="http://www.w3.org/2000/svg">
<path id="icon" fill-rule="evenodd" clip-rule="evenodd" d="M6 3.26923L4.62291 1.88222C3.86237 1.11619 2.62928 1.11619 1.86874 1.88222C1.10819 2.64824 1.10819 3.89022 1.86874 4.65625L6 8.81731L10.1313 4.65625C10.8918 3.89022 10.8918 2.64825 10.1313 1.88222C9.37072 1.11619 8.13763 1.11619 7.37709 1.88222L6 3.26923ZM0.95068 5.58093C-0.316893 4.30422 -0.316893 2.23425 0.95068 0.957537C2.21825 -0.319179 4.2734 -0.319179 5.54097 0.957537L6 1.41988L6.45903 0.957537C7.7266 -0.319179 9.78175 -0.319179 11.0493 0.957537C12.3169 2.23425 12.3169 4.30422 11.0493 5.58093L6 10.6667L0.95068 5.58093Z" fill="var(--fill-0, #232323)"/>
</svg>
