<svg preserveAspectRatio="none" width="100%" height="100%" overflow="visible" style="display: block;" viewBox="0 0 77.7501 68.75" fill="none" xmlns="http://www.w3.org/2000/svg">
<g id="art">
<path id="Vector" d="M11.5712 8.03792L8.62047 9.6741C8.62047 9.6741 7.01097 11.0765 7.17862 13.08C7.17862 13.08 8.2181 13.4807 1.57888 16.1854C1.57888 16.1854 -0.567128 17.6213 1.57888 19.2908C1.57888 19.2908 2.95367 23.3646 7.48041 22.2293C7.48041 22.2293 12.2419 20.6599 12.0071 18.8567" stroke="var(--stroke-0, #242424)" stroke-width="1.25" stroke-miterlimit="10" stroke-linecap="round" stroke-linejoin="round"/>
<path id="Vector_2" d="M32.1595 46.0707C37.994 46.9389 50.0988 40.6613 50.0988 40.6613C57.4422 37.4557 59.0517 42.1305 59.0517 42.1305C59.0517 42.1305 60.6612 48.2412 70.05 54.9862C70.05 54.9862 74.4091 57.1233 72.8666 64.1021C72.8666 64.1021 69.1111 64.4026 69.1111 67.0739C69.1111 67.0739 68.7423 68.2426 73.0007 68.1091C73.0007 68.1091 75.7503 68.6099 77.1251 64.0019L76.3874 55.8878C76.3874 55.8878 77.1251 53.9845 73.8726 51.5135C73.8726 51.5135 69.4464 44.7685 71.3577 38.1904C71.3577 38.1904 72.3972 31.7458 66.6968 28.4067L66.6298 26.9375C73.6043 18.1555 72.8666 14.1485 72.8666 14.1485C72.3301 3.8306 64.9867 0.625026 64.9867 0.625026C69.7817 9.37357 69.3123 15.2171 69.3123 15.2171C68.4069 20.8936 63.176 23.5649 63.176 23.5649C61.1642 24.8004 51.9766 22.463 42.1519 22.7301C27.4651 21.8953 21.0606 9.6407 21.0606 9.6407C20.4235 8.53879 19.6188 7.87096 18.747 7.43687" stroke="var(--stroke-0, #242424)" stroke-width="1.25" stroke-miterlimit="10" stroke-linecap="round" stroke-linejoin="round"/>
<path id="Vector_3" d="M32.0254 42.1305C33.199 44.1674 31.9919 46.7719 31.4218 47.7403C31.2542 48.0408 31.1536 48.3747 31.0865 48.7086L30.4829 58.2252C30.4494 58.5257 30.5165 58.8262 30.6506 59.1268C31.4218 60.4958 30.4159 61.197 30.4159 61.197L28.4711 66.4061C28.1357 66.9403 27.5322 67.3076 26.8616 67.4078C26.0568 67.5414 24.8497 67.7083 24.4138 67.7083H23.3072C21.1612 67.7083 21.9995 65.037 22.1001 64.9035C22.4689 64.3358 23.1731 63.9685 23.9443 63.8349C24.6149 63.7348 24.4808 64.0687 25.2856 63.4676C25.6544 63.2005 26.9286 61.8315 26.9621 60.9967C27.0627 57.6909 25.7215 55.6874 25.9897 48.4081C25.9897 48.4081 25.5874 47.2394 23.609 45.3695C23.609 45.3695 18.4452 42.765 18.4452 32.3802C18.4452 32.3802 19.5517 34.1166 15.6621 25.1009C14.7232 22.9305 13.5161 23.4981 13.5161 23.4981C13.5161 23.4981 11.806 24.7336 10.4312 24.5333C9.89467 24.4665 9.76055 23.7319 10.2635 23.4647C11.4036 22.8971 13.0802 21.695 12.1748 19.5579" stroke="var(--stroke-0, #242424)" stroke-width="1.25" stroke-miterlimit="10" stroke-linecap="round" stroke-linejoin="round"/>
<path id="Vector_4" d="M69.8488 54.5521L70.5865 61.3306C69.2117 65.9386 66.4621 65.4377 66.4621 65.4377C62.2036 65.5713 62.5725 64.4026 62.5725 64.4026C62.5725 61.7313 66.328 61.4308 66.328 61.4308C67.8704 54.4853 63.5113 52.3149 63.5113 52.3149C54.1226 45.5698 52.513 39.4592 52.513 39.4592" stroke="var(--stroke-0, #242424)" stroke-width="1.25" stroke-miterlimit="10" stroke-linecap="round" stroke-linejoin="round"/>
<path id="Vector_5" d="M25.9227 48.4415C25.8891 48.742 26.325 56.5222 26.3921 56.8561C26.8951 58.7261 26.8951 61.0301 26.8951 61.0301C26.5933 61.9316 25.4197 63.7348 23.8773 63.8683C20.9265 64.1021 22.5025 65.2374 21.1277 65.1038H20.0211C17.8751 65.1038 18.7134 62.4325 18.814 62.2989C19.1829 61.7313 19.887 61.364 20.6582 61.2304C21.3289 61.1302 21.5636 61.6311 22.4354 61.1636C23.1731 60.7629 23.6425 59.9949 23.6425 59.1601C23.7431 55.8544 24.179 48.5083 22.033 44.2342" stroke="var(--stroke-0, #242424)" stroke-width="1.25" stroke-miterlimit="10" stroke-linecap="round" stroke-linejoin="round"/>
<path id="Vector_6" d="M0.908246 17.3875C0.807652 16.8866 1.24356 16.3858 1.91419 16.2522C2.58482 16.1186 3.32251 16.319 3.4231 16.7865C3.52369 17.2873 2.48422 18.7899 1.84712 18.9235C1.21003 19.0571 1.00884 17.8884 0.908246 17.3875Z" fill="var(--fill-0, #242424)"/>
<path id="Vector_7" d="M10.6002 13.6417C10.6309 13.2001 10.2514 12.8143 9.75256 12.78C9.25375 12.7456 8.82452 13.0757 8.79384 13.5172C8.76316 13.9587 9.14265 14.3445 9.64146 14.3789C10.1403 14.4133 10.5695 14.0832 10.6002 13.6417Z" fill="var(--fill-0, #242424)"/>
<path id="Vector_8" d="M9.86112 24.3329C10.3641 26.0693 9.25756 27.1712 8.58693 27.3382C7.9163 27.5051 7.27921 26.8039 7.31274 25.9691C7.31274 25.9691 7.27921 22.5632 12.0071 20.5597" stroke="var(--stroke-0, #242424)" stroke-width="1.25" stroke-miterlimit="10" stroke-linecap="round" stroke-linejoin="round"/>
<path id="Vector_9" d="M12.7448 8.77253C12.7448 8.77253 11.7724 4.43164 12.7448 1.72694C12.7448 1.72694 18.6128 5.63373 18.6128 9.54053" stroke="var(--stroke-0, #242424)" stroke-width="1.25" stroke-miterlimit="10" stroke-linecap="round" stroke-linejoin="round"/>
<path id="Vector_10" d="M11.6718 5.63374L9.15698 3.59687C9.15698 3.59687 9.12345 6.63548 10.0623 8.07131" stroke="var(--stroke-0, #242424)" stroke-width="1.25" stroke-miterlimit="10" stroke-linecap="round" stroke-linejoin="round"/>
</g>
</svg>
