<svg preserveAspectRatio="none" width="100%" height="100%" overflow="visible" style="display: block;" viewBox="0 0 72.25 65.7681" fill="none" xmlns="http://www.w3.org/2000/svg">
<g id="art">
<path id="Vector" d="M2.27709 39.6812C2.27709 39.6812 -1.83944 53.2215 2.92349 55.9432C4.38639 56.4535 5.61114 56.8617 16.736 54.5143C17.6546 54.3102 18.6071 54.3442 19.4917 54.5823C21.4309 55.0927 23.8804 55.5349 25.8536 55.603C25.8536 55.603 30.2763 54.5823 28.2691 51.7926" stroke="var(--stroke-0, #242424)" stroke-width="1.25" stroke-miterlimit="10" stroke-linecap="round" stroke-linejoin="round"/>
<path id="Vector_2" d="M54.7034 51.6225C54.7034 51.6225 43.7146 44.7163 41.163 51.6225C41.163 51.6225 40.8569 53.2555 41.7754 54.4803C41.7754 54.4803 42.1497 55.5349 48.4435 54.4803C53.5807 53.8339 58.7178 57.0999 60.4189 55.5689C62.29 55.2968 62.6983 54.2761 62.0859 52.7112C62.6983 56.5896 53.2405 58.0184 53.2405 58.0184C44.7352 59.3793 39.496 57.304 37.4888 56.2494C36.3661 55.637 35.1073 55.2968 33.8145 55.3308C30.2083 55.3648 26.432 57.2019 24.3567 58.3927C23.9144 58.6308 24.0505 59.3112 24.5608 59.3793C27.7588 59.6855 31.1269 61.4205 31.1269 61.4205C40.1764 66.1494 44.8373 65.0267 44.8373 65.0267C71.2716 63.2917 67.2911 49.8194 67.2911 49.8194C73.585 43.4575 71.1695 35.5306 71.1695 35.5306C67.2231 21.7181 50.7229 18.5201 43.3064 18.5882C41.9455 18.5882 40.5847 18.5201 39.2239 18.6562C35.4475 19.0645 24.5268 20.6294 16.77 25.4604" stroke="var(--stroke-0, #242424)" stroke-width="1.25" stroke-miterlimit="10" stroke-linecap="round" stroke-linejoin="round"/>
<path id="Vector_3" d="M38.4414 37.6399C38.4414 37.6399 43.1363 47.54 41.7074 50.1936C39.8702 51.8606 38.7816 54.7524 28.3031 51.7926C28.3031 51.7926 22.3835 49.241 15.0009 50.2617C14.2525 50.3637 13.504 50.6699 12.8916 51.1122C11.1566 52.371 7.04005 54.7524 3.8761 51.7246C3.8761 51.7246 0.0657528 48.3565 8.06067 45.8389C10.9525 45.1585 22.6897 43.2874 32.0795 45.873" stroke="var(--stroke-0, #242424)" stroke-width="1.25" stroke-miterlimit="10" stroke-linecap="round" stroke-linejoin="round"/>
<path id="Vector_4" d="M8.4689 26.9573C8.60499 26.6171 4.86268 22.9769 3.39978 21.8882C2.92349 21.514 2.24307 21.7181 2.10699 22.3305C1.76678 23.8274 1.35853 26.7532 1.86884 30.6316C1.86884 30.6316 0.337898 36.0409 2.31111 39.6812" stroke="var(--stroke-0, #242424)" stroke-width="1.25" stroke-miterlimit="10" stroke-linecap="round" stroke-linejoin="round"/>
<path id="Vector_5" d="M11.5308 25.0182C11.5308 25.0182 9.35345 25.0862 7.61839 25.4264" stroke="var(--stroke-0, #242424)" stroke-width="1.25" stroke-miterlimit="10" stroke-linecap="round" stroke-linejoin="round"/>
<path id="Vector_6" d="M26.6361 44.308C29.5279 41.1781 26.2959 38.5244 25.3433 37.6399C24.3567 36.7213 22.1453 35.1564 21.601 32.1285C21.3969 31.0398 20.9886 30.0192 20.07 29.3728C19.4236 28.9305 18.1989 27.4336 17.6205 27.1274C16.9741 26.7872 16.6339 26.0728 16.736 25.3583C17.3143 21.6501 16.3277 18.9964 15.5793 17.6016C15.3071 17.1253 11.9731 22.5006 10.7143 24.6099" stroke="var(--stroke-0, #242424)" stroke-width="1.25" stroke-miterlimit="10" stroke-linecap="round" stroke-linejoin="round"/>
<path id="Vector_7" d="M8.16273 38.6946C9.8978 43.3214 13.3679 41.6544 17.1783 44.6822" stroke="var(--stroke-0, #242424)" stroke-width="1.25" stroke-miterlimit="10" stroke-linecap="round" stroke-linejoin="round"/>
<path id="Vector_8" d="M44.7352 32.1285C44.7352 32.1285 42.0476 42.3348 46.9806 48.6287" stroke="var(--stroke-0, #242424)" stroke-width="1.25" stroke-miterlimit="10" stroke-linecap="round" stroke-linejoin="round"/>
<path id="Vector_9" d="M22.4175 41.7905C22.5536 42.3008 23.5742 43.1513 24.4928 42.9132C25.4113 42.675 25.8536 41.3822 25.7175 40.9059C25.5814 40.3956 24.7309 40.1915 23.8123 40.4296C22.9278 40.6678 22.2814 41.2802 22.4175 41.7905Z" fill="var(--fill-0, #242424)"/>
<path id="Vector_10" d="M24.5268 42.9132C24.5268 42.9132 24.6288 43.9678 24.0845 44.308" stroke="var(--stroke-0, #242424)" stroke-width="1.25" stroke-miterlimit="10" stroke-linecap="round" stroke-linejoin="round"/>
<path id="Vector_11" d="M16.5999 36.4492C16.5999 36.4492 14.4566 36.6533 12.8576 35.1564" stroke="var(--stroke-0, #242424)" stroke-width="1.25" stroke-miterlimit="10" stroke-linecap="round" stroke-linejoin="round"/>
<path id="Vector_12" d="M20.6824 13.2469L23.8124 12.2943L21.1587 16.581L24.3567 15.2882" stroke="var(--stroke-0, #242424)" stroke-width="1.25" stroke-miterlimit="10" stroke-linecap="round" stroke-linejoin="round"/>
<path id="Vector_13" d="M28.099 7.4293L31.5691 4.77567L30.0042 12.1582L34.0527 8.44993" stroke="var(--stroke-0, #242424)" stroke-width="1.25" stroke-miterlimit="10" stroke-linecap="round" stroke-linejoin="round"/>
<path id="Vector_14" d="M40.8228 0.625144L45.4837 1.74783L38.9517 6.03447L44.395 6.47674" stroke="var(--stroke-0, #242424)" stroke-width="1.25" stroke-miterlimit="10" stroke-linecap="round" stroke-linejoin="round"/>
</g>
</svg>
