<svg preserveAspectRatio="none" width="100%" height="100%" overflow="visible" style="display: block;" viewBox="0 0 38.114 38.114" fill="none" xmlns="http://www.w3.org/2000/svg">
<g id="PetsPlate_website_icon_batch2-r2_View More Doggy Bag">
<path id="Vector (Stroke)" fill-rule="evenodd" clip-rule="evenodd" d="M6.96459 2.09197C7.06184 1.99134 7.19579 1.9345 7.33574 1.9345H28.6081C28.8932 1.9345 29.1242 2.16558 29.1242 2.45063V5.92854C29.1242 6.02147 29.0992 6.11267 29.0516 6.19253L27.8602 8.19413C25.9315 11.4242 24.9317 15.0963 24.9317 18.8635V35.4682L25.9075 36.8344C26.0199 36.9917 26.0349 37.1986 25.9465 37.3706C25.858 37.5425 25.6809 37.6505 25.4875 37.6505H5.31094C5.14392 37.6505 4.98723 37.5697 4.8904 37.4336L4.00901 36.1949C3.94683 36.1075 3.91342 36.0029 3.91342 35.8957V17.1245C3.91342 13.8561 4.64503 10.6118 6.06003 7.65954C6.06016 7.65929 6.06028 7.65904 6.0604 7.65879L6.93472 5.82047L6.81992 2.4683C6.81513 2.32843 6.86734 2.19261 6.96459 2.09197ZM7.86985 2.96676L7.97067 5.91087C7.9735 5.99348 7.95645 6.07557 7.92094 6.15022L6.99192 8.10356L6.99124 8.10497C5.64322 10.9172 4.94568 14.0092 4.94568 17.1245V35.7308L5.57714 36.6183H24.4846L23.9956 35.9336C23.9331 35.8461 23.8995 35.7412 23.8995 35.6336V18.8635C23.8995 14.9127 24.9483 11.0574 26.9737 7.66524C26.9738 7.66513 26.9737 7.66535 26.9737 7.66524L28.092 5.78655V2.96676H7.86985Z" fill="var(--fill-0, #242424)"/>
<path id="Vector (Stroke)_2" fill-rule="evenodd" clip-rule="evenodd" d="M28.6063 5.41229C28.7861 5.4118 28.9532 5.50494 29.0474 5.65814L30.6434 8.25466C32.6189 11.4739 33.7418 15.158 33.864 18.9411C33.864 18.9414 33.864 18.9417 33.864 18.942L34.4595 35.4959C34.4646 35.6391 34.41 35.778 34.3086 35.8794L32.8794 37.3087C32.7856 37.4025 32.6592 37.4565 32.5266 37.4597L25.4755 37.6264C25.3046 37.6305 25.1427 37.5496 25.0433 37.4104L23.9714 35.9097C23.9088 35.8222 23.8752 35.7173 23.8752 35.6097V18.8634C23.8752 14.9104 24.9489 11.0563 26.9483 7.66716L26.9516 7.66152L28.1665 5.66056C28.2599 5.50684 28.4265 5.41279 28.6063 5.41229ZM28.6104 6.91845L27.8357 8.19445C25.9294 11.4269 24.9075 15.0993 24.9075 18.8634V35.4443L25.7244 36.588L32.2956 36.4326L33.4198 35.3084L32.8323 18.9772L32.8323 18.9753C32.7161 15.3742 31.6473 11.8643 29.7639 8.79506C29.7639 8.795 29.764 8.79512 29.7639 8.79506L28.6104 6.91845Z" fill="var(--fill-0, #242424)"/>
<path id="Vector (Stroke)_3" fill-rule="evenodd" clip-rule="evenodd" d="M7.17702 6.40351C7.17767 6.11846 7.40928 5.88791 7.69433 5.88856L28.6094 5.9362C28.8944 5.93685 29.125 6.16846 29.1243 6.45351C29.1237 6.73856 28.8921 6.96911 28.607 6.96846L7.69197 6.92081C7.40693 6.92017 7.17638 6.68856 7.17702 6.40351Z" fill="var(--fill-0, #242424)"/>
<path id="Vector (Stroke)_4" fill-rule="evenodd" clip-rule="evenodd" d="M4.2948 33.6728C4.29896 33.3877 4.53338 33.1601 4.8184 33.1642L24.4233 33.4501C24.7083 33.4542 24.936 33.6886 24.9318 33.9737C24.9277 34.2587 24.6933 34.4864 24.4082 34.4822L4.80335 34.1964C4.51833 34.1922 4.29065 33.9578 4.2948 33.6728Z" fill="var(--fill-0, #242424)"/>
<path id="Vector (Stroke)_5" fill-rule="evenodd" clip-rule="evenodd" d="M4.29411 25.9068C4.29827 25.6218 4.53269 25.3941 4.81771 25.3983L24.4226 25.6841C24.7076 25.6883 24.9353 25.9227 24.9312 26.2077C24.927 26.4928 24.6926 26.7204 24.4076 26.7163L4.80266 26.4304C4.51764 26.4263 4.28996 26.1919 4.29411 25.9068Z" fill="var(--fill-0, #242424)"/>
<path id="Vector (Stroke)_6" fill-rule="evenodd" clip-rule="evenodd" d="M17.5067 26.3272C17.7918 26.3272 18.0228 26.5583 18.0228 26.8433V33.1559C18.0228 33.441 17.7918 33.6721 17.5067 33.6721C17.2217 33.6721 16.9906 33.441 16.9906 33.1559V26.8433C16.9906 26.5583 17.2217 26.3272 17.5067 26.3272Z" fill="var(--fill-0, #242424)"/>
<path id="Vector (Stroke)_7" fill-rule="evenodd" clip-rule="evenodd" d="M21.1817 8.64519C20.5048 9.3221 20.4964 10.3433 21.0807 10.9276C21.6649 11.5118 22.6861 11.5034 23.363 10.8265C24.0399 10.1496 24.0483 9.12838 23.4641 8.54412C22.8798 7.95987 21.8586 7.96827 21.1817 8.64519ZM20.5332 11.475C19.6104 10.5522 19.6925 9.03951 20.6343 8.09776C21.576 7.156 23.0887 7.07391 24.0115 7.99669C24.9343 8.91947 24.8522 10.4322 23.9105 11.3739C22.9687 12.3157 21.456 12.3978 20.5332 11.475Z" fill="var(--fill-0, #242424)"/>
<g id="Group">
<path id="Vector" d="M11.5295 18.8635C11.5771 18.8397 11.5771 18.8159 11.6486 18.8635C11.8153 18.935 12.0297 19.0303 12.2679 19.0303C12.5061 19.0303 12.6967 18.9826 12.8396 18.8635C12.9826 18.7682 13.054 18.6253 13.054 18.5062C13.054 18.2918 12.8635 18.0536 12.3394 18.0536C12.0774 18.0536 11.7677 18.125 11.5057 18.2203C11.4342 18.2442 11.4104 18.2442 11.4104 18.2442C11.053 18.0536 10.2193 17.6486 9.48084 17.6486C8.71856 17.6486 8.02775 17.8868 7.5275 18.2918C7.05108 18.6729 6.78904 19.197 6.78904 19.7211C6.78904 20.1975 7.0749 20.531 7.50368 20.531C7.69425 20.531 7.861 20.4834 7.95628 20.3881C8.02775 20.3404 8.05157 20.2451 8.02775 20.1737C8.00393 20.1022 7.95628 20.0784 7.88482 20.0784C7.64661 20.0784 7.47986 19.9116 7.47986 19.6496C7.47986 19.2685 7.69425 18.8873 8.05157 18.5777C8.43271 18.268 8.95678 18.1012 9.50467 18.1012C9.95727 18.1012 10.5766 18.3394 10.9101 18.4824C10.9339 18.4824 10.9339 18.5062 10.9339 18.53C10.9339 18.53 10.9339 18.5538 10.9101 18.5538C10.4099 18.8873 9.95727 19.5067 9.59995 20.0069L7.33693 23.2704C7.24165 23.4134 7.194 23.5563 7.194 23.723C7.194 23.9374 7.28929 24.2471 7.47986 24.2471C7.5275 24.2471 7.57514 24.2233 7.59897 24.1756L10.2669 20.3642C10.6481 19.8164 11.1245 19.1732 11.5295 18.8635ZM12.0535 18.5538C12.0774 18.5062 12.2679 18.4585 12.4585 18.4585C12.6014 18.4585 12.6491 18.5062 12.6491 18.53C12.6491 18.5777 12.5538 18.6729 12.3394 18.6729C12.2203 18.6253 12.0774 18.5777 12.0535 18.5538Z" fill="var(--fill-0, #242424)"/>
<path id="Vector_2" d="M22.1777 21.8887C22.1539 21.8887 22.1301 21.8887 22.1063 21.9125C21.2249 23.2227 20.3435 23.4133 19.8909 23.4133C19.5098 23.4133 19.2477 23.1751 19.2477 22.7939C19.2477 22.6748 19.2477 22.651 19.2716 22.651C19.2716 22.651 19.343 22.651 19.4859 22.651C20.3673 22.651 20.939 22.3175 21.2487 22.0555C21.6299 21.7458 21.8681 21.317 21.8681 20.9597C21.8681 20.5547 21.606 20.3403 21.1534 20.3403C20.6294 20.3403 19.9624 20.65 19.4383 21.1503C19.1763 21.4123 18.9381 21.6981 18.7951 21.984C18.1996 22.8892 17.6517 23.4371 17.3659 23.4371C17.342 23.4371 17.2944 23.4371 17.2944 23.2942C17.2944 22.9607 17.6279 22.4366 17.7946 22.1746L19.4859 19.5781C19.5812 19.4351 19.6289 19.2922 19.6289 19.1493C19.6289 18.9825 19.5812 18.8634 19.4621 18.6967C19.4383 18.649 19.3907 18.6252 19.343 18.6252C19.2954 18.6252 19.2477 18.649 19.2239 18.6967L17.3897 21.4361C17.2467 21.6267 17.1276 21.8173 17.0324 21.984C16.5798 22.6272 16.1271 23.0321 15.6269 23.2465C16.2224 22.6034 16.6512 21.6981 16.6512 21.055C16.6512 20.6738 16.4606 20.3165 16.008 20.3165C15.9128 20.3165 15.8175 20.3165 15.7222 20.3403C15.6984 20.3403 15.6984 20.3403 15.6984 20.3403C15.6984 20.3403 15.6984 20.3403 15.6984 20.3165L16.2939 19.4589C16.3892 19.316 16.4368 19.1731 16.4368 19.0063C16.4368 18.8396 16.3892 18.6967 16.2939 18.5537C16.2701 18.5061 16.2224 18.4823 16.1748 18.4823C16.1271 18.4823 16.0795 18.5061 16.0557 18.5537L14.1023 21.3647C13.9594 21.5552 13.8641 21.722 13.7688 21.8887C13.7688 21.8887 13.7688 21.8887 13.745 21.9125C13.1018 22.8416 12.5301 23.4133 12.2205 23.4133C12.2205 23.4133 12.1728 23.4133 12.1728 23.2942C12.1728 23.0083 12.3396 22.6034 12.6492 22.1746L13.483 21.0312C13.5783 20.8882 13.6259 20.7215 13.6259 20.5785C13.6259 20.4118 13.5306 20.0545 13.3639 20.0545C13.3162 20.0545 13.2686 20.0783 13.221 20.1259L13.1495 20.2451C13.1257 20.2689 12.9351 20.5309 12.8636 20.6024C12.8398 20.6024 12.816 20.5785 12.7922 20.5309C12.7207 20.4594 12.5063 20.3403 12.2205 20.3403C11.077 20.3403 9.43337 21.8649 9.43337 23.2704C9.43337 23.7706 9.69541 24.0803 10.1004 24.0803C10.6244 24.0803 11.1009 23.6753 11.3391 23.4371H11.3629C11.3629 23.4371 11.3867 23.4371 11.3867 23.4609C11.3867 23.8421 11.6011 24.0803 11.9108 24.0803C12.3396 24.0803 12.816 23.7706 13.4115 23.056C13.4115 23.0798 13.4115 23.1036 13.4115 23.1274C13.4115 23.6991 13.7927 24.0803 14.3644 24.0803C15.2934 24.0803 16.0319 23.6753 16.5559 23.2227C16.5559 23.2942 16.5321 23.3656 16.5321 23.4371C16.5321 23.8421 16.7227 24.0803 17.08 24.0803C17.5088 24.0803 17.9852 23.7706 18.5569 23.0321C18.5807 23.6753 19.0333 24.0803 19.7242 24.0803C20.1529 24.0803 21.2725 23.9135 22.416 22.2937V22.2699C22.4398 22.1746 22.416 22.0793 22.3683 22.0078C22.2969 21.9125 22.2492 21.8887 22.1777 21.8887ZM19.5098 21.984C19.9147 21.1979 20.677 20.7453 21.1773 20.7453C21.4155 20.7453 21.4155 20.8882 21.4155 20.9359C21.4155 21.1026 21.2725 21.3646 20.939 21.6267C20.677 21.8411 20.2006 22.0793 19.5098 22.0793C19.5098 22.0793 19.5098 22.0793 19.4859 22.0793C19.4859 22.0316 19.4859 22.0078 19.5098 21.984ZM16.0795 21.055C16.0795 21.9602 14.7693 23.4133 14.2453 23.4133C14.0785 23.4133 14.0785 23.2227 14.0785 23.1751C14.0785 22.7939 14.2691 22.3175 14.6026 21.8411L14.9123 21.3885C15.1267 21.0788 15.5554 20.7453 15.8651 20.7453C15.9842 20.7215 16.0795 20.7691 16.0795 21.055ZM12.5778 20.9597L11.7202 22.1984C11.0532 23.1751 10.5053 23.4133 10.3148 23.4133C10.1718 23.4133 10.148 23.2704 10.148 23.1751C10.148 22.6986 10.41 22.1031 10.8865 21.5552C11.3391 21.055 11.8393 20.7215 12.1966 20.7215C12.3634 20.7215 12.5063 20.7929 12.5778 20.9597Z" fill="var(--fill-0, #242424)"/>
<path id="Vector_3" d="M6.2179 13.9801H6.59904V15.2665C6.59904 15.2903 6.62286 15.3141 6.64668 15.3141H7.004C7.02782 15.3141 7.05164 15.2903 7.05164 15.2665V13.9801H7.43278C7.45661 13.9801 7.48043 13.9563 7.48043 13.9325V13.599C7.48043 13.5752 7.45661 13.5514 7.43278 13.5514H6.19408C6.17026 13.5514 6.14644 13.5752 6.14644 13.599V13.9325C6.17026 13.9563 6.19408 13.9801 6.2179 13.9801Z" fill="var(--fill-0, #242424)"/>
<path id="Vector_4" d="M7.83682 15.2902H8.19414C8.21796 15.2902 8.24178 15.2664 8.24178 15.2426V14.6232H8.81349V15.2426C8.81349 15.2664 8.83731 15.2902 8.86114 15.2902H9.21845C9.24228 15.2902 9.2661 15.2664 9.2661 15.2426V13.5751C9.2661 13.5512 9.24228 13.5274 9.21845 13.5274H8.86114C8.83731 13.5274 8.81349 13.5512 8.81349 13.5751V14.1706H8.24178V13.5751C8.24178 13.5512 8.21796 13.5274 8.19414 13.5274H7.83682C7.813 13.5274 7.78918 13.5512 7.78918 13.5751V15.2426C7.78918 15.2664 7.813 15.2902 7.83682 15.2902Z" fill="var(--fill-0, #242424)"/>
<path id="Vector_5" d="M9.67157 15.2903H10.6482C10.6721 15.2903 10.6959 15.2664 10.6959 15.2426V14.9091C10.6959 14.8853 10.6721 14.8615 10.6482 14.8615H10.0765V14.5995H10.6006C10.6244 14.5995 10.6482 14.5756 10.6482 14.5518V14.2421C10.6482 14.2183 10.6244 14.1945 10.6006 14.1945H10.0765V13.9563H10.6482C10.6721 13.9563 10.6959 13.9325 10.6959 13.9086V13.5751C10.6959 13.5513 10.6721 13.5275 10.6482 13.5275H9.67157C9.64775 13.5275 9.62393 13.5513 9.62393 13.5751V15.2426C9.62393 15.2664 9.64775 15.2903 9.67157 15.2903Z" fill="var(--fill-0, #242424)"/>
<path id="Vector_6" d="M11.5526 17.0292C11.5526 17.2674 11.6479 17.5294 11.8147 17.5294C11.8623 17.5294 11.91 17.5056 11.9338 17.4579L13.2201 15.5761C13.2439 15.5761 13.2916 15.5761 13.3154 15.5761C13.5774 15.5761 13.8633 15.5522 14.1492 15.4808C15.1735 15.2664 16.1025 14.6947 16.7695 13.9086C17.1506 13.456 17.365 13.0272 17.3888 12.6222C17.4127 12.2649 17.2697 11.9552 16.9839 11.717C16.3169 11.1453 15.3402 11.2644 14.8162 11.3835C14.2444 11.5026 13.4822 11.8361 13.1963 12.1458C13.0057 12.384 13.0534 12.6699 13.1487 12.7652C13.2201 12.8128 13.2916 12.8128 13.3869 12.7652C14.4588 12.0505 15.9596 11.5741 16.6266 12.1696C16.7933 12.3126 16.8648 12.5031 16.841 12.7175C16.8171 12.9795 16.6742 13.2892 16.3884 13.6227C15.9119 14.1706 15.1497 14.6232 14.2683 14.8138C14.0539 14.8614 13.8633 14.8852 13.6727 14.9091L14.6494 13.4798C14.7447 13.3369 14.7923 13.1939 14.7923 13.0272C14.7923 12.9081 14.7685 12.6937 14.6732 12.5746C14.6494 12.5508 14.5779 12.5269 14.5303 12.5269C14.4827 12.5269 14.435 12.5508 14.4112 12.5984L12.8628 14.8614C12.6961 14.8138 12.5293 14.7423 12.434 14.6709C12.2435 14.5041 12.2196 14.2659 12.3864 14.0515C12.434 14.0039 12.434 13.9086 12.4102 13.8371C12.3626 13.7656 12.2911 13.7418 12.1958 13.7656C12.0529 13.8133 11.8861 13.9086 11.7909 14.0277C11.6479 14.1944 11.5765 14.4088 11.6003 14.5994C11.6241 14.8138 11.7432 15.0044 11.9338 15.1711C12.0767 15.2902 12.2673 15.3855 12.4578 15.457L11.6956 16.5766C11.6003 16.6957 11.5526 16.8624 11.5526 17.0292Z" fill="var(--fill-0, #242424)"/>
<path id="Vector_7" d="M14.9609 16.8626C14.9609 17.5534 15.4135 17.9822 16.1281 17.9822C16.4378 17.9822 17.1524 17.8869 17.9862 17.1484C17.9862 17.2199 17.9862 17.2675 17.9862 17.339C17.9862 17.7439 18.2006 17.9822 18.5341 17.9822C19.1296 17.9822 19.8681 17.3866 20.678 16.1956L20.7018 16.1717C21.0115 15.7191 21.3688 15.2189 21.6785 14.8854C21.5832 15.1951 21.5355 15.5286 21.4879 15.8621C21.3688 16.6482 21.2497 17.339 20.7494 17.339C20.5589 17.339 20.4874 17.1722 20.4636 17.0293C20.4398 16.9578 20.3921 16.9102 20.3207 16.9102C20.2492 16.9102 20.1777 16.934 20.1539 17.0055C20.1301 17.0769 20.1063 17.1961 20.1063 17.2913C20.1063 17.4819 20.1777 17.6487 20.2968 17.7678C20.4159 17.9107 20.6065 17.9822 20.8209 17.9822C21.2973 17.9822 21.7976 17.7678 22.2978 17.339C22.6075 17.0769 22.7028 16.934 23.0363 16.4338V16.4099C23.0601 16.3147 23.0363 16.2194 22.9886 16.1479C22.941 16.1003 22.8934 16.0526 22.8219 16.0526C22.7981 16.0526 22.7743 16.0526 22.7504 16.0765C22.3931 16.6005 22.2502 16.7911 22.012 16.9817C22.1787 16.6243 22.1787 16.1717 22.1787 15.6953C22.1787 15.3618 22.1787 15.0283 22.2502 14.7425C22.274 14.5995 22.3455 14.5043 22.4169 14.4328C22.4646 14.3613 22.5122 14.3137 22.5122 14.2422C22.5122 14.1708 22.4884 14.1231 22.4646 14.0516C22.4408 13.9802 22.3931 13.9564 22.3216 13.9564C21.7976 13.9564 20.8209 15.2904 20.4159 15.8621C19.8204 16.7434 19.1772 17.3628 18.8437 17.3628C18.7961 17.3628 18.7723 17.3152 18.7723 17.2199C18.7723 16.8626 19.1058 16.3385 19.2725 16.1003L20.273 14.6948H20.8209C20.9162 14.6948 20.9877 14.6234 20.9877 14.5043C20.9877 14.409 20.8924 14.2899 20.7733 14.2899H20.6065C20.5827 14.2899 20.5827 14.2899 20.5827 14.2899C20.5827 14.2899 20.5827 14.266 20.5827 14.2422C20.678 14.0993 20.7494 13.9087 20.7494 13.742C20.7494 13.5752 20.7018 13.4323 20.5827 13.2894C20.5589 13.2655 20.5112 13.2417 20.4636 13.2417C20.4159 13.2417 20.3683 13.2655 20.3207 13.3132L19.6537 14.2899C19.6537 14.2899 19.6537 14.2899 19.6298 14.2899H18.8676C18.7723 14.2899 18.7008 14.3851 18.7008 14.4804C18.7008 14.5995 18.7961 14.6948 18.9152 14.6948H19.344L18.8437 15.4095C18.7008 15.6238 18.5579 15.8144 18.4626 15.9812C17.605 17.1722 16.7713 17.3628 16.3425 17.3628C15.9614 17.3628 15.6993 17.1246 15.6993 16.7434C15.6993 16.6243 15.6993 16.6005 15.7232 16.6005C15.7232 16.6005 15.7946 16.6005 15.9376 16.6005C16.8189 16.6005 17.3906 16.267 17.7003 16.005C18.0815 15.6953 18.3197 15.2665 18.3197 14.9092C18.3197 14.5043 18.0576 14.2899 17.605 14.2899C17.081 14.2899 16.414 14.5995 15.8899 15.0998C15.2944 15.5762 14.9609 16.2432 14.9609 16.8626ZM17.8671 14.8377C17.8671 15.0045 17.7241 15.2665 17.3906 15.5286C17.1286 15.743 16.6522 15.9812 15.9614 15.9812C15.9614 15.9812 15.9614 15.9812 15.9376 15.9812C15.9376 15.9812 15.9376 15.9573 15.9376 15.9097C16.3425 15.1236 17.1048 14.671 17.605 14.671C17.8671 14.6472 17.8671 14.7901 17.8671 14.8377Z" fill="var(--fill-0, #242424)"/>
</g>
</g>
</svg>
