<svg preserveAspectRatio="none" width="100%" height="100%" overflow="visible" style="display: block;" viewBox="0 0 72.2022 74.0515" fill="none" xmlns="http://www.w3.org/2000/svg">
<g id="art">
<g id="Group">
<path id="Vector" d="M59.9149 7.33816C59.2924 7.02692 59.1757 5.93761 59.2146 5.15953C59.2535 4.10912 59.7982 3.05871 59.1368 1.81378C58.5922 1.73597 57.6585 2.0472 57.425 2.66966" stroke="var(--stroke-0, #242424)" stroke-width="1.25" stroke-miterlimit="10" stroke-linecap="round" stroke-linejoin="round"/>
<path id="Vector_2" d="M59.0201 67.7173C59.9538 70.0516 60.3428 69.2346 65.0113 69.3513C65.4782 69.3513 66.1784 69.7014 66.4897 69.0401C66.762 68.4565 66.2563 68.0285 65.9839 67.5617C65.6727 67.017 65.2837 66.4724 64.5834 66.4724C62.5215 66.4724 62.2491 64.994 62.0157 63.4768C61.4321 59.7809 60.5763 52.5447 59.876 47.2927" stroke="var(--stroke-0, #242424)" stroke-width="1.25" stroke-miterlimit="10" stroke-linecap="round" stroke-linejoin="round"/>
<path id="Vector_3" d="M56.8415 50.5606L59.876 45.7754C60.3817 44.9974 60.7708 44.1415 61.0431 43.2467C61.7823 40.7957 62.0546 38.1891 61.899 35.4659C61.6267 31.0697 59.1757 25.3897 59.9149 21.0713C60.0705 20.2154 65.6338 21.3048 65.2448 18.387" stroke="var(--stroke-0, #242424)" stroke-width="1.25" stroke-miterlimit="10" stroke-linecap="round" stroke-linejoin="round"/>
<path id="Vector_4" d="M56.5691 38.4225C56.4524 41.5349 56.647 58.1469 57.5028 63.6324C57.5028 63.5935 57.5028 63.5935 57.4639 63.5546C57.6585 64.8384 57.853 66.1612 58.0475 67.445C58.1253 67.9507 58.2031 68.4565 58.3587 68.8844C58.3587 68.9622 58.3587 69.0012 58.3976 69.0012H58.4365C58.7478 69.8181 59.3313 70.4406 60.6541 70.4406C61.3154 70.4406 61.7045 70.9853 62.0546 71.5299C62.3269 71.9968 62.8327 72.4247 62.5604 73.0083C62.2491 73.6696 61.5878 73.3584 61.082 73.3195C54.8574 73.1639 56.1801 74.6422 53.8459 68.3009C52.562 64.8384 49.7998 59.5085 48.9828 55.8905L48.3993 46.4368" stroke="var(--stroke-0, #242424)" stroke-width="1.25" stroke-miterlimit="10" stroke-linecap="round" stroke-linejoin="round"/>
<path id="Vector_5" d="M42.9916 60.0921C44.9757 58.925 46.9987 57.719 48.9828 56.5519" stroke="var(--stroke-0, #242424)" stroke-width="1.25" stroke-miterlimit="10" stroke-linecap="round" stroke-linejoin="round"/>
<path id="Vector_6" d="M40.7741 55.9294C41.8245 57.6412 42.2135 59.3529 42.2135 60.8702C42.1746 61.4927 42.0968 62.1151 42.019 62.7376C40.9686 66.5502 37.1949 67.5228 34.1993 69.7403C36.1445 69.7403 37.6228 69.7014 39.1401 69.7403C40.6185 69.7792 42.019 70.0905 43.0305 71.2576C43.2639 71.5299 43.4974 72.0357 43.4196 72.3858C43.3417 72.8527 42.7971 72.8138 42.408 72.8138C36.4946 72.8138 30.6201 72.8138 24.7067 72.8138C22.9949 72.8138 22.4892 71.6077 22.139 70.3239C22.139 70.3239 20.505 65.8888 21.7111 62.5431" stroke="var(--stroke-0, #242424)" stroke-width="1.25" stroke-miterlimit="10" stroke-linecap="round" stroke-linejoin="round"/>
<path id="Vector_7" d="M20.2327 67.2505C8.40588 68.2231 1.71438 49.3546 12.802 33.6373C5.87711 50.6773 15.0196 60.8702 18.2097 61.1814L19.2601 58.925L24.7845 51.8056C24.9012 51.6888 25.0179 51.5721 25.1346 51.4165C28.5582 47.1371 45.9483 29.9414 47.8157 20.9157C48.5549 17.2976 49.5275 11.1119 52.2508 8.38858C53.3012 7.33817 53.7291 5.62639 54.5461 4.30365C55.2075 3.21433 55.7911 0.0241969 57.1916 0.724471C57.1916 2.31954 57.425 3.25324 57.425 4.22584C57.4639 4.53707 57.3083 6.01543 57.3083 6.01543C57.3083 6.09324 57.3083 6.32666 57.5417 6.59899C58.1253 7.22146 59.3313 7.6494 61.6656 7.76611C62.288 7.80502 62.8716 7.99954 63.3385 8.38858C63.8053 8.73871 64.2332 9.20556 64.5834 9.71132C65.7894 11.4231 67.6957 10.7228 69.2908 11.1508C69.9911 11.3453 70.9637 10.9173 71.4305 11.6176C71.5083 11.7343 71.8195 12.3568 71.1971 12.9404C70.6135 13.485 70.4968 13.8352 70.6913 14.7299C70.8858 15.7025 69.5242 18.2702 67.3456 18.348C65.7894 18.4258 57.3472 19.2428 57.3472 16.1694" stroke="var(--stroke-0, #242424)" stroke-width="1.25" stroke-miterlimit="10" stroke-linecap="round" stroke-linejoin="round"/>
</g>
<path id="Vector_8" d="M61.082 12.2012C61.7266 12.2012 62.2492 11.6787 62.2492 11.0341C62.2492 10.3895 61.7266 9.86696 61.082 9.86696C60.4374 9.86696 59.9149 10.3895 59.9149 11.0341C59.9149 11.6787 60.4374 12.2012 61.082 12.2012Z" fill="var(--fill-0, #242424)"/>
<path id="Vector_9" d="M71.625 12.279C71.625 12.9793 71.5472 13.5239 70.7302 13.5239C69.9522 13.5239 68.7461 12.9793 68.7461 12.279C68.7461 11.5787 69.3686 11.0341 70.1856 11.0341C70.9637 11.0341 71.625 11.5787 71.625 12.279Z" fill="var(--fill-0, #242424)"/>
<path id="Vector_10" d="M3.27054 42.5464C3.27054 42.5464 3.62068 36.6719 7.86123 33.9097" stroke="var(--stroke-0, #242424)" stroke-width="1.25" stroke-miterlimit="10" stroke-linecap="round" stroke-linejoin="round"/>
<path id="Vector_11" d="M14.2804 45.6587C14.2804 45.6587 15.5642 43.0132 14.8251 39.1617" stroke="var(--stroke-0, #242424)" stroke-width="1.25" stroke-miterlimit="10" stroke-linecap="round" stroke-linejoin="round"/>
<path id="Vector_12" d="M17.7429 43.519C17.9374 43.2856 18.8322 41.4182 18.0541 39.3952" stroke="var(--stroke-0, #242424)" stroke-width="1.25" stroke-miterlimit="10" stroke-linecap="round" stroke-linejoin="round"/>
<path id="Vector_13" d="M0.62506 39.045C0.62506 39.045 0.975196 36.0494 2.72588 34.4932" stroke="var(--stroke-0, #242424)" stroke-width="1.25" stroke-miterlimit="10" stroke-linecap="round" stroke-linejoin="round"/>
</g>
</svg>
