<svg preserveAspectRatio="none" width="100%" height="100%" overflow="visible" style="display: block;" viewBox="0 0 49.2514 15.3673" fill="none" xmlns="http://www.w3.org/2000/svg">
<path id="Arrow 1" d="M22.1635 0.974502L22.2504 1.71945V1.71945L22.1635 0.974502ZM47.3836 11.2955C47.7932 11.3573 48.1752 11.0753 48.237 10.6657L49.2429 3.99106C49.3047 3.58147 49.0227 3.19939 48.6131 3.13766C48.2035 3.07593 47.8214 3.35792 47.7597 3.76751L46.8655 9.7005L40.9325 8.80631C40.5229 8.74458 40.1408 9.02657 40.0791 9.43616C40.0174 9.84575 40.2994 10.2278 40.7089 10.2896L47.3836 11.2955ZM0.621838 14.9483C1.24404 15.3671 1.24393 15.3672 1.24386 15.3673C1.24388 15.3673 1.24384 15.3674 1.24387 15.3673C1.24394 15.3672 1.24414 15.3669 1.24446 15.3664C1.24511 15.3655 1.24627 15.3638 1.24793 15.3613C1.25125 15.3565 1.25658 15.3487 1.26392 15.338C1.27861 15.3167 1.30131 15.284 1.33192 15.2406C1.39314 15.1538 1.48596 15.0243 1.60951 14.8579C1.85666 14.5248 2.22649 14.0441 2.71199 13.4608C3.68361 12.2935 5.11508 10.7199 6.94998 9.09983C10.6288 5.85161 15.8759 2.46313 22.2504 1.71945L22.1635 0.974502L22.0766 0.229555C15.2802 1.02244 9.75642 4.62086 5.95717 7.9754C4.05301 9.65667 2.56861 11.2884 1.55913 12.5012C1.05408 13.1079 0.667053 13.6108 0.404976 13.9639C0.273915 14.1405 0.174036 14.2798 0.106205 14.3759C0.072288 14.424 0.0463771 14.4613 0.028581 14.4872C0.0196828 14.5001 0.0128127 14.5101 0.00798422 14.5172C0.00556999 14.5208 0.0036661 14.5236 0.00227422 14.5256C0.00157827 14.5267 0.0010103 14.5275 0.000570595 14.5282C0.000350833 14.5285 0.000117004 14.5288 7.21216e-06 14.529C-0.000194252 14.5293 -0.000363767 14.5295 0.621838 14.9483ZM22.1635 0.974502L22.2504 1.71945C30.4595 0.76175 36.6239 3.09816 40.7377 5.66491C42.7977 6.95028 44.3447 8.29456 45.3739 9.3141C45.8882 9.8236 46.2724 10.2511 46.5257 10.5484C46.6524 10.697 46.7463 10.8129 46.8074 10.8901C46.8379 10.9287 46.8602 10.9576 46.8743 10.976C46.8814 10.9853 46.8863 10.9919 46.8893 10.9958C46.8907 10.9977 46.8917 10.999 46.8921 10.9996C46.8923 10.9999 46.8924 11 46.8924 11C46.8924 10.9999 46.8923 10.9998 46.8922 10.9997C46.8921 10.9995 46.8919 10.9993 47.4953 10.5539C48.0988 10.1085 48.0985 10.1082 48.0982 10.1078C48.0981 10.1076 48.0978 10.1072 48.0975 10.1068C48.0969 10.106 48.0962 10.1051 48.0954 10.104C48.0938 10.1018 48.0916 10.0989 48.0889 10.0953C48.0835 10.0881 48.0761 10.0782 48.0665 10.0657C48.0473 10.0406 48.0197 10.0049 47.9838 9.95945C47.9119 9.86855 47.8063 9.73844 47.6673 9.57528C47.3891 9.24904 46.9765 8.79026 46.4295 8.24845C45.3362 7.16535 43.7028 5.74699 41.5317 4.39231C37.183 1.67897 30.6815 -0.774326 22.0766 0.229555L22.1635 0.974502Z" fill="var(--stroke-0, #454545)"/>
</svg>
