<svg preserveAspectRatio="none" width="100%" height="100%" overflow="visible" style="display: block;" viewBox="0 0 78.3261 50.0763" fill="none" xmlns="http://www.w3.org/2000/svg">
<g id="art">
<path id="Vector" d="M27.6053 39.0427L27.0195 42.5573C26.9744 42.7375 27.0195 42.9178 27.1096 43.0529C27.5151 43.8189 26.9744 44.2245 26.9744 44.2245L25.893 47.1533C25.7128 47.4687 25.3523 47.6489 24.9919 47.7391C24.5413 47.8292 23.8654 47.9193 23.595 47.9193H22.5136C21.9278 47.9193 21.5223 46.9731 21.7026 46.5225C21.7476 46.4323 21.7927 46.3422 21.8377 46.2521C22.063 45.9367 22.4235 45.7114 22.8741 45.6663C23.2346 45.6213 23.3697 45.8916 23.8654 45.6213C24.2709 45.396 24.5413 44.9454 24.5413 44.4948C24.5863 42.6474 24.316 42.6925 24.5863 38.6372" stroke="var(--stroke-0, #242424)" stroke-width="1.25" stroke-miterlimit="10" stroke-linecap="round" stroke-linejoin="round"/>
<path id="Vector_2" d="M63.5172 37.1953L62.5259 43.6387C61.7599 46.2521 60.2279 45.9367 60.2279 45.9367C57.1639 45.9367 57.1639 45.3509 57.1639 45.3509C57.1639 44.5399 57.1639 43.5486 58.5156 43.4585C59.1915 43.4134 59.6421 42.6474 59.8674 41.9715C61.084 37.736 59.3267 36.5194 59.3267 36.5194" stroke="var(--stroke-0, #242424)" stroke-width="1.25" stroke-miterlimit="10" stroke-linecap="round" stroke-linejoin="round"/>
<path id="Vector_3" d="M51.2161 32.6894C51.2161 32.6894 33.9586 41.2055 22.5587 37.8261" stroke="var(--stroke-0, #242424)" stroke-width="1.25" stroke-miterlimit="10" stroke-linecap="round" stroke-linejoin="round"/>
<path id="Vector_4" d="M11.0236 8.94336C6.78807 10.8358 1.69641 8.40265 1.381 7.72677C0.614999 6.87065 0.885353 4.88806 0.885353 4.88806C-0.0608839 2.3197 1.87665 2.545 1.87665 2.545C2.46241 2.77029 6.92324 2.63512 8.68054 2.59006C9.13113 2.59006 9.58172 2.45488 9.94219 2.13947C12.1951 -0.0684165 16.4757 0.697584 16.9263 1.013C16.9263 1.013 19.2694 -0.158534 20.7113 2.59006C20.7113 2.59006 22.2433 5.65406 24.9017 7.27618C27.9207 9.25877 26.9294 15.3417 22.9642 15.4769C22.9642 15.4769 22.1982 17.5045 25.2622 19.2168C25.2622 19.2168 28.5515 21.8302 49.9995 20.6136C49.9995 20.6136 58.6508 19.7124 61.7148 21.1093C61.7148 21.1093 75.7732 16.0176 77.6657 4.52759C77.5756 10.1149 79.423 15.2516 65.0041 23.948C69.2397 27.6428 68.1583 31.4277 68.1583 31.4277C66.7614 34.717 70.1409 36.0237 70.1409 36.0237C72.6191 37.015 71.7179 38.8174 71.7179 38.8174L70.9519 45.6213C70.0958 48.5501 68.3385 48.2347 68.3385 48.2347C65.635 48.3248 65.8603 47.5588 65.8603 47.5588C65.8603 46.5675 66.7164 46.0719 67.3923 45.8466C67.933 45.6663 68.3836 45.1707 68.4737 44.5849C69.2847 40.3043 68.2033 40.2142 68.2033 40.2142C63.382 33.9961 53.1987 37.8261 49.5489 29.4902" stroke="var(--stroke-0, #242424)" stroke-width="1.25" stroke-miterlimit="10" stroke-linecap="round" stroke-linejoin="round"/>
<path id="Vector_5" d="M22.9191 34.672C23.595 35.8435 22.8741 37.2854 22.5587 37.8261C22.4685 38.0063 22.3784 38.1866 22.3784 38.3668L20.9816 44.0893C20.9365 44.2695 20.9816 44.4498 21.0717 44.5849C21.4772 45.3509 20.9365 45.7565 20.9365 45.7565L19.8551 48.6853C19.6749 49.0007 19.3144 49.1809 18.9539 49.2711C18.5034 49.3612 17.8275 49.4513 17.5571 49.4513H16.4757C15.8899 49.4513 15.4844 48.5051 15.6647 48.0545C15.7097 47.9643 15.7548 47.8742 15.7998 47.7841C16.0251 47.4687 16.3856 47.2434 16.8362 47.1983C17.1967 47.1533 17.3318 47.4236 17.8275 47.1533C18.233 46.928 18.5034 46.4774 18.5484 45.9818C18.5935 44.1343 18.4132 42.4221 18.6836 38.3668C18.7287 37.4656 18.1879 37.2854 18.1879 37.2854C10.0774 30.6617 11.6544 14.3504 11.6544 14.3504C11.6995 13.3591 11.5643 12.6382 11.339 12.0975C11.2038 11.7821 10.9335 11.6018 10.573 11.5568C9.08606 11.4667 4.58017 11.8722 4.2197 9.75441" stroke="var(--stroke-0, #242424)" stroke-width="1.25" stroke-miterlimit="10" stroke-linecap="round" stroke-linejoin="round"/>
<path id="Vector_6" d="M14.6283 7.95207C14.6283 7.95207 15.169 12.2327 14.2228 15.8824C13.9524 16.8737 14.6734 17.865 15.7097 17.9101C18.188 18.0453 21.9729 17.4595 21.9729 12.5931C21.9729 11.1963 19.5397 4.75289 19.5397 4.75289C19.5397 4.75289 18.9089 2.40983 15.7998 3.17583" stroke="var(--stroke-0, #242424)" stroke-width="1.25" stroke-miterlimit="10" stroke-linecap="round" stroke-linejoin="round"/>
<path id="Vector_7" d="M11.9713 4.30775C12.004 3.83607 11.6078 3.42444 11.0865 3.38837C10.5651 3.3523 10.116 3.70543 10.0834 4.17712C10.0508 4.6488 10.4469 5.06043 10.9683 5.0965C11.4896 5.13257 11.9387 4.77944 11.9713 4.30775Z" fill="var(--fill-0, #242424)"/>
<path id="Vector_8" d="M0.614991 3.40111C0.66005 2.95052 1.1557 2.59006 1.78652 2.63511C2.41735 2.68017 2.77782 2.77029 2.77782 3.22088C2.77782 3.67147 1.74146 4.70782 1.11064 4.66276C0.479814 4.6177 0.614991 3.8517 0.614991 3.40111Z" fill="var(--fill-0, #242424)"/>
</g>
</svg>
