<svg preserveAspectRatio="none" width="100%" height="100%" overflow="visible" style="display: block;" viewBox="0 0 38.9903 26.86" fill="none" xmlns="http://www.w3.org/2000/svg">
<g id="PetsPlate_website_icon_batch2_final_Credit Balance 1">
<g id="Group 920688">
<path id="Vector" d="M10.8313 4.07878H4.19966V10.6777H10.8313V4.07878Z" fill="var(--fill-0, #242424)"/>
<path id="Vector_2" d="M3.8665 15.1909H9.79836" stroke="var(--stroke-0, #242424)" stroke-width="1.29968" stroke-miterlimit="10" stroke-linecap="round" stroke-linejoin="round"/>
<path id="Vector_3" d="M3.86559 18.1389H15.2961" stroke="var(--stroke-0, #242424)" stroke-width="1.29968" stroke-miterlimit="10" stroke-linecap="round" stroke-linejoin="round"/>
<path id="Vector_4" d="M12.3314 15.1876H18.2632" stroke="var(--stroke-0, #242424)" stroke-width="1.29968" stroke-miterlimit="10" stroke-linecap="round" stroke-linejoin="round"/>
<path id="Vector_5" d="M20.795 15.1875H25.0606" stroke="var(--stroke-0, #242424)" stroke-width="1.29968" stroke-miterlimit="10" stroke-linecap="round" stroke-linejoin="round"/>
<path id="Vector_6" d="M31.7264 11.2084V3.24985C31.7264 1.95659 30.6933 0.928614 29.3937 0.928614H2.9669C1.66723 0.928614 0.63415 1.95659 0.63415 3.24985V20.0622C0.63415 21.3555 1.66723 22.3834 2.9669 22.3834H23.6284" stroke="var(--stroke-0, #242424)" stroke-miterlimit="10" stroke-linecap="round" stroke-linejoin="round"/>
</g>
<path id="Vector_7" d="M26.3198 5.65649C20.7741 5.65649 16.2802 10.1282 16.2802 15.6465C16.2802 21.1648 20.7741 25.6365 26.3198 25.6365C31.8655 25.6365 36.3594 21.1648 36.3594 15.6465C36.3594 10.1282 31.8655 5.65649 26.3198 5.65649Z" fill="var(--fill-0, #242424)"/>
<g id="Group">
<path id="Vector_8" d="M26.791 8.83947C27.2918 8.73239 27.6207 8.99721 27.7542 9.16418C28.5359 10.1422 27.846 11.8468 27.0446 12.3114C26.8825 12.4019 26.7061 12.2302 26.7896 12.0657C27.3814 11.0454 27.6656 10.0559 27.3129 9.61465C27.1603 9.42383 26.8885 9.4261 26.5426 9.70255C25.6005 10.4556 24.8414 12.196 25.728 13.3051C26.4525 14.2115 27.4562 14.4647 28.2665 15.4785C29.4962 17.017 29.1683 19.8592 27.4199 21.2175C27.3722 21.2557 27.3435 21.3177 27.3602 21.363L27.4526 22.7746C27.4597 22.9058 27.3404 23.0011 27.2141 22.9653C27.0138 22.9103 26.8541 22.7839 26.7302 22.6289C26.6158 22.4857 26.5396 22.2926 26.5277 22.1066L26.5111 21.8657C26.5016 21.756 26.4111 21.6916 26.3014 21.7011C25.6981 21.7533 25.1164 21.5146 24.6874 20.9779C23.7246 19.7733 24.0474 17.7562 25.1446 16.8792C25.6694 16.4598 26.1701 16.5482 26.437 16.8821C26.7134 17.228 26.8324 17.817 26.682 18.2891C26.639 18.4798 26.3576 18.4702 26.3338 18.2937C26.2315 17.8478 26.11 17.5735 25.9766 17.4065C25.7859 17.168 25.5928 17.1465 25.4139 17.2894C24.8056 17.7756 24.7478 19.1705 25.4532 20.0531C25.9012 20.6136 26.6546 20.8715 27.2987 20.3567C28.5629 19.3462 28.3468 17.193 27.3935 16.0003C26.8025 15.2609 25.6368 14.5116 25.1697 13.9272C24.1021 12.5915 24.6346 10.739 25.6938 9.61872C25.732 9.56866 25.7487 9.51621 25.7535 9.47329L25.6468 7.99487C25.6397 7.86372 25.759 7.7684 25.8854 7.80422C26.2644 7.91169 26.5528 8.24802 26.5789 8.69631C26.5907 8.78454 26.6909 8.86089 26.791 8.83947Z" fill="var(--fill-0, white)"/>
<path id="Vector (Stroke)" fill-rule="evenodd" clip-rule="evenodd" d="M25.8211 7.98485L25.9288 9.47699L25.927 9.49289C25.9191 9.56403 25.8919 9.64706 25.8327 9.72464L25.8271 9.73198L25.8208 9.73869C24.7922 10.8265 24.3156 12.5793 25.3062 13.8187C25.5145 14.0793 25.8761 14.3802 26.2805 14.7166C26.3025 14.735 26.3247 14.7535 26.347 14.772C26.7679 15.1224 27.2215 15.5058 27.53 15.8918C28.0322 16.5201 28.3364 17.3944 28.3522 18.2439C28.368 19.094 28.0943 19.9444 27.4078 20.4931C27.0448 20.7832 26.642 20.8599 26.266 20.7787C25.8952 20.6986 25.5619 20.4678 25.3175 20.1621C24.9364 19.6852 24.7646 19.0755 24.7671 18.5221C24.7695 17.9754 24.9436 17.4429 25.3055 17.1536C25.4228 17.0599 25.5656 17.0051 25.7226 17.0339C25.874 17.0616 26.0035 17.161 26.113 17.298C26.2705 17.495 26.3994 17.799 26.504 18.255C26.5063 18.2549 26.5083 18.2547 26.51 18.2542C26.5107 18.254 26.5113 18.2537 26.5117 18.2536C26.5119 18.253 26.5122 18.2522 26.5124 18.2511L26.5141 18.2437L26.5164 18.2365C26.6493 17.8193 26.541 17.291 26.3013 16.9912C26.1973 16.8611 26.0508 16.7812 25.879 16.7724C25.7062 16.7636 25.4905 16.8263 25.2538 17.0156C24.7477 17.4201 24.4097 18.0984 24.3167 18.828C24.2238 19.5567 24.3781 20.3118 24.8239 20.8694C25.2178 21.3622 25.7435 21.5748 26.2867 21.5278C26.3792 21.5198 26.4736 21.5424 26.5498 21.6005C26.6277 21.6599 26.6762 21.7489 26.6851 21.851L26.6853 21.854L26.7019 22.0949L26.702 22.0958C26.7115 22.2455 26.7742 22.4047 26.8666 22.5204C26.9743 22.6551 27.1049 22.7549 27.2605 22.7976L27.262 22.7979C27.2667 22.7993 27.2695 22.799 27.2708 22.7987C27.2724 22.7984 27.2738 22.7977 27.275 22.7968C27.2762 22.7958 27.2771 22.7946 27.2778 22.7931C27.2783 22.7919 27.2792 22.7895 27.2791 22.7849C27.279 22.7847 27.279 22.7845 27.279 22.7843L27.1879 21.3925C27.1729 21.3265 27.1869 21.2646 27.206 21.2196C27.2289 21.1659 27.2662 21.1179 27.3115 21.0817L27.3134 21.0802C28.1455 20.4338 28.646 19.4281 28.7878 18.3922C28.9297 17.355 28.7091 16.3111 28.1308 15.5875C27.7434 15.1029 27.3096 14.7987 26.867 14.4956C26.8526 14.4857 26.8382 14.4758 26.8238 14.466C26.398 14.1746 25.9609 13.8754 25.5923 13.4142C25.1018 12.8005 25.0762 12.023 25.2828 11.3214C25.4892 10.6207 25.9341 9.96651 26.4343 9.56675C26.6214 9.41715 26.8079 9.32547 26.9856 9.3101C27.1733 9.29386 27.3363 9.36479 27.4493 9.50617C27.6785 9.79291 27.679 10.2217 27.5754 10.6631C27.4696 11.1138 27.2434 11.6305 26.9441 12.1474C26.9432 12.1498 26.9429 12.1512 26.9428 12.1517C26.9427 12.1526 26.9428 12.153 26.9428 12.1533C26.943 12.1543 26.9439 12.1567 26.9465 12.1593C26.9491 12.1618 26.9514 12.1624 26.9519 12.1625C26.9521 12.1625 26.9524 12.1625 26.9531 12.1624C26.9537 12.1623 26.9558 12.1618 26.9593 12.16C27.3083 11.9567 27.6593 11.4605 27.8261 10.8823C27.9924 10.3057 27.9607 9.70134 27.6185 9.27323C27.5107 9.13842 27.2429 8.92135 26.8278 9.01012C26.7235 9.03242 26.6247 9.00287 26.552 8.95182C26.4808 8.90174 26.4201 8.82048 26.4066 8.71985L26.4057 8.7133L26.4053 8.7067C26.3836 8.3319 26.1454 8.05919 25.8382 7.97211C25.8335 7.97076 25.8307 7.97108 25.8294 7.97135C25.8278 7.97168 25.8264 7.97235 25.8252 7.9733C25.824 7.97424 25.8231 7.97545 25.8224 7.97693C25.8219 7.97808 25.821 7.98048 25.8211 7.98485ZM25.4733 8.00457C25.4597 7.75406 25.6919 7.56847 25.9333 7.6369C26.3784 7.7631 26.7141 8.15443 26.7518 8.66635C26.752 8.66649 26.7522 8.66664 26.7524 8.66677C26.7542 8.66805 26.7558 8.66872 26.7567 8.66903C27.3422 8.54462 27.7317 8.85676 27.8907 9.0557C28.3302 9.60557 28.3444 10.3425 28.1608 10.9788C27.978 11.6127 27.5842 12.2004 27.1324 12.4624L27.13 12.4638C26.8153 12.6394 26.4744 12.3027 26.6347 11.9871L26.6369 11.9827L26.6393 11.9785C26.9301 11.4772 27.1405 10.9912 27.2362 10.5835C27.3345 10.1648 27.3007 9.87825 27.1772 9.72371C27.1377 9.67426 27.0885 9.65092 27.0157 9.65722C26.9329 9.66438 26.8105 9.71205 26.6518 9.83891C26.2098 10.1922 25.8041 10.7847 25.617 11.4198C25.4303 12.0539 25.4684 12.7011 25.8644 13.1966C26.2001 13.6166 26.5992 13.8899 27.0338 14.1875C27.0438 14.1944 27.0539 14.2012 27.0639 14.2081C27.5069 14.5116 27.98 14.8409 28.403 15.37C29.0543 16.185 29.2846 17.3314 29.133 18.4395C28.9815 19.546 28.4462 20.6378 27.5343 21.3498L27.627 22.7655C27.6405 23.0158 27.4088 23.2012 27.1677 23.1334C26.9231 23.0661 26.7345 22.9131 26.5945 22.7379C26.4582 22.5675 26.3685 22.3405 26.3543 22.1184C26.3543 22.1182 26.3543 22.1185 26.3543 22.1184L26.3379 21.8801C26.3377 21.8787 26.3375 21.8777 26.3373 21.877C26.3348 21.8759 26.3284 21.8739 26.3168 21.8749C25.6534 21.9323 25.0157 21.6675 24.5517 21.087C24.0346 20.44 23.869 19.5843 23.9711 18.784C24.073 17.9847 24.4451 17.2159 25.0362 16.7434C25.3242 16.5132 25.6213 16.4104 25.8967 16.4245C26.1732 16.4385 26.4105 16.5698 26.5735 16.7737C26.8854 17.164 27.0152 17.8101 26.8504 18.3359C26.8045 18.5211 26.6411 18.6047 26.4997 18.6036C26.3622 18.6025 26.1936 18.5174 26.1629 18.3265C26.0633 17.8946 25.9498 17.6519 25.8409 17.5156C25.7598 17.4141 25.6973 17.3834 25.6598 17.3766C25.6278 17.3707 25.5846 17.3766 25.523 17.4258C25.2766 17.6227 25.1177 18.0308 25.1155 18.5237C25.1133 19.0099 25.2654 19.5389 25.5897 19.9446C25.7934 20.1994 26.0607 20.3779 26.3396 20.4381C26.6134 20.4973 26.9092 20.4455 27.1903 20.2209C27.768 19.7591 28.0183 19.0277 28.0039 18.2503C27.9894 17.4724 27.7089 16.6737 27.2579 16.1094C26.9754 15.7559 26.5506 15.395 26.1241 15.0398C26.0971 15.0174 26.0702 14.9949 26.0432 14.9725C25.6533 14.6483 25.2655 14.3259 25.034 14.0363C23.892 12.6075 24.475 10.6611 25.56 9.50742C25.5702 9.49241 25.5758 9.47796 25.5787 9.46603L25.4733 8.00457ZM27.527 21.3551C27.5268 21.3556 27.5267 21.3559 27.5266 21.3561C27.5263 21.3567 27.5262 21.3569 27.5263 21.3568C27.5264 21.3567 27.5274 21.3553 27.529 21.3539L27.5279 21.3524M27.527 21.3551L27.4203 21.2178L27.5279 21.3524" fill="var(--fill-0, white)"/>
</g>
</g>
</svg>
