<svg preserveAspectRatio="none" width="100%" height="100%" overflow="visible" style="display: block;" viewBox="0 0 20 20" fill="none" xmlns="http://www.w3.org/2000/svg">
<path id="icon" fill-rule="evenodd" clip-rule="evenodd" d="M4 9L8.85009 0C10.5312 0 12.002 1.36599 12.002 2.99998V6.99996L17.9201 6.99996C19.1685 6.98622 20.1627 8.11584 19.9778 9.29994L18.558 18.2999C18.4061 19.2735 17.5134 20.011 16.5004 19.9999L0 20V9L4 9ZM10.002 6.99996C10.002 8.10453 10.8975 8.99996 12.002 8.99996L17.9201 8.99996L17.9422 8.99984C17.9454 8.9998 17.9487 9.0004 17.9487 9.0004C17.9487 9.0004 17.9532 9.00157 17.9575 9.00355C17.9673 9.00807 17.9806 9.01705 17.9923 9.03028L17.9951 9.03348L16.5852 17.971C16.5834 17.9728 16.5811 17.9749 16.5783 17.9773C16.5687 17.9852 16.5575 17.9915 16.5466 17.9955C16.5366 17.9991 16.5288 18.0001 16.5223 18L16.5004 17.9999L6 17.9999L6 9.50454L9.79376 2.46476C9.92734 2.63653 10.002 2.83055 10.002 2.99998V6.99996ZM4 11H2L2 18H4L4 11Z" fill="var(--fill-0, #242424)"/>
</svg>
