<svg preserveAspectRatio="none" width="100%" height="100%" overflow="visible" style="display: block;" viewBox="0 0 44.4444 44.4444" fill="none" xmlns="http://www.w3.org/2000/svg">
<g id="food">
<g id="Group 920692">
<path id="Vector" d="M6.84766 22.514C7.85407 22.137 7.85407 21.0058 7.65838 20.2239L8.93037 18.4504C8.93037 18.4504 8.95833 18.4504 8.9723 18.4504C9.89485 17.8779 10.9292 17.5148 12.0335 17.1378C13.7108 16.5513 15.4301 15.9508 16.9397 14.5544C17.6945 13.8562 19.8332 11.2728 19.7353 8.61958C19.6934 7.26505 19.0784 6.09206 17.9182 5.15645C16.4924 4.01139 14.899 3.70417 13.3055 4.29067C10.7195 5.22627 8.62285 8.32633 8.1476 10.6723C7.95191 11.6638 7.86805 12.4737 7.78418 13.1859C7.65838 14.3589 7.56053 15.1967 7.08528 16.1044C7.02937 16.2022 7.02937 16.2999 7.00141 16.3977L6.77777 16.7049C6.06489 17.7103 5.57566 18.3247 5.33804 18.5063C4.75096 18.3945 4.12196 18.6459 3.7166 19.1905C3.29726 19.763 3.25532 20.4612 3.63273 20.9919C3.88433 21.341 4.37356 21.7041 4.97461 21.6342C5.07246 21.9275 5.24019 22.2487 5.53373 22.4581C5.68749 22.5698 5.92511 22.6676 6.21865 22.6676C6.40036 22.6676 6.59605 22.6397 6.8197 22.5559L6.84766 22.514ZM8.83252 13.2836C8.90241 12.5854 9.00026 11.8034 9.18197 10.8678C9.58733 8.80112 11.4883 6.06413 13.6689 5.26817C14.0882 5.11456 14.4936 5.04474 14.899 5.04474C15.7237 5.04474 16.5064 5.35195 17.2752 5.96638C18.1977 6.72045 18.673 7.58623 18.701 8.64751C18.7708 10.9376 16.772 13.2697 16.2408 13.7724C14.899 15.0152 13.2775 15.5877 11.698 16.1323C10.6776 16.4954 9.62927 16.8585 8.66479 17.4031C8.39921 17.2774 8.07771 17.054 7.99385 16.8305C7.96589 16.7747 7.95191 16.6909 8.0218 16.5652C8.5949 15.476 8.70672 14.4985 8.8465 13.2697L8.83252 13.2836ZM5.91113 20.8941C5.91113 20.6986 5.79931 20.5311 5.6176 20.4333C5.44986 20.3495 5.24019 20.3635 5.08643 20.4752C4.86279 20.6288 4.6671 20.5869 4.49936 20.3775C4.33163 20.1401 4.52732 19.8608 4.56925 19.8049C4.70903 19.6234 4.96063 19.4698 5.18428 19.5396C5.72942 19.7211 6.26058 19.2184 7.32291 17.7382C7.47666 17.9198 7.67235 18.0594 7.84009 18.1711L6.65196 19.8468C6.55412 19.9865 6.52616 20.168 6.58207 20.3216C6.58207 20.3216 6.91755 21.3829 6.47025 21.5505C6.38638 21.5784 6.21865 21.6342 6.13478 21.5784C5.995 21.4806 5.91113 21.1176 5.91113 20.9081V20.8941Z" fill="var(--fill-0, #242424)"/>
<path id="Vector_2" d="M13.7667 7.29294C15.2344 7.55826 16.073 8.41008 16.087 8.42404C16.1849 8.53575 16.3246 8.57765 16.4644 8.57765C16.6042 8.57765 16.73 8.53575 16.8278 8.438C17.0375 8.24251 17.0375 7.90736 16.8418 7.6979C16.7999 7.65601 15.7795 6.59473 13.9624 6.25959C13.6828 6.21769 13.4032 6.39923 13.3473 6.67851C13.2914 6.9578 13.4871 7.23708 13.7667 7.29294Z" fill="var(--fill-0, #242424)"/>
<path id="Vector_3" d="M11.0685 9.41542C14.2276 10.0019 16.1425 12.306 16.1565 12.3339C16.2544 12.4596 16.4081 12.5294 16.5619 12.5294C16.6737 12.5294 16.7995 12.4875 16.8974 12.4177C17.121 12.2362 17.1629 11.901 16.9812 11.6776C16.8974 11.5659 14.8146 9.05235 11.2642 8.39603C10.9707 8.34017 10.7051 8.53567 10.6492 8.81495C10.5933 9.09424 10.789 9.37352 11.0685 9.42938V9.41542Z" fill="var(--fill-0, #242424)"/>
<path id="Vector_4" d="M10.0905 12.5155C12.2011 12.7669 13.571 14.3448 13.5849 14.3727C13.6828 14.4984 13.8365 14.5543 13.9903 14.5543C14.1161 14.5543 14.2279 14.5124 14.3258 14.4286C14.5494 14.2471 14.5774 13.9119 14.3957 13.6885C14.3258 13.6047 12.7602 11.7754 10.2302 11.4682C9.9367 11.4403 9.6851 11.6358 9.64316 11.929C9.61521 12.2223 9.8109 12.4736 10.1044 12.5155H10.0905Z" fill="var(--fill-0, #242424)"/>
</g>
<path id="Vector_5" d="M19.5915 23.7037C19.746 23.4175 19.8774 23.1085 19.9533 22.7814C20.6858 19.5938 19.4427 18.8981 19.4427 18.8981C18.1593 18.3728 16.0609 19.1268 14.5066 21.3124C12.9523 23.498 14.0429 26.0714 14.0429 26.0714C13.1208 27.1628 13.2508 28.643 13.2508 28.643L13.9503 28.6109C13.8856 27.2591 14.7414 26.559 14.7414 26.559C17.5779 26.6879 19.0598 24.6776 19.6099 23.6943L19.5915 23.7037ZM14.846 25.7212C14.6661 25.6626 14.5772 25.4654 14.6358 25.2856C16.071 21.2104 18.3435 19.6871 18.4397 19.6267C18.5955 19.5245 18.8121 19.5645 18.9145 19.7202C19.0169 19.8759 18.9769 20.0924 18.8212 20.1946C18.8028 20.2039 16.6404 21.6713 15.2819 25.5114C15.2233 25.6912 15.026 25.7799 14.8599 25.7257L14.846 25.7212Z" fill="var(--fill-0, #242424)"/>
<path id="Vector_6" d="M11.5162 30.687C11.5162 30.687 12.4819 28.0224 10.7781 25.8779C9.07126 23.7478 6.90287 23.0956 5.63158 23.6888C5.63158 23.6888 4.63691 24.3107 5.11238 26.775C5.34971 28.0442 6.01072 29.2098 7.0124 30.0312C7.8837 30.7656 9.13897 31.3732 10.8395 31.2128C11.0904 31.5037 11.3104 32.0111 11.5356 32.5642L12.2758 32.2303C12.2172 31.5935 11.5162 30.687 11.5162 30.687ZM10.3981 30.0639C10.3981 30.0639 10.2579 30.0937 10.2009 30.0816C10.1012 30.0606 9.99935 29.9795 9.96045 29.8821C8.40573 26.1192 6.28738 24.8087 6.25889 24.8026C6.10003 24.7096 6.03948 24.5035 6.13559 24.3306C6.22869 24.1719 6.44615 24.1287 6.60802 24.2076C6.7017 24.2571 8.92797 25.6202 10.5829 29.6125C10.6495 29.7901 10.5789 29.9832 10.4011 30.0497L10.3981 30.0639Z" fill="var(--fill-0, #242424)"/>
<path id="Vector_7" d="M20.3992 31.0209C20.4227 30.6988 20.3893 30.3647 20.3243 30.0388C19.5998 26.8529 18.1904 26.7627 18.1904 26.7627C16.8019 26.8554 15.2456 28.4437 14.7912 31.0828C14.3369 33.7219 16.4293 35.5769 16.4293 35.5769C16.063 36.9562 16.8199 38.2313 16.8199 38.2313L17.4402 37.9017C16.7852 36.7077 17.2644 35.709 17.2644 35.709C19.8661 34.5947 20.3413 32.1384 20.4135 31.0239L20.3992 31.0209ZM16.9877 34.9072C16.9877 34.9072 16.9134 34.9063 16.885 34.9003C16.7425 34.8702 16.6324 34.7577 16.6198 34.6064C16.1444 30.3137 17.5237 27.9447 17.5875 27.8541C17.6806 27.6954 17.901 27.638 18.0569 27.7453C18.2157 27.8384 18.2763 28.0445 18.1802 28.2174C18.1742 28.2459 16.8505 30.4929 17.3029 34.5428C17.3237 34.7256 17.1849 34.8895 17.0019 34.9102L16.9877 34.9072Z" fill="var(--fill-0, #242424)"/>
<path id="Vector_8" d="M24.0944 8.39032C24.0944 8.39032 24.1402 8.38565 24.1718 8.3778C23.838 9.13775 23.9241 10.0213 24.4668 10.664C24.8389 11.2686 33.5766 21.1026 34.9433 19.858C35.5043 19.2829 34.9244 17.8719 33.8475 16.0817C33.8475 16.0817 33.8301 16.0927 33.8159 16.0895C33.1781 16.0067 32.4481 16.6037 32.2174 16.8353C32.1384 16.922 32.0121 16.9534 31.8984 16.928C31.8416 16.9153 31.7879 16.8884 31.7374 16.8473C31.6033 16.7131 31.6051 16.5049 31.7252 16.3678C31.7631 16.3315 32.5169 15.561 33.4422 15.4249C33.0338 14.7824 32.5717 14.1129 32.0876 13.4088C32.0386 13.4276 32.0039 13.4497 31.9581 13.4544C30.8498 13.341 29.8525 14.534 29.8351 14.545C29.7529 14.6458 29.6234 14.6914 29.4955 14.6629C29.4387 14.6502 29.3961 14.6407 29.363 14.5886C29.2115 14.4653 29.199 14.2539 29.3191 14.1168C29.3602 14.0664 30.3543 12.8876 31.6444 12.7883C31.124 12.0462 30.5751 11.2978 30.0262 10.5493C29.9978 10.543 29.9773 10.5682 29.9457 10.5761C29.0379 10.433 27.8024 11.4237 27.4168 11.8145C27.3378 11.9011 27.2115 11.9325 27.0978 11.9072C27.041 11.8945 26.9731 11.8644 26.9258 11.8091C26.7917 11.6749 26.7934 11.4666 26.9278 11.3327C26.9862 11.2713 28.2646 10.0219 29.5436 9.90513C28.9948 9.15671 28.4743 8.41463 27.9902 7.71047C27.4838 7.10565 26.6898 6.85385 25.9303 6.98228C25.9398 6.93969 25.9524 6.88292 25.9335 6.83399C25.7113 6.29263 25.4672 5.58245 25.2183 4.82651C24.9285 3.98691 24.634 3.10156 24.3062 2.2982C24.2274 2.11669 24.0238 2.02652 23.8453 2.09098L22.8519 2.46521C22.7539 2.50295 22.6781 2.57542 22.6449 2.65741C22.6117 2.7394 22.6005 2.85612 22.6415 2.93978L22.6825 3.02344L22.0711 3.42338C21.9985 3.34757 21.9402 3.27493 21.926 3.27176C21.8534 3.19595 21.7461 3.14218 21.6229 3.15938C21.5171 3.16556 21.4128 3.23169 21.348 3.32153L20.6477 4.38707C20.556 4.53052 20.5716 4.72772 20.7089 4.84778L20.9692 5.08473L20.8601 5.37328C20.8 5.50888 20.8393 5.66668 20.9513 5.7662C21.0239 5.84201 22.8114 7.52269 23.9792 8.305C24.0187 8.32871 24.0581 8.35242 24.1007 8.36194L24.0944 8.39032ZM21.6421 4.74324L21.4323 4.54737L21.7042 4.13124C22.1475 4.61766 22.9378 5.5541 23.526 6.46032C23.6364 6.63398 23.8669 6.67055 24.0233 6.57135C24.197 6.46114 24.2335 6.23087 24.1342 6.07457C23.6343 5.30728 23.0144 4.543 22.5522 4.00765L22.9693 3.74314L23.3743 4.66807C23.4531 4.84958 23.6709 4.94292 23.8557 4.85007C24.0373 4.77142 24.1307 4.55384 24.0377 4.36915L23.4561 3.03228L23.7641 2.92223C24.0256 3.62139 24.2777 4.36314 24.5329 5.09069C24.7928 5.86399 25.0338 6.58837 25.267 7.1471C25.2748 7.17866 25.3175 7.18818 25.3427 7.20872C25.1579 7.30156 24.9873 7.39758 24.8214 7.53936C24.6934 7.64489 24.5765 7.76779 24.4738 7.89387C24.4406 7.84177 24.4359 7.79602 24.3854 7.75494C23.4765 7.14963 22.1133 5.90645 21.6179 5.45309L21.7271 5.16454C21.7872 5.02895 21.7478 4.87115 21.6358 4.77162L21.6421 4.74324Z" fill="var(--fill-0, #242424)"/>
<g id="Group 920693">
<path id="Vector_9" d="M31.8358 21.3259C31.1902 21.3259 30.6642 21.0321 30.0904 20.7166C29.3971 20.3357 28.6081 19.9005 27.58 20.0202C26.54 20.1399 25.5239 20.6948 24.8066 21.5544C24.1133 22.3813 23.8384 23.2845 24.0774 23.9699C24.1133 24.057 24.1492 24.1549 24.185 24.242L23.4319 24.4052C23.3243 24.4269 23.157 24.5249 23.0972 24.6119C23.0733 24.6446 22.4397 25.4062 22.1408 26.5596C21.8061 27.8979 22.0691 29.2145 22.9179 30.3788C22.9298 30.4114 22.9537 30.444 22.9657 30.4658C23.0613 30.5964 23.5754 31.2601 24.0296 31.4995C24.5317 31.8368 25.0816 32 25.6674 32C26.0858 32 26.5161 31.913 26.9704 31.7497C27.1616 31.6736 27.3649 31.5974 27.5561 31.4995C28.4288 31.0642 29.2775 30.4114 30.1024 29.7694C30.461 29.4974 30.7838 29.2363 31.1185 29.0078C31.8836 28.4637 32.7084 28.0503 33.5213 27.6368C34.9797 26.8969 36.3545 26.2005 36.8566 24.9492C36.9163 24.8078 36.9641 24.6446 37 24.3834V23.7523C37 23.7523 36.9761 23.6979 36.9761 23.6653C36.9163 23.4259 36.8207 23.1974 36.6653 22.9907C35.948 21.957 34.2386 21.3694 31.8477 21.3477L31.8358 21.3259ZM35.9122 24.6228C35.5416 25.5585 34.3701 26.1461 33.0192 26.8425C32.1824 27.2668 31.3217 27.7021 30.4969 28.2896C30.1622 28.529 29.8155 28.7902 29.4569 29.0731C28.6798 29.6824 27.8669 30.3026 27.078 30.6943C26.9226 30.7705 26.7552 30.8466 26.5998 30.901C25.8228 31.1948 25.1892 31.1404 24.5676 30.7269C24.3404 30.6073 23.9699 30.1938 23.8144 29.987C23.8025 29.9544 23.7786 29.9218 23.7547 29.8891C23.0374 28.9207 22.8222 27.8653 23.0972 26.7446C23.2885 26.0047 23.6471 25.4497 23.8025 25.2321L25.0338 24.9601C25.1892 24.9275 25.3207 24.8295 25.3805 24.6881C25.4402 24.5575 25.4283 24.4052 25.3446 24.2746C25.249 24.144 25.1175 23.9264 25.0338 23.6762C24.9262 23.3606 25.0577 22.7404 25.6076 22.0876C26.1694 21.4238 26.9345 20.9886 27.7115 20.9015C28.3929 20.8254 28.9787 21.1409 29.5884 21.4782C30.21 21.8155 30.9153 22.2073 31.8238 22.2181C33.8321 22.2399 35.2905 22.686 35.8165 23.4368C35.9002 23.5456 35.948 23.6653 35.9839 23.7959L36.0078 24.2964C35.9839 24.4052 35.96 24.514 35.9241 24.6119L35.9122 24.6228Z" fill="var(--fill-0, #242424)"/>
<path id="Vector_10" d="M25.8222 27.8871C26.0096 28.261 26.5938 28.4596 27.0898 28.1675C27.3323 28.0273 27.5087 27.7936 27.5858 27.5132C27.652 27.2911 27.6299 27.0575 27.5528 26.8822C27.3654 26.5083 26.7812 26.3096 26.2852 26.6018C26.0427 26.742 25.8663 26.9757 25.7892 27.2561C25.723 27.4781 25.7451 27.7118 25.8222 27.8871Z" fill="var(--fill-0, #242424)"/>
<path id="Vector_11" d="M31.7556 22.824C30.9994 22.8973 30.8214 22.803 30.3765 22.5622C30.0763 22.4051 29.6981 22.2061 29.0642 21.9967C27.6629 21.536 26.5508 22.2271 26.1393 22.803C25.7055 23.4104 25.7945 23.8397 25.9502 24.1015C26.1949 24.5098 26.7398 24.7193 27.4738 24.6879C27.6407 24.6879 27.8297 24.6879 28.0522 24.6879C27.1958 24.8868 26.4729 25.0544 26.4173 25.0753C26.1726 25.1381 26.0281 25.3685 26.0837 25.5989C26.1504 25.8292 26.3951 25.9654 26.6397 25.913C26.6731 25.913 29.7093 25.1591 30.6991 25.0439C31.2551 24.9811 31.3108 24.6879 31.2996 24.5203C31.2329 23.7035 27.4738 23.8187 27.4294 23.8187C26.9511 23.8397 26.7621 23.714 26.7398 23.6721C26.7176 23.6302 26.7398 23.4941 26.8955 23.2742C27.0735 23.0334 27.7408 22.4679 28.7528 22.803C29.3089 22.9915 29.6314 23.159 29.9206 23.3056C30.4878 23.6093 30.8548 23.7768 31.8557 23.6721C33.1458 23.5465 33.9577 23.913 34.169 24.3004C34.2691 24.4784 33.8798 24.7297 33.0457 25.2219L32.8566 25.3266C32.523 25.5256 32.1449 25.7036 31.7445 25.8921C30.8214 26.3319 29.776 26.824 28.8529 27.6722C27.5295 28.8869 26.3172 29.4942 25.7611 29.2324C25.5721 29.1382 24.927 28.7821 24.8158 28.1748C24.7268 27.6512 25.0382 27.0125 25.7389 26.3319C25.9168 26.1538 25.9057 25.8816 25.7278 25.714C25.5498 25.5465 25.2495 25.557 25.0716 25.7245C24.1596 26.625 23.7593 27.4942 23.9038 28.3109C24.0818 29.2952 24.9604 29.8188 25.3385 29.9968C25.5721 30.112 25.8167 30.1539 26.0725 30.1539C27.1958 30.1539 28.5081 29.1905 29.498 28.2795C30.3209 27.5256 31.2996 27.0648 32.156 26.6565C32.5897 26.4575 32.9901 26.2586 33.346 26.0491L33.5351 25.9444C34.536 25.358 35.4813 24.803 34.992 23.892C34.5471 23.0753 33.2793 22.6459 31.7556 22.7925V22.824Z" fill="var(--fill-0, #242424)"/>
</g>
</g>
</svg>
