<svg preserveAspectRatio="none" width="100%" height="100%" overflow="visible" style="display: block;" viewBox="0 0 53.7681 45.9806" fill="none" xmlns="http://www.w3.org/2000/svg">
<g id="art">
<path id="Vector" d="M35.5642 26.4925C33.984 26.3443 25.2932 30.0972 20.849 30.6404" stroke="var(--stroke-0, #242424)" stroke-width="1.25" stroke-miterlimit="10" stroke-linecap="round" stroke-linejoin="round"/>
<path id="Vector_2" d="M7.81265 14.0487C7.71389 15.4313 4.60295 16.814 4.60295 16.814C1.5414 18.3448 0.998214 15.4314 0.998214 15.4314C0.158755 14.8388 0.998214 14.2462 0.998214 14.2462L2.77589 13.2586C3.22031 13.0117 3.46721 12.5179 3.41783 11.9748C3.12155 8.37002 4.80047 7.48118 4.80047 7.48118L7.02257 6.09854C7.41761 5.85164 7.22009 5.4566 7.26947 4.9628C7.41761 3.67892 8.50397 1.16054 8.70149 0.913645C8.70149 0.913645 9.39281 -0.0739573 10.0347 1.60496C10.7754 2.9876 11.5161 5.35784 11.3186 6.4442C11.3186 6.4442 14.1333 12.6167 20.0095 14.8388C20.0095 14.8388 32.157 16.1721 40.1565 14.6907C40.1565 14.6907 44.6995 13.5549 47.9092 15.5301C49.5387 14.345 50.1807 9.85142 47.1685 9.30824C47.1685 9.30824 43.5637 8.4194 42.4774 11.8266C42.4774 11.8266 41.2923 15.9252 40.6503 13.0117C40.6503 13.0117 40.2059 5.9504 47.0697 5.50598C48.7486 5.55536 53.6866 5.65412 53.0941 12.0241C53.0941 12.0241 52.6003 15.9745 49.2918 17.2584L49.835 19.4805C51.662 25.258 45.9834 31.0848 45.9834 31.0848C44.5513 32.7637 45.6377 34.1464 45.6377 34.1464C47.8598 36.2203 47.1685 36.8623 47.1685 36.8623L45.0945 42.4422C44.2551 45.3062 42.5761 44.9606 42.5761 44.9606C39.959 45.0593 39.7615 44.5162 39.7615 44.5162C39.7615 42.8866 42.0823 42.6891 42.0823 42.6891C44.3044 36.9116 43.5144 36.1216 43.5144 36.1216C37.6381 31.8749 35.1691 25.1098 34.6753 23.4803" stroke="var(--stroke-0, #242424)" stroke-width="1.25" stroke-miterlimit="10" stroke-linecap="round" stroke-linejoin="round"/>
<path id="Vector_3" d="M21.244 27.1838C21.9847 28.4677 21.1946 30.0478 20.849 30.6404C20.7502 30.8379 20.6514 31.0354 20.6514 31.2329L19.1207 39.4794C19.0713 39.6769 19.1207 39.8744 19.2194 40.0226C19.6638 40.862 19.0713 41.3065 19.0713 41.3065L17.8862 44.5162C17.6886 44.8618 17.2936 45.0593 16.8986 45.1581C16.4048 45.2569 15.6641 45.3556 15.3678 45.3556H14.6765C14.0345 45.3556 13.2444 44.9606 13.442 44.4174C13.4913 44.3186 13.5407 44.2199 13.5901 44.1211C13.837 43.7755 14.232 43.2323 14.6765 43.1829C15.0715 43.1335 15.3678 42.9854 15.911 42.6891C16.3554 42.4422 16.6023 41.9978 16.6023 41.4546C16.6517 39.43 16.2566 34.6895 16.5529 30.2453C16.6023 29.2577 16.0097 29.0602 16.0097 29.0602C12.8494 25.6036 11.3186 20.1718 11.3186 20.1718L9.29405 17.1103C8.75087 16.2214 5.49179 18.6904 4.75109 17.4559" stroke="var(--stroke-0, #242424)" stroke-width="1.25" stroke-miterlimit="10" stroke-linecap="round" stroke-linejoin="round"/>
<path id="Vector_4" d="M42.1317 35.0352L41.3416 38.9362C40.5022 41.8003 38.8233 41.4546 38.8233 41.4546C36.2061 41.5534 36.453 40.8127 36.453 40.8127C36.453 39.1831 38.7739 38.9856 38.7739 38.9856C41.0454 33.3069 38.3295 30.6404 38.3295 30.6404" stroke="var(--stroke-0, #242424)" stroke-width="1.25" stroke-miterlimit="10" stroke-linecap="round" stroke-linejoin="round"/>
<path id="Vector_5" d="M20.7008 31.233C20.4045 35.6278 20.9477 37.603 20.8983 39.6275C20.8983 40.1213 20.6021 40.6151 20.1576 40.862C19.6145 41.1583 19.8614 40.6645 19.4663 40.7139L18.5775 43.1829H19.4663C19.7132 43.1829 20.5033 43.0841 20.9971 42.9854C21.4415 42.8866 21.7872 42.6891 21.9847 42.3434L23.1698 39.1337C23.1698 39.1337 23.8118 38.6893 23.318 37.8499C23.2192 37.7017 23.1698 37.5042 23.2192 37.3067L24.6018 29.8009" stroke="var(--stroke-0, #242424)" stroke-width="1.25" stroke-miterlimit="10" stroke-linecap="round" stroke-linejoin="round"/>
<path id="Vector_6" d="M6.08435 6.44422L4.60295 2.0494C4.55357 1.90126 4.65233 1.75313 4.75109 1.75313C5.14613 1.70375 6.03497 1.85189 7.41761 3.72832" stroke="var(--stroke-0, #242424)" stroke-width="1.25" stroke-miterlimit="10" stroke-linecap="round" stroke-linejoin="round"/>
<path id="Vector_7" d="M6.29837 11.8602C6.74906 11.6656 6.9742 11.1831 6.80123 10.7825C6.62826 10.3819 6.12268 10.2149 5.672 10.4095C5.22131 10.6041 4.99617 11.0866 5.16914 11.4872C5.34211 11.8878 5.84768 12.0548 6.29837 11.8602Z" fill="var(--fill-0, #242424)"/>
<path id="Vector_8" d="M0.899459 15.1351C0.751319 14.8388 0.998219 14.3944 1.39326 14.2462C1.83768 14.0487 2.08458 13.9993 2.23272 14.2956C2.38086 14.5919 2.0352 15.6783 1.64016 15.8264C1.24512 15.9745 0.998219 15.4314 0.899459 15.1351Z" fill="var(--fill-0, #242424)"/>
</g>
</svg>
