<svg preserveAspectRatio="none" width="100%" height="100%" overflow="visible" style="display: block;" viewBox="0 0 79.0369 70.1429" fill="none" xmlns="http://www.w3.org/2000/svg">
<g id="art">
<path id="Vector" d="M32.71 47.0085C38.64 47.8946 50.943 41.4875 50.943 41.4875C58.4066 38.2158 60.0425 42.987 60.0425 42.987C60.0425 42.987 61.6784 49.2238 71.2209 56.108C71.2209 56.108 75.6514 58.2892 74.0837 65.412C74.0837 65.412 70.2666 65.7187 70.2666 68.4452C70.2666 68.4452 69.8918 69.638 74.22 69.5016C74.22 69.5016 77.0146 70.0129 78.4119 65.3098L77.6621 57.0282C77.6621 57.0282 78.4119 55.0856 75.1061 52.5637C75.1061 52.5637 70.6074 45.6794 72.55 38.9656C72.55 38.9656 73.6065 32.388 67.8128 28.98L67.7447 27.4804C74.8334 18.5173 74.0837 14.4276 74.0837 14.4276C73.5384 3.89675 66.0747 0.625025 66.0747 0.625025C70.9482 9.55411 70.4711 15.5182 70.4711 15.5182C69.5509 21.3119 64.2344 24.0383 64.2344 24.0383C62.1896 25.2993 52.8515 22.9136 42.8659 23.1863C27.9387 22.3343 21.4293 9.82675 21.4293 9.82675C19.6231 6.72543 16.4877 6.75951 14.3406 7.1344C13.4204 7.3048 12.5343 7.6456 11.7505 8.15681L8.75139 9.82675C8.75139 9.82675 7.11553 11.2581 7.28594 13.303C7.28594 13.303 8.34243 13.7119 1.5945 16.4724C1.5945 16.4724 -0.586653 17.9379 1.5945 19.6419C1.5945 19.6419 2.9918 23.7997 7.59266 22.641C7.59266 22.641 12.4321 21.0392 12.1935 19.1989" stroke="var(--stroke-0, #242424)" stroke-width="1.25" stroke-miterlimit="10" stroke-linecap="round" stroke-linejoin="round"/>
<path id="Vector_2" d="M32.5737 42.987C33.7665 45.066 32.5396 47.7242 31.9602 48.7126C31.7898 49.0193 31.6876 49.3601 31.6194 49.7009L31.0059 59.4138C30.9719 59.7206 31.04 60.0273 31.1763 60.334C31.9602 61.7313 30.9378 62.447 30.9378 62.447L28.9611 67.7635C28.6203 68.3088 28.0069 68.6837 27.3253 68.786C26.5073 68.9223 25.2804 69.0927 24.8374 69.0927H23.7127C21.5316 69.0927 22.3836 66.3662 22.4858 66.2299C22.8607 65.6506 23.5764 65.2757 24.3603 65.1393C25.0419 65.0371 24.9055 65.3779 25.7235 64.7645C26.0984 64.4918 27.3934 63.0945 27.4275 62.2425C27.5297 58.8685 26.1665 56.8237 26.4392 49.3942C26.4392 49.3942 26.0302 48.2014 24.0195 46.2929C24.0195 46.2929 18.7711 43.6346 18.7711 33.0356C18.7711 33.0356 19.8957 34.8077 15.9424 25.606C14.9881 23.3908 13.7612 23.9701 13.7612 23.9701C13.7612 23.9701 12.0231 25.2311 10.6258 25.0266C10.0805 24.9585 9.94422 24.2087 10.4554 23.9361C11.6142 23.3567 13.3182 22.1298 12.398 19.9487" stroke="var(--stroke-0, #242424)" stroke-width="1.25" stroke-miterlimit="10" stroke-linecap="round" stroke-linejoin="round"/>
<path id="Vector_3" d="M71.0164 55.665L71.7662 62.5833C70.3689 67.2864 67.5743 66.7752 67.5743 66.7752C63.2461 66.9115 63.6209 65.7187 63.6209 65.7187C63.6209 62.9923 67.438 62.6855 67.438 62.6855C69.0057 55.5968 64.5752 53.3816 64.5752 53.3816C55.0327 46.4973 53.3968 40.2606 53.3968 40.2606" stroke="var(--stroke-0, #242424)" stroke-width="1.25" stroke-miterlimit="10" stroke-linecap="round" stroke-linejoin="round"/>
<path id="Vector_4" d="M26.371 49.4282C26.3369 49.7349 26.78 57.6757 26.8481 58.0165C27.3593 59.925 27.3593 62.2766 27.3593 62.2766C27.0526 63.1967 25.8598 65.0371 24.2921 65.1734C21.293 65.412 22.8948 66.5707 21.4975 66.4344H20.3728C18.1917 66.4344 19.0437 63.7079 19.1459 63.5716C19.5208 62.9922 20.2365 62.6174 21.0204 62.481C21.702 62.3788 21.9405 62.89 22.8266 62.4129C23.5764 62.0039 24.0535 61.2201 24.0535 60.3681C24.1558 56.9941 24.5988 49.4964 22.4177 45.1341" stroke="var(--stroke-0, #242424)" stroke-width="1.25" stroke-miterlimit="10" stroke-linecap="round" stroke-linejoin="round"/>
<path id="Vector_5" d="M12.9433 10.3379C12.9433 10.3379 14.5451 8.83841 14.0679 14.5639C14.0339 15.0411 13.9998 15.5523 14.0339 16.0294L14.1361 18.4491C14.1361 18.4491 13.8635 24.0724 18.1235 18.4491L21.5997 14.5639C21.5997 14.5639 22.6221 13.6438 20.884 11.224" stroke="var(--stroke-0, #242424)" stroke-width="1.25" stroke-miterlimit="10" stroke-linecap="round" stroke-linejoin="round"/>
<path id="Vector_6" d="M0.946977 17.7334C0.844735 17.2222 1.28778 16.711 1.96939 16.5747C2.651 16.4384 3.40077 16.6428 3.50301 17.12C3.60525 17.6312 2.54876 19.1648 1.90123 19.3011C1.2537 19.4374 1.04922 18.2446 0.946977 17.7334Z" fill="var(--fill-0, #242424)"/>
<path id="Vector_7" d="M10.7976 13.9103C10.8288 13.4596 10.4431 13.0659 9.93611 13.0308C9.42913 12.9957 8.99286 13.3326 8.96168 13.7832C8.9305 14.2339 9.31621 14.6276 9.82318 14.6627C10.3302 14.6978 10.7664 14.3609 10.7976 13.9103Z" fill="var(--fill-0, #242424)"/>
<path id="Vector_8" d="M10.0465 24.8222C10.5577 26.5943 9.43301 27.719 8.7514 27.8894C8.0698 28.0598 7.42227 27.3441 7.45635 26.4921C7.45635 26.4921 7.42227 23.0159 12.2276 20.9711" stroke="var(--stroke-0, #242424)" stroke-width="1.25" stroke-miterlimit="10" stroke-linecap="round" stroke-linejoin="round"/>
</g>
</svg>
