<svg preserveAspectRatio="none" width="100%" height="100%" overflow="visible" style="display: block;" viewBox="0 0 78.5755 81.2498" fill="none" xmlns="http://www.w3.org/2000/svg">
<g id="art">
<path id="Vector" d="M23.8434 60.0203L23.392 68.3395C23.3597 68.662 23.4242 68.9844 23.5854 69.2424C24.3593 70.6289 23.3275 71.3383 23.3275 71.3383L21.3283 76.6588C20.9736 77.2069 20.3932 77.5616 19.6838 77.6906C18.8777 77.8518 17.6523 77.9808 17.2009 77.9808H16.1046C15.0727 77.9808 14.2989 77.1102 14.6213 76.2718C14.6858 76.1106 14.7825 75.9494 14.847 75.8204C15.234 75.24 15.9434 74.853 16.7172 74.7563C17.3944 74.6596 17.6523 75.1755 18.523 74.6918C19.2646 74.2726 19.7483 73.4987 19.7805 72.6281C19.8773 69.2424 18.0393 54.2807 16.6205 47.2835" stroke="var(--stroke-0, #242424)" stroke-width="1.25" stroke-miterlimit="10" stroke-linecap="round" stroke-linejoin="round"/>
<path id="Vector_2" d="M1.85217 18.908C0.207671 17.9406 0.691347 16.9088 0.691347 16.9088C0.465632 15.5867 3.07748 15.5867 3.07748 15.5867C7.75302 15.0385 8.20445 13.523 8.20445 13.523C8.20445 11.2336 9.94568 10.9112 9.94568 10.9112L14.4277 9.46015L16.7171 8.71851C16.7171 8.71851 16.5559 3.72053 19.3612 0.625C19.3612 0.625 21.8119 3.07563 22.2633 7.1385C22.2633 7.1385 22.489 11.4271 21.8119 14.6194C21.8119 14.6194 27.4547 20.9071 28.2609 23.7125C28.2609 23.7125 30.8082 28.7427 35.387 28.9684C39.7079 28.7105 55.8627 26.8402 60.5059 32.8056C62.8921 35.095 68.6317 49.1538 72.7591 53.3134C73.3395 53.8938 73.9844 54.3775 74.726 54.6677C75.6611 55.0547 77.1766 55.5706 77.9505 55.2804C77.9505 55.2804 76.7575 57.8922 73.4685 56.6992C69.8893 56.6024 64.3431 48.5412 59.0549 36.8362" stroke="var(--stroke-0, #242424)" stroke-width="1.25" stroke-miterlimit="10" stroke-linecap="round" stroke-linejoin="round"/>
<path id="Vector_3" d="M2.626 20.2622C2.94845 21.6487 2.626 24.3573 7.5595 24.583C12.2995 24.5508 16.1044 19.4238 15.1371 23.4222C15.1371 23.4222 14.9436 25.9051 12.2028 25.9051H9.75216" stroke="var(--stroke-0, #242424)" stroke-width="1.25" stroke-miterlimit="10" stroke-linecap="round" stroke-linejoin="round"/>
<path id="Vector_4" d="M47.9951 43.543C46.2216 43.5108 43.513 44.7038 42.2877 45.8647C41.0302 47.09 39.6114 48.1218 37.9669 48.7345L32.066 51.0239C32.066 52.6361 31.2921 53.9582 30.3248 55.1835L29.5509 70.9513C29.5187 71.2738 29.5832 71.5962 29.7444 71.8542C30.5183 73.2407 29.4864 73.9501 29.4864 73.9501L27.5195 79.3028C27.1648 79.851 26.5844 80.2057 25.875 80.3346C25.0688 80.4959 23.8435 80.6248 23.3921 80.6248H22.2958C21.2639 80.6248 20.49 79.7542 20.8125 78.9159C20.877 78.7546 20.9737 78.5934 21.0382 78.4644C21.4252 77.884 22.1345 77.4971 22.9084 77.4003C23.5856 77.3036 23.8435 77.8195 24.7141 77.3358C25.4558 76.9167 25.9395 76.1428 25.9717 75.2722C26.0684 72.1121 23.779 60.3105 22.8439 53.1198C22.7472 52.3137 22.2635 51.6043 21.5541 51.1851C19.168 49.8308 13.8476 46.1549 14.557 40.8022L15.5566 32.6119C15.9757 31.0642 15.9757 30.1291 15.8145 29.3229C15.621 28.4201 14.9117 27.7429 13.9765 27.5817C12.0741 27.2593 9.13979 27.5172 7.91447 27.227" stroke="var(--stroke-0, #242424)" stroke-width="1.25" stroke-miterlimit="10" stroke-linecap="round" stroke-linejoin="round"/>
<path id="Vector_5" d="M62.3119 43.3818C58.9906 47.7026 65.3429 55.3125 65.3429 55.3125C68.0515 57.1827 67.8903 59.7623 67.8903 59.7623L67.3099 74.9175C65.9233 79.6252 63.118 79.1093 63.118 79.1093C58.7972 79.2383 59.1841 78.0452 59.1841 78.0452C59.1841 75.3367 62.989 75.0142 62.989 75.0142C66.0201 65.115 62.5376 57.5696 62.5376 57.5696C50.3812 52.3137 47.1245 41.834 47.6726 39.5446" stroke="var(--stroke-0, #242424)" stroke-width="1.25" stroke-miterlimit="10" stroke-linecap="round" stroke-linejoin="round"/>
<path id="Vector_6" d="M13.4282 8.97626C12.7833 5.81624 13.4282 1.78561 13.4282 1.78561C13.525 1.78561 14.5246 2.7852 16.3625 8.7183" stroke="var(--stroke-0, #242424)" stroke-width="1.25" stroke-miterlimit="10" stroke-linecap="round" stroke-linejoin="round"/>
<path id="Vector_7" d="M41.0298 46.9611C41.0298 46.9611 42.9645 52.0236 52.9605 58.0212C52.9605 58.0212 56.2173 65.0506 53.3797 74.2082C53.3797 74.2082 49.8327 74.4984 49.8327 77.0135C49.8327 77.0135 49.478 78.1098 53.5087 77.9808C53.5087 77.9808 56.1205 78.4645 57.4103 74.0792L57.9262 60.0203C57.9262 60.0203 58.0552 58.1179 56.314 56.4734C55.7981 55.9897 55.4434 55.3771 55.2499 54.6999C54.9919 53.7971 55.1532 53.9583 54.5405 52.475" stroke="var(--stroke-0, #242424)" stroke-width="1.25" stroke-miterlimit="10" stroke-linecap="round" stroke-linejoin="round"/>
<path id="Vector_8" d="M0.69155 17.1344C0.530324 16.425 1.20747 15.6834 2.14258 15.4899C3.07768 15.2964 4.20626 15.5866 4.33524 16.296C4.49647 17.0054 2.98095 19.2303 2.04584 19.4238C1.11074 19.6173 0.852775 17.8438 0.69155 17.1344Z" fill="var(--fill-0, #242424)"/>
<path id="Vector_9" d="M13.1313 14.5351C13.1768 13.8778 12.6231 13.3041 11.8947 13.2537C11.1664 13.2033 10.539 13.6953 10.4935 14.3526C10.448 15.01 11.0016 15.5837 11.73 15.6341C12.4584 15.6845 13.0858 15.1925 13.1313 14.5351Z" fill="var(--fill-0, #242424)"/>
<path id="Vector_10" d="M19.2002 11.6525C19.2002 11.6525 20.6512 5.84843 18.4908 2.94637" stroke="var(--stroke-0, #242424)" stroke-width="1.25" stroke-miterlimit="10" stroke-linecap="round" stroke-linejoin="round"/>
<path id="Vector_11" d="M15.2018 9.20184C15.2018 9.20184 13.783 5.39693 13.2026 3.5912" stroke="var(--stroke-0, #242424)" stroke-width="1.25" stroke-miterlimit="10" stroke-linecap="round" stroke-linejoin="round"/>
<path id="Vector_12" d="M1.46543 19.2303C1.46543 19.2303 0.0144053 25.0344 4.27075 23.7124" stroke="var(--stroke-0, #242424)" stroke-width="1.25" stroke-miterlimit="10" stroke-linecap="round" stroke-linejoin="round"/>
<path id="Vector_13" d="M14.9761 19.8429C14.9761 19.8429 17.2655 19.6494 17.201 21.7454" stroke="var(--stroke-0, #242424)" stroke-width="1.25" stroke-miterlimit="10" stroke-linecap="round" stroke-linejoin="round"/>
<path id="Vector_14" d="M5.27012 24.1962C5.27012 24.1962 3.91583 25.1958 3.52889 26.1309C3.30318 26.937 4.07706 29.2264 6.85013 27.8399C6.85013 27.8399 11.5902 23.5835 14.8147 23.9382" stroke="var(--stroke-0, #242424)" stroke-width="1.25" stroke-miterlimit="10" stroke-linecap="round" stroke-linejoin="round"/>
</g>
</svg>
