<svg preserveAspectRatio="none" width="100%" height="100%" overflow="visible" style="display: block;" viewBox="0 0 13.3333 13.3333" fill="none" xmlns="http://www.w3.org/2000/svg">
<g id="icon">
<path fill-rule="evenodd" clip-rule="evenodd" d="M3.33333 0C4.88655 0 6.19183 1.06229 6.56185 2.5H13.3333V4.16667H6.56185C6.19183 5.60438 4.88655 6.66667 3.33333 6.66667C1.49238 6.66667 0 5.17428 0 3.33333C0 1.49238 1.49238 0 3.33333 0ZM3.33333 1.66667C2.41286 1.66667 1.66667 2.41286 1.66667 3.33333C1.66667 4.25381 2.41286 5 3.33333 5C4.25381 5 5 4.25381 5 3.33333C5 2.41286 4.25381 1.66667 3.33333 1.66667Z" fill="var(--fill-0, #232323)"/>
<path fill-rule="evenodd" clip-rule="evenodd" d="M10 6.66667C8.44678 6.66667 7.1415 7.72895 6.77148 9.16667H0V10.8333H6.77148C7.1415 12.271 8.44678 13.3333 10 13.3333C11.8409 13.3333 13.3333 11.841 13.3333 10C13.3333 8.15905 11.8409 6.66667 10 6.66667ZM10 8.33333C10.9205 8.33333 11.6667 9.07953 11.6667 10C11.6667 10.9205 10.9205 11.6667 10 11.6667C9.07952 11.6667 8.33333 10.9205 8.33333 10C8.33333 9.07953 9.07952 8.33333 10 8.33333Z" fill="var(--fill-0, #232323)"/>
</g>
</svg>
