<svg width="40" height="40" viewBox="0 0 40 40" fill="none" xmlns="http://www.w3.org/2000/svg">

<path d="M30.2453 2.29075C30.4144 2.27702 30.5838 2.26587 30.7533 2.25742C32.3769 2.17724 33.5802 2.74955 34.7795 3.84068L34.8501 3.82818C36.6989 3.50103 39.3908 2.47263 39.7946 5.10062C40.9733 10.0159 35.8271 10.5259 34.6018 13.0189C32.4612 17.3742 33.5887 21.0545 30.1914 25.3216C29.9627 28.2639 29.7299 31.9265 29.6948 34.8442L29.8078 34.8995C31.1306 35.5526 32.5136 37.6329 30.2229 38.2569C29.4952 38.3068 28.6178 38.3821 27.9049 38.4C26.7375 38.4295 22.7843 39.243 22.5977 37.3775C22.2806 34.2072 21.9546 31.0184 21.666 27.8505C20.6561 27.6859 19.4283 27.5601 18.3978 27.4229C16.2063 29.9886 14.2198 30.444 11.0171 29.9502C10.1164 30.808 9.32418 31.524 8.90074 32.7533C8.73599 33.2315 8.58801 34.3079 8.81594 34.7561C9.45526 35.0927 10.0833 35.4677 10.4036 36.1498C10.5708 36.5059 10.6693 36.9346 10.5096 37.3101C10.3426 37.7029 9.95809 37.9574 9.57384 38.1065C8.73486 38.432 2.55644 38.8065 1.92332 38.3483C1.66183 38.159 1.47399 37.5888 1.38469 37.2809C1.04718 36.1174 0.692326 32.1351 0.849199 30.9537C1.03693 29.5397 2.46984 28.7483 2.85375 27.4353C3.71672 24.4836 2.35284 22.4272 4.06313 19.2729C2.63415 18.4079 1.45473 17.2801 0.567544 15.8572C-0.103757 14.7808 -0.373017 11.8151 0.863049 11.1068C2.1972 10.8816 2.60487 13.3932 4.06842 14.4715C5.52949 15.5478 5.56744 15.5646 7.32875 16.0797C10.8494 14.8511 15.4938 15.9121 19.1968 15.6366C21.1763 15.4892 22.4088 14.7572 23.6657 13.2745C22.2032 10.6349 24.1849 7.83988 25.5096 5.54083C26.6237 3.60745 28.1135 2.7759 30.2453 2.29075Z" fill="#262525"/>
<path d="M23.9917 11.6638C24.4417 8.51217 27.4251 2.7171 31.3929 3.2224C32.6116 3.37759 33.5276 4.50633 34.7395 4.68843C35.8587 4.92695 37.8779 4.08527 38.4809 4.51196C38.8963 5.35827 38.8941 6.64952 38.6296 7.54751C37.9531 9.84385 35.076 10.1796 33.9683 12.0326C31.2366 16.6026 32.8969 23.5754 27.1994 26.1317C26.7326 26.3412 26.3029 26.5298 25.8107 26.7106C25.9762 29.437 25.4592 32.4615 25.438 35.2087C25.4321 35.9824 27.0798 36.1895 27.2279 37.1024C26.7877 37.8579 24.5532 37.603 23.7092 37.5917C23.3288 34.6359 23.1803 31.6694 22.7776 28.7162C22.7061 28.1916 22.7061 27.4855 22.6936 26.9457C21.4738 26.7697 20.252 26.6087 19.0283 26.4627C19.7336 24.2336 19.951 22.4259 18.8585 20.1896C18.1689 18.7783 16.578 17.4311 15.0762 16.9561C15.3903 16.6414 15.4756 16.7217 15.9952 16.6399C19.5642 16.719 22.0561 16.9905 24.4499 13.8667C26.2754 14.4452 28.2014 14.2822 28.8695 12.2678C29.2046 11.2578 29.0493 7.62398 28.587 6.73296C28.276 6.6012 28.411 6.61945 28.0368 6.73263C27.2392 7.80427 29.1274 12.735 26.6627 13.1764C25.3293 13.4152 24.527 12.7412 23.9917 11.6638Z" fill="white"/>
<path d="M32.8721 6.12109C33.4274 6.24981 33.2613 6.14148 33.621 6.48361C33.7517 7.42575 32.6348 7.89377 31.887 8.10639C31.4845 7.86798 31.3002 7.78825 31.0146 7.40299L31.0759 7.21966C32.1799 6.96976 32.3291 7.154 32.8721 6.12109Z" fill="#050605"/>
<path d="M12.0828 17.8545C15.1351 17.3605 18.016 19.4164 18.5416 22.4634C19.067 25.5106 17.0411 28.4126 13.9996 28.9695C12.004 29.335 9.96581 28.6004 8.66218 27.0459C7.35854 25.4913 6.9904 23.3563 7.69796 21.4549C8.40564 19.5534 10.0799 18.1786 12.0828 17.8545Z" fill="white"/>
<path d="M11.6974 20.6679C12.7004 19.8087 12.7993 20.5992 13.5322 20.1846C14.016 19.9109 14.4194 18.9918 15.1925 19.008L15.3627 19.217C15.2826 19.7184 14.929 19.8826 14.6506 20.2427C13.5071 21.7219 13.1646 20.5459 11.9045 21.5927C12.3449 22.3096 12.5404 22.3676 13.3213 22.7121C13.5004 23.1377 13.5699 23.424 13.9373 23.6937L14.2123 23.7464C14.8813 23.193 15.3027 19.8067 16.9312 20.4628C17.1387 21.1019 15.9706 21.6065 15.7767 22.1249C15.261 23.5043 15.8192 24.2423 14.0289 24.5928C13.3281 25.4068 14.2706 26.9059 12.0022 26.5296C11.8068 26.3741 11.4166 26.3402 11.1037 26.175C11.2926 25.9892 11.3728 25.9476 11.5909 25.8113C12.195 25.7893 12.5734 25.7672 13.0522 25.3746C13.3245 24.5906 12.414 24.5435 11.8727 24.3417C11.6054 24.0437 11.6004 23.8874 11.5405 23.5023L11.5216 23.3756C11.1746 23.0666 11.2594 23.1603 10.7476 23.0422C10.18 23.7875 10.331 23.9869 10.5167 24.8737C9.99406 25.5074 9.70925 25.9973 8.90472 26.2077L8.74121 26.0313C8.83705 25.4337 9.19381 25.1618 9.61848 24.7287C9.59517 23.7695 9.47794 23.0489 10.3424 22.4403C10.6497 22.378 10.8835 22.3256 11.1842 22.2376C11.4063 21.9942 11.4051 21.2187 11.6974 20.6679Z" fill="#050605"/>
<path d="M12.0036 26.5265C11.493 26.706 11.4433 27.5212 10.5641 27.6791L10.3652 27.529C10.3425 26.9507 10.7193 26.6399 11.105 26.1719C11.418 26.3371 11.8082 26.371 12.0036 26.5265Z" fill="#262525"/>
<path d="M6.31284 17.9766C6.98482 18.0856 7.3997 18.3641 8.36053 18.4685C5.88434 21.5023 5.4287 25.2066 8.27461 28.1974C4.66776 32.0577 4.40266 29.8335 4.19241 35.893C5.00256 36.1151 5.12205 36.0718 5.80078 36.5513C5.99594 36.8966 6.06914 36.9901 5.86903 37.3431C5.09457 37.8095 3.34791 37.5939 2.38347 37.541C2.10846 36.404 1.8838 32.1775 1.83008 30.867C2.27694 30.1159 3.04835 29.3331 3.43991 28.5998C5.43152 24.8702 2.45802 21.3149 6.31284 17.9766Z" fill="white"/>
<path d="M28.935 26.4727C29.1763 26.8189 28.5984 34.4816 28.5957 35.6231C29.3578 35.9293 29.8241 36.0275 30.2766 36.7134C30.2745 37.5522 29.0848 37.3239 28.4605 37.3008C28.1892 37.1632 28.0171 36.2318 27.7606 35.6595C27.4188 35.4614 26.9324 35.2737 26.5603 35.1152C26.5149 33.1819 26.7536 29.3207 26.915 27.3611L28.935 26.4727Z" fill="white"/>
<path d="M9.0317 28.8828C9.33092 29.011 9.45546 29.1142 9.72338 29.304C10.0232 30.0272 8.75578 30.4306 8.38404 31.2512C7.79878 32.5431 7.73087 34.0808 7.62851 35.4705C8.15679 35.7018 9.92001 36.3521 9.43002 37.1219C9.02359 37.3598 8.63788 37.2899 8.14992 37.2767C6.54121 37.2875 7.21059 36.5011 6.17858 35.52C5.98759 35.3385 5.49985 35.127 5.24219 35.0113C5.35266 30.5445 6.29773 31.9103 9.0317 28.8828Z" fill="white"/>
<path d="M1.07513 12.4766C1.49879 12.7447 2.4014 14.2794 2.87483 14.7808C3.83645 15.7993 4.80371 16.2841 6.04214 16.8805C5.67062 17.1753 5.45327 17.4252 5.13389 17.7728L4.83017 18.1291C3.1834 18.5373 0.435924 14.5342 1.07513 12.4766Z" fill="white"/>
<path d="M9.1808 17.8421C8.82303 17.501 8.68338 17.4822 8.57324 17.0623L8.73935 16.8357C9.38677 16.4904 10.9561 16.4535 11.7471 16.3906L11.9551 16.7838C10.683 17.0262 10.2927 17.1772 9.1808 17.8421Z" fill="white"/>
<path d="M11.7471 16.3906C13.1657 16.4303 14.5826 16.5143 15.9958 16.6425C15.4762 16.7244 15.3909 16.6441 15.0768 16.9588C13.9055 16.7137 13.1433 16.6815 11.9551 16.7838L11.7471 16.3906Z" fill="#D8D4D0"/>
<path d="M10.4658 2C11.4356 2.58143 11.0975 4.01536 11.9169 4.99669C12.5641 5.77182 14.0566 5.97678 14.4193 6.53265L14.3459 6.75631C13.8597 7.17985 13.2779 7.30058 12.7057 7.58099C11.5065 8.16885 11.195 9.86528 10.7554 11.0601C10.6109 11.0242 10.4531 10.949 10.3127 10.8903C10.0825 10.6209 9.59137 9.13644 9.49644 8.72933C9.15746 7.27524 7.00291 7.4775 6.6377 6.53322C7.00775 6.151 8.88719 5.43477 9.2917 4.91617C9.94059 4.08417 9.74576 2.78065 10.4658 2Z" fill="#262525"/>
<path d="M10.5227 4.80859C11.2418 5.48755 11.2247 5.84308 12.2834 6.62542C11.535 7.16372 11.0534 7.47127 10.6228 8.28346C10.2465 8.02658 9.8141 7.29368 8.86914 6.66765C9.70959 6.02687 10.0013 5.72472 10.5227 4.80859Z" fill="white"/>
</svg>
