<svg width="40" height="40" viewBox="0 0 40 40" fill="none" xmlns="http://www.w3.org/2000/svg">

<path d="M30.3418 4.02403C31.8575 3.87534 33.6383 4.41656 34.5879 5.65304C35.0694 6.2807 35.0568 6.61825 35.8421 7.01537C36.7896 7.49483 38.361 7.15531 39.1111 7.88582C39.1556 7.92882 39.1965 7.97507 39.2338 8.02407C39.7033 8.63529 39.5588 9.76236 39.4495 10.4911C39.1943 12.0911 38.0135 13.387 36.4442 13.7901C35.797 13.9609 34.7162 14.0324 34.2517 14.4427C33.0532 15.5001 33.1688 18.7044 32.9347 20.2534C32.535 22.8986 31.6601 24.1097 29.6213 25.6821C29.3752 27.9457 29.2667 30.5591 29.1405 32.8405C30.3369 33.1985 31.5494 34.0528 31.0341 35.631C30.7902 36.3772 29.2512 36.3245 28.6019 36.2869C27.7009 36.2346 26.4601 36.4746 25.6212 36.0397C24.6285 35.526 24.7935 34.1823 24.673 33.2547C24.5214 31.8284 24.3684 30.3825 24.2056 28.9559C24.1365 28.4129 24.1294 27.5086 23.999 27.0239C23.7092 26.835 23.6049 26.8071 23.5675 26.4525C23.7283 26.0303 24.183 25.7826 24.5841 25.9724C25.1742 26.2516 25.122 27.8838 25.182 28.492C25.3462 30.0319 25.5013 31.5727 25.6473 33.1144C25.815 34.9282 25.5422 35.4628 27.7319 35.3148C28.3932 35.2701 29.5064 35.4283 30.0979 35.1695C30.5822 34.0564 28.8218 33.9674 28.2522 33.4893C28.1831 33.3363 28.1133 33.1218 28.1316 32.922C28.3636 30.4324 28.3354 27.8387 28.6695 25.3693C28.697 25.1665 29.5353 24.4956 29.7228 24.3396C32.0824 22.3827 31.9287 20.1757 32.2269 17.3882C32.3073 16.2833 32.8177 13.7821 34.0705 13.397C36.423 12.674 38.2771 12.8341 38.5436 9.67522C38.6409 8.52898 38.4358 8.36993 37.214 8.26729C35.3077 8.10704 34.6443 7.67115 33.6341 6.08351C32.4363 4.524 28.8091 4.75771 27.5113 6.14428C26.8175 6.88516 26.1718 7.82498 25.6719 8.72849C25.1679 9.59528 24.2697 11.319 24.2112 12.3067C24.1111 14.0066 27.0988 14.6965 28.0915 13.424C28.9833 12.2812 27.746 8.82938 28.5011 7.98762C29.4598 7.77105 29.3146 10.5593 29.3851 11.1864C29.7792 14.6946 27.2145 15.9304 24.3198 14.3913L23.8939 14.7344C21.1367 16.593 16.8061 16.3398 13.5617 16.5446C11.2993 16.6874 10.5129 16.5325 8.40759 17.5593C6.47669 17.4927 4.10969 16.6966 2.68286 15.3103C2.37668 15.0128 1.578 13.9119 1.36284 13.7532C1.21676 13.8482 1.16029 13.9414 1.1058 14.1091C0.912138 14.7057 1.01168 15.3789 1.23446 15.9515C2.44648 19.0681 6.32103 19.1949 6.67818 19.8347C6.7503 20.5375 6.39971 21.4491 6.43164 22.1352C6.53238 23.9678 6.92239 25.6869 5.67991 27.2659C5.27736 27.7775 4.16059 28.8 4.18646 29.4507C4.25597 31.2141 4.29115 33.035 4.4791 34.7861C4.54495 35.3996 5.94294 35.3406 6.3775 35.3112C7.13649 35.2598 7.92671 35.36 8.66505 35.2683C8.76064 35.2564 8.77707 35.143 8.81105 35.0634C8.72067 33.5678 6.75467 34.0273 6.74113 33.3581C6.79358 32.1871 6.82834 29.8916 7.77521 29.0837C8.54365 28.428 9.5582 27.8351 10.3932 27.2516C10.6072 27.1021 11.0728 27.2957 11.1661 27.6575C10.9426 28.4318 8.5605 29.3122 8.19299 30.1961C7.8701 30.9728 7.824 32.0703 7.73087 32.883C8.35154 33.0206 8.82896 33.2439 9.25569 33.7297C9.59754 34.119 9.8954 34.7533 9.84569 35.2828C9.8182 35.5759 9.67192 35.8148 9.43581 35.9875C9.21967 36.1456 8.98117 36.2337 8.7175 36.2731C8.28125 36.3384 5.22103 36.33 4.87115 36.2719C4.40416 36.1942 3.96686 35.9481 3.6996 35.5508C3.23769 34.8644 3.00208 29.4196 3.35239 28.6154C3.88388 27.3952 5.1095 26.8753 5.45699 25.4267C5.68837 24.4618 5.48181 23.4392 5.45248 22.4621C5.43105 21.7503 5.51072 21.0918 5.64079 20.3928C4.05477 19.9428 2.57006 19.3465 1.35184 18.026C0.228791 16.8085 -0.726399 14.2953 0.769307 12.9065C0.966422 12.7235 1.25406 12.7 1.52075 12.7286C2.16187 12.7975 2.31676 13.4412 2.68392 13.8696C4.21311 15.7446 5.94661 16.2419 8.19821 16.5563C10.0181 15.6115 11.3528 15.6853 13.3423 15.5786C16.075 15.432 19.2509 15.4648 21.8833 14.6653C22.4882 14.4816 23.1037 14.0832 23.6176 13.7411C23.4822 13.488 23.2545 12.9476 23.2432 12.6583C23.1608 10.5993 25.1693 7.58465 26.3064 5.96345C27.175 4.72514 28.9487 4.16827 30.3418 4.02403Z" fill="#232223"/>
<path d="M16.421 17.3361C19.8493 16.9935 22.9063 19.4948 23.2491 22.923C23.591 26.3513 21.0892 29.4079 17.6612 29.7501C14.2332 30.0921 11.1764 27.5911 10.8341 24.1632C10.4917 20.7353 12.9932 17.6789 16.421 17.3361ZM22.2667 23.0538C21.9896 20.1442 19.3921 18.0195 16.4854 18.3244C13.6173 18.6251 11.5264 21.18 11.7999 24.0509C12.0735 26.9218 14.6093 29.0364 17.4825 28.7902C20.3949 28.5405 22.5436 25.9634 22.2667 23.0538Z" fill="#232223"/>
<path d="M16.9156 18.9922C17.134 19.0226 17.1622 19.0436 17.362 19.1245C17.5143 19.2964 17.4955 19.4263 17.5175 19.6628L17.5259 19.76C17.7771 19.9486 18.2293 19.7785 18.5541 19.9286C19.6602 20.44 19.4572 21.9462 18.348 22.3171C17.6401 22.5537 15.1145 21.9244 14.8679 22.6791C15.2576 23.6997 20.2538 21.7703 20.3215 24.2393C20.3835 26.4941 16.0903 25.0351 15.5178 25.7631C15.7847 26.5622 16.7961 25.8805 17.2934 26.3417C17.5536 26.583 17.5128 27.1301 17.4965 27.4492C17.4856 27.6629 17.2842 27.796 17.1134 27.9326C16.879 27.8475 16.7943 27.8409 16.6451 27.6406C16.6259 27.5356 16.5881 27.2994 16.5272 27.2263C16.2133 26.8487 14.8198 27.01 14.665 26.4085C13.8515 23.2451 18.9291 25.3127 19.3211 24.2723C19.0878 23.6849 18.4208 23.9905 17.8742 23.933C16.6914 23.8085 13.9526 24.5982 13.904 22.6918C13.8471 20.4628 17.4875 21.8948 18.3566 21.1208L18.3439 21.0061C17.7084 20.4086 17.1851 21.1111 16.7065 20.4654C16.3558 19.9923 16.4809 19.3517 16.9156 18.9922Z" fill="#232223"/>
<path d="M11.6211 5.74739C11.8515 5.7414 12.1411 5.74783 12.2383 5.9554C12.6288 6.78972 12.5553 7.9961 13.3223 8.65169C13.8454 9.09865 14.7177 9.21128 15.2959 9.55208C15.4846 9.66338 15.503 9.79678 15.5254 9.97883C15.3089 10.3912 13.9854 10.5858 13.376 11.0892C12.4062 11.8904 12.6113 13.3536 12.1465 13.9466C11.9705 13.9499 11.6471 13.9596 11.5625 13.8138C11.1802 13.1537 11.1882 12.2268 10.749 11.5374C10.1769 10.6398 9.23467 10.6668 8.43066 10.1292C8.27169 10.023 8.2653 9.90221 8.25 9.75325C8.56872 9.17407 9.76041 9.27171 10.459 8.5804C11.3272 7.72115 11.1834 6.24744 11.6211 5.74739ZM11.8301 8.12532C11.4207 8.98095 11.1043 9.41528 10.2334 9.8968C11.0713 10.3893 11.3678 10.6942 11.8223 11.599L11.9111 11.6175C12.3905 10.7445 12.6353 10.3743 13.5732 9.90754C12.8326 9.52022 12.6509 9.33008 12.168 8.6136C12.059 8.45192 11.9688 8.24685 11.8301 8.12532Z" fill="#232223"/>
<path d="M32.9747 8.28906C33.2757 8.30034 33.3293 8.30288 33.5288 8.51156C33.6896 8.98052 33.3773 9.31496 32.9959 9.5543C32.4904 9.87169 32.0462 9.79196 31.49 9.66118C31.146 9.46992 30.5918 9.04925 31.0621 8.67272C31.4794 8.58756 31.9341 8.71192 32.3628 8.7937C32.582 8.71544 32.7999 8.46087 32.9747 8.28906Z" fill="#232223"/>
</svg>
