<svg width="40" height="40" viewBox="0 0 40 40" fill="none" xmlns="http://www.w3.org/2000/svg">
<g clip-path="url(#clip0_10052_41171)">

<path d="M20.1768 11.749C20.5077 11.713 21.0454 11.7208 21.374 11.7422C22.2244 11.796 23.0633 11.9603 23.8701 12.2305L24.2139 12.3525L24.624 12.5186C25.0352 12.6952 25.4458 12.9018 25.8213 13.1279C25.9754 13.2209 26.1573 13.3624 26.335 13.4961C26.5147 13.6314 26.6896 13.7594 26.835 13.8311C28.4314 14.6184 30.0481 15.1655 31.2891 16.5459C32.5793 17.9216 32.6073 19.801 32.5107 21.5527C32.4918 21.8955 32.422 22.4933 32.2373 22.9922C32.1451 23.2413 32.023 23.4702 31.8604 23.6299C31.696 23.7911 31.4898 23.8816 31.2373 23.8506L31.2256 23.8496L31.2158 23.8428C31.154 23.8029 31.1131 23.78 31.084 23.7627C31.0565 23.7464 31.0337 23.7321 31.0156 23.7119C30.9972 23.6912 30.9862 23.6662 30.9736 23.6367C30.9605 23.6058 30.9426 23.5638 30.9121 23.498L30.9082 23.4883V23.4785C30.9035 23.3098 30.9584 23.1893 31.0225 23.085C31.0523 23.0364 31.0893 22.9824 31.1172 22.9385C31.1472 22.8912 31.1739 22.8447 31.1924 22.7939C31.4078 22.2008 31.509 21.327 31.4951 20.457C31.4812 19.5868 31.3515 18.7284 31.1113 18.1641C30.7245 17.2548 29.9882 16.6307 29.1426 16.1279C28.7198 15.8766 28.2707 15.6557 27.8262 15.4453C27.3824 15.2353 26.9419 15.0347 26.5391 14.8242L26.5361 14.8232V14.8223C25.6483 14.2937 24.833 13.6885 23.873 13.3213C21.3986 12.3749 18.323 12.6379 16.1152 14.1289C15.8073 14.3368 15.3619 14.634 15.0303 14.7988C14.5309 15.047 14.0363 15.2632 13.5664 15.4814C13.0957 15.7 12.6476 15.9212 12.2354 16.1807C11.4134 16.6981 10.7336 17.3685 10.3057 18.4746L10.252 18.6982C10.1272 19.2833 10.0112 20.278 10.0615 21.2119C10.0903 21.7455 10.173 22.2559 10.3369 22.6572C10.5009 23.0587 10.743 23.3437 11.0859 23.4434C11.545 23.5768 11.9065 23.5937 12.1914 23.5244C12.4751 23.4554 12.6868 23.2997 12.8457 23.0811C13.1664 22.6398 13.2728 21.9405 13.3047 21.1748C13.3205 20.7935 13.318 20.3987 13.3154 20.0156C13.3129 19.633 13.3107 19.2608 13.3271 18.9277C13.3436 18.5954 13.3794 18.2978 13.4541 18.0635C13.5287 17.8296 13.6453 17.6498 13.8311 17.5684L13.8477 17.5605L13.8643 17.5654C14.0594 17.6179 14.1899 17.7305 14.2734 17.8779C14.356 18.0238 14.3913 18.202 14.4023 18.3857C14.4134 18.5698 14.401 18.7639 14.3838 18.9443C14.3664 19.1267 14.3446 19.2925 14.3379 19.4268C14.3155 19.8716 14.33 20.2911 14.3418 20.6943C14.3535 21.0968 14.3631 21.484 14.3301 21.8594C14.2643 22.6071 14.0289 23.3084 13.3174 24.0146C13.5242 25.6439 13.5888 26.9898 12.918 28.5576C12.8682 28.674 12.8257 28.7993 12.7822 28.9277C12.7389 29.0556 12.6946 29.1875 12.6426 29.3135C12.5387 29.5651 12.4006 29.8022 12.1641 29.959L12.1533 29.9658L12.1416 29.9668C12.0017 29.9835 11.8874 29.9737 11.7969 29.9385C11.7053 29.9027 11.641 29.8418 11.5996 29.7637C11.519 29.6112 11.5297 29.3984 11.5762 29.1816C11.6233 28.9621 11.7098 28.7255 11.7939 28.5186C11.8795 28.3082 11.9594 28.1346 12.001 28.0254C12.4626 26.8121 12.482 25.7758 12.3496 24.5088C12.2817 24.521 12.2139 24.5336 12.1455 24.543H12.1445C11.2525 24.6617 10.5059 24.3942 9.96777 23.8809C9.49757 23.4321 9.18863 22.798 9.0791 22.0762L9.04395 21.7617C8.93115 19.9498 8.97435 18.0069 10.2324 16.5352C10.9373 15.7106 11.8542 15.1838 12.8057 14.7139C13.7598 14.2427 14.7453 13.8299 15.6045 13.2314C16.945 12.2978 18.5811 11.9038 20.1768 11.749Z" fill="#1D1C1D" stroke="#1D1C1D" stroke-width="0.1"/>
<path d="M20.4043 0.983398C21.868 0.858614 23.6617 1.0884 25.3984 1.53516C27.2512 2.01178 29.0451 2.73715 30.3115 3.5498C30.4455 3.63588 30.5078 3.78625 30.5049 3.93652C30.5019 4.0869 30.434 4.24299 30.3018 4.3457C30.0893 4.51045 29.8611 4.47016 29.6514 4.38184C29.5468 4.3378 29.4428 4.28045 29.3447 4.22754C29.2454 4.17398 29.1522 4.12525 29.0645 4.09473L29.0586 4.0918C22.3564 0.77195 14.8265 1.5555 8.87207 6.77734C7.10272 8.51051 5.69423 10.3001 4.73242 12.5938C4.67871 12.7218 4.62014 12.8916 4.54785 13.0771C4.47656 13.2602 4.39303 13.4543 4.29297 13.6221C4.19332 13.7891 4.07382 13.9356 3.92773 14.0156C3.77817 14.0975 3.60546 14.1074 3.41113 14.0117L3.40137 14.0068L3.39453 13.998C3.21093 13.7705 3.19927 13.5265 3.25488 13.2871C3.30945 13.0523 3.43184 12.8116 3.52148 12.5938C4.30972 10.6816 5.4092 8.9131 6.77441 7.35938C10.2859 3.35376 14.8771 1.36577 20.1162 1.01367L20.4043 0.983398Z" fill="#1D1C1D" stroke="#1D1C1D" stroke-width="0.1"/>
<path d="M5.05566 29.4746C5.10057 29.4823 5.1997 29.4988 5.29297 29.5205C5.3395 29.5313 5.38591 29.5435 5.42383 29.5566C5.44277 29.5632 5.46132 29.5703 5.47656 29.5781C5.49053 29.5853 5.50766 29.5965 5.51953 29.6113H5.51855C5.68426 29.8175 5.872 30.0956 6.05371 30.375C6.23611 30.6554 6.41299 30.9368 6.56055 31.1514C9.91044 36.0212 15.6571 38.7732 21.5264 38.584H21.5273C22.5154 38.5592 23.4989 38.4461 24.4668 38.2461C24.6054 38.2169 24.7947 38.1563 25.0088 38.0928C25.2211 38.0298 25.4554 37.9647 25.6768 37.9326C25.8969 37.9007 26.1119 37.9001 26.2822 37.9697C26.4574 38.0414 26.5801 38.1855 26.6152 38.4268L26.6172 38.4404L26.6123 38.4531C26.5685 38.5639 26.5461 38.6303 26.5098 38.6865C26.4721 38.7448 26.4194 38.7928 26.3213 38.875L26.3135 38.8809L26.3047 38.8838C25.0468 39.2952 23.4856 39.5693 22.1836 39.6514C17.3598 39.9667 12.6063 38.4103 8.9082 35.3154L8.55371 35.0107C8.097 34.6063 7.20861 33.7195 6.39453 32.7529C5.98747 32.2696 5.5987 31.7652 5.29102 31.291C4.98412 30.818 4.7555 30.3705 4.67383 30.001C4.66202 29.9475 4.67368 29.894 4.69531 29.8457C4.71694 29.7974 4.7497 29.7504 4.78613 29.707C4.85883 29.6206 4.95214 29.5408 5.01367 29.4863L5.03125 29.4697L5.05566 29.4746Z" fill="#1D1C1D" stroke="#1D1C1D" stroke-width="0.1"/>
<mask id="path-4-outside-1_10052_41171" maskUnits="userSpaceOnUse" x="15.0566" y="21.0508" width="11" height="7" fill="black">
<rect fill="white" x="15.0566" y="21.0508" width="11" height="7"/>
<path d="M20.5479 22.0566C21.0867 22.0401 22.3211 22.0346 22.668 22.4482C23.72 23.7049 22.1148 24.3649 21.4492 24.9863C20.7771 25.9705 21.7654 26.7007 22.6934 26.7793C24.3138 26.9164 24.3243 24.7297 25.2402 24.8076C25.4399 24.9428 25.4342 24.9269 25.5254 25.1484C25.52 25.6176 25.2558 26.1465 24.9727 26.5146C23.9045 27.904 22.2669 28.0506 20.9189 27.042C20.7935 26.8859 20.8022 26.9308 20.666 27.0107C19.8649 27.4816 19.3187 27.8349 18.332 27.6709C17.2703 27.4943 15.9078 26.2692 16.0693 25.0898C16.0904 24.9375 16.2341 24.8782 16.3584 24.8164C16.7209 24.8441 16.9014 25.0586 17.0176 25.4297C17.5573 27.1527 20.2627 27.3455 20.3105 25.3203C20.3166 25.0617 19.8581 24.9012 19.6299 24.7158C17.9634 23.36 17.8444 22.1924 20.4082 22.0625C20.4544 22.0596 20.5017 22.058 20.5479 22.0566ZM21.9297 23.3135C21.7324 22.8536 20.6334 22.951 20.1865 23.002C19.8372 23.0255 19.8068 22.9688 19.5693 23.1396C19.5445 23.282 19.5147 23.4243 19.624 23.542C20.1313 24.0887 20.5905 24.3635 21.2588 24.0684C21.5339 23.858 21.8626 23.6587 21.9297 23.3135Z"/>
</mask>
<path d="M20.5479 22.0566C21.0867 22.0401 22.3211 22.0346 22.668 22.4482C23.72 23.7049 22.1148 24.3649 21.4492 24.9863C20.7771 25.9705 21.7654 26.7007 22.6934 26.7793C24.3138 26.9164 24.3243 24.7297 25.2402 24.8076C25.4399 24.9428 25.4342 24.9269 25.5254 25.1484C25.52 25.6176 25.2558 26.1465 24.9727 26.5146C23.9045 27.904 22.2669 28.0506 20.9189 27.042C20.7935 26.8859 20.8022 26.9308 20.666 27.0107C19.8649 27.4816 19.3187 27.8349 18.332 27.6709C17.2703 27.4943 15.9078 26.2692 16.0693 25.0898C16.0904 24.9375 16.2341 24.8782 16.3584 24.8164C16.7209 24.8441 16.9014 25.0586 17.0176 25.4297C17.5573 27.1527 20.2627 27.3455 20.3105 25.3203C20.3166 25.0617 19.8581 24.9012 19.6299 24.7158C17.9634 23.36 17.8444 22.1924 20.4082 22.0625C20.4544 22.0596 20.5017 22.058 20.5479 22.0566ZM21.9297 23.3135C21.7324 22.8536 20.6334 22.951 20.1865 23.002C19.8372 23.0255 19.8068 22.9688 19.5693 23.1396C19.5445 23.282 19.5147 23.4243 19.624 23.542C20.1313 24.0887 20.5905 24.3635 21.2588 24.0684C21.5339 23.858 21.8626 23.6587 21.9297 23.3135Z" fill="#1D1C1D"/>
<path d="M20.5479 22.0566L20.5508 22.1566L20.5509 22.1566L20.5479 22.0566ZM22.668 22.4482L22.7446 22.384L22.7446 22.384L22.668 22.4482ZM21.4492 24.9863L21.381 24.9132L21.3729 24.9208L21.3666 24.9299L21.4492 24.9863ZM22.6934 26.7793L22.6849 26.8789L22.6849 26.8789L22.6934 26.7793ZM25.2402 24.8076L25.2963 24.7248L25.2747 24.7102L25.2487 24.708L25.2402 24.8076ZM25.5254 25.1484L25.6254 25.1496L25.6256 25.1292L25.6179 25.1104L25.5254 25.1484ZM24.9727 26.5146L24.8934 26.4537L24.8934 26.4537L24.9727 26.5146ZM20.9189 27.042L20.841 27.1046L20.8489 27.1145L20.859 27.1221L20.9189 27.042ZM20.666 27.0107L20.6154 26.9245L20.6153 26.9245L20.666 27.0107ZM18.332 27.6709L18.3156 27.7695L18.3156 27.7695L18.332 27.6709ZM16.0693 25.0898L15.9703 25.0761L15.9703 25.0763L16.0693 25.0898ZM16.3584 24.8164L16.366 24.7167L16.3385 24.7146L16.3139 24.7269L16.3584 24.8164ZM17.0176 25.4297L16.9221 25.4596L16.9222 25.4596L17.0176 25.4297ZM20.3105 25.3203L20.4105 25.3227L20.4105 25.3226L20.3105 25.3203ZM19.6299 24.7158L19.5668 24.7934L19.5668 24.7934L19.6299 24.7158ZM20.4082 22.0625L20.4133 22.1624L20.4144 22.1623L20.4082 22.0625ZM21.9297 23.3135L22.0278 23.3326L22.0337 23.3023L22.0216 23.2741L21.9297 23.3135ZM20.1865 23.002L20.1932 23.1018L20.1978 23.1013L20.1865 23.002ZM19.5693 23.1396L19.5109 23.0585L19.4778 23.0823L19.4708 23.1225L19.5693 23.1396ZM19.624 23.542L19.6973 23.474L19.6973 23.474L19.624 23.542ZM21.2588 24.0684L21.2992 24.1598L21.3101 24.155L21.3195 24.1478L21.2588 24.0684ZM20.5479 22.0566L20.5509 22.1566C20.8191 22.1483 21.2566 22.143 21.6684 22.1904C21.8745 22.2142 22.0707 22.2507 22.2346 22.3051C22.4005 22.3602 22.5221 22.4299 22.5913 22.5125L22.668 22.4482L22.7446 22.384C22.6404 22.2597 22.4776 22.175 22.2976 22.1153C22.1157 22.0549 21.9046 22.0163 21.6913 21.9918C21.2646 21.9426 20.8154 21.9484 20.5448 21.9567L20.5479 22.0566ZM22.668 22.4482L22.5913 22.5124C22.8436 22.8138 22.9264 23.0667 22.9151 23.2824C22.9038 23.4995 22.7963 23.6985 22.6278 23.8893C22.4589 24.0806 22.2364 24.2552 22.0088 24.424C21.7851 24.59 21.5528 24.7528 21.381 24.9132L21.4492 24.9863L21.5175 25.0594C21.6785 24.9091 21.8964 24.7565 22.128 24.5846C22.3558 24.4156 22.5936 24.2302 22.7777 24.0217C22.9622 23.8128 23.1003 23.5723 23.1148 23.2928C23.1295 23.0118 23.0184 22.711 22.7446 22.384L22.668 22.4482ZM21.4492 24.9863L21.3666 24.9299C21.1887 25.1904 21.1155 25.4422 21.1298 25.6767C21.144 25.911 21.2449 26.1175 21.3964 26.2887C21.6966 26.628 22.2023 26.8381 22.6849 26.8789L22.6934 26.7793L22.7018 26.6797C22.2565 26.642 21.8041 26.4477 21.5462 26.1562C21.4186 26.0119 21.3404 25.8464 21.3294 25.6646C21.3184 25.4829 21.3736 25.2743 21.5318 25.0427L21.4492 24.9863ZM22.6934 26.7793L22.6849 26.8789C23.1154 26.9154 23.4443 26.7968 23.7066 26.5978C23.9653 26.4015 24.1551 26.13 24.3162 25.8681C24.4815 25.5992 24.6118 25.3503 24.7615 25.165C24.908 24.9838 25.0514 24.8919 25.2318 24.9073L25.2402 24.8076L25.2487 24.708C24.9711 24.6844 24.7698 24.8366 24.606 25.0393C24.4455 25.2378 24.3002 25.5123 24.1458 25.7633C23.9872 26.0211 23.8133 26.2657 23.5857 26.4385C23.3616 26.6085 23.0815 26.7118 22.7018 26.6797L22.6934 26.7793ZM25.2402 24.8076L25.1842 24.8904C25.2922 24.9635 25.324 24.9833 25.3477 25.0108C25.3696 25.0363 25.3848 25.0695 25.4329 25.1865L25.5254 25.1484L25.6179 25.1104C25.5749 25.0058 25.5473 24.9361 25.4993 24.8804C25.4531 24.8267 25.388 24.7869 25.2963 24.7248L25.2402 24.8076ZM25.5254 25.1484L25.4254 25.1473C25.4204 25.5856 25.1703 26.0936 24.8934 26.4537L24.9727 26.5146L25.0519 26.5756C25.3413 26.1994 25.6197 25.6496 25.6254 25.1496L25.5254 25.1484ZM24.9727 26.5146L24.8934 26.4537C24.3739 27.1294 23.7207 27.4975 23.0389 27.5783C22.3565 27.6591 21.6353 27.4531 20.9789 26.9619L20.9189 27.042L20.859 27.1221C21.5505 27.6395 22.3221 27.8645 23.0625 27.7769C23.8035 27.6891 24.5033 27.2893 25.0519 26.5756L24.9727 26.5146ZM20.9189 27.042L20.9969 26.9793C20.9659 26.9408 20.9378 26.9077 20.9113 26.8846C20.8836 26.8605 20.8438 26.8351 20.7909 26.838C20.7462 26.8405 20.7102 26.8637 20.6914 26.8758C20.666 26.8921 20.6476 26.9056 20.6154 26.9245L20.666 27.0107L20.7166 27.097C20.7526 27.0759 20.7842 27.0539 20.7993 27.0442C20.8211 27.0302 20.8163 27.0369 20.8021 27.0377C20.7798 27.039 20.7698 27.0266 20.78 27.0355C20.7914 27.0454 20.8093 27.0652 20.841 27.1046L20.9189 27.042ZM20.666 27.0107L20.6153 26.9245C19.8115 27.3969 19.295 27.7296 18.3484 27.5723L18.332 27.6709L18.3156 27.7695C19.3424 27.9403 19.9183 27.5662 20.7167 27.097L20.666 27.0107ZM18.332 27.6709L18.3484 27.5723C17.8436 27.4883 17.2562 27.1513 16.8144 26.6875C16.3719 26.2228 16.0935 25.6507 16.1684 25.1034L16.0693 25.0898L15.9703 25.0763C15.8837 25.7084 16.2058 26.3385 16.6696 26.8254C17.1341 27.3131 17.7588 27.6769 18.3156 27.7695L18.332 27.6709ZM16.0693 25.0898L16.1684 25.1036C16.1743 25.0607 16.1961 25.0292 16.2361 24.9984C16.2803 24.9645 16.3352 24.9396 16.4029 24.9059L16.3584 24.8164L16.3139 24.7269C16.2573 24.755 16.1782 24.7907 16.1142 24.8399C16.046 24.8923 15.9855 24.9666 15.9703 25.0761L16.0693 25.0898ZM16.3584 24.8164L16.3508 24.9161C16.5118 24.9284 16.6243 24.9809 16.7102 25.0655C16.7986 25.1526 16.8664 25.2814 16.9221 25.4596L17.0176 25.4297L17.113 25.3998C17.0526 25.2069 16.9721 25.0429 16.8506 24.9231C16.7265 24.8008 16.5674 24.7321 16.366 24.7167L16.3584 24.8164ZM17.0176 25.4297L16.9222 25.4596C17.2066 26.3676 18.06 26.8696 18.8471 26.8805C19.2422 26.886 19.6275 26.7681 19.9183 26.5087C20.2106 26.2479 20.398 25.8526 20.4105 25.3227L20.3105 25.3203L20.2106 25.3179C20.1992 25.8006 20.0305 26.1406 19.7852 26.3594C19.5384 26.5796 19.2047 26.6855 18.8499 26.6806C18.1374 26.6707 17.3683 26.2147 17.113 25.3998L17.0176 25.4297ZM20.3105 25.3203L20.4105 25.3226C20.4128 25.2258 20.3708 25.1443 20.3154 25.0784C20.2606 25.0134 20.1876 24.9571 20.1138 24.9076C20.0399 24.8579 19.9579 24.8103 19.885 24.7664C19.8099 24.7212 19.7439 24.6796 19.6929 24.6382L19.6299 24.7158L19.5668 24.7934C19.63 24.8447 19.7069 24.8927 19.7818 24.9378C19.8588 24.9842 19.9338 25.0276 20.0023 25.0736C20.0709 25.1197 20.1256 25.1636 20.1623 25.2072C20.1983 25.2499 20.2113 25.2855 20.2106 25.318L20.3105 25.3203ZM19.6299 24.7158L19.693 24.6382C19.2805 24.3026 18.9686 23.9824 18.7706 23.6913C18.5713 23.3983 18.4964 23.1481 18.5312 22.9464C18.565 22.7509 18.7075 22.5725 19.0125 22.432C19.3192 22.2908 19.7779 22.1946 20.4133 22.1624L20.4082 22.0625L20.4031 21.9626C19.7566 21.9954 19.2688 22.0938 18.9288 22.2504C18.5872 22.4077 18.3828 22.6304 18.3341 22.9124C18.2865 23.1884 18.3936 23.4925 18.6052 23.8038C18.8181 24.1169 19.146 24.4511 19.5668 24.7934L19.6299 24.7158ZM20.4082 22.0625L20.4144 22.1623C20.4589 22.1595 20.5048 22.1579 20.5508 22.1566L20.5479 22.0566L20.5449 21.9567C20.4985 21.958 20.4499 21.9597 20.402 21.9627L20.4082 22.0625ZM21.9297 23.3135L22.0216 23.2741C21.9577 23.1251 21.8245 23.0306 21.6739 22.9707C21.5228 22.9107 21.3416 22.8802 21.1592 22.8665C20.7939 22.8389 20.3994 22.877 20.1752 22.9026L20.1865 23.002L20.1978 23.1013C20.4205 23.0759 20.799 23.0399 21.1442 23.0659C21.3171 23.0789 21.4756 23.1071 21.6 23.1566C21.7248 23.2062 21.8031 23.272 21.8378 23.3529L21.9297 23.3135ZM20.1865 23.002L20.1798 22.9022C20.0954 22.9079 20.0303 22.9087 19.9749 22.9094C19.921 22.91 19.8708 22.9104 19.8236 22.9163C19.7193 22.9294 19.6364 22.9682 19.5109 23.0585L19.5693 23.1396L19.6277 23.2208C19.7397 23.1403 19.7908 23.122 19.8484 23.1148C19.8821 23.1106 19.9199 23.11 19.9773 23.1093C20.0333 23.1087 20.103 23.1078 20.1932 23.1017L20.1865 23.002ZM19.5693 23.1396L19.4708 23.1225C19.4483 23.2518 19.4019 23.4497 19.5507 23.61L19.624 23.542L19.6973 23.474C19.6276 23.3989 19.6408 23.3122 19.6678 23.1568L19.5693 23.1396ZM19.624 23.542L19.5507 23.61C19.8071 23.8863 20.0615 24.1057 20.3453 24.2143C20.6349 24.3251 20.9442 24.3166 21.2992 24.1598L21.2588 24.0684L21.2184 23.9769C20.9051 24.1153 20.6507 24.117 20.4168 24.0275C20.1771 23.9358 19.9482 23.7444 19.6973 23.474L19.624 23.542ZM21.2588 24.0684L21.3195 24.1478C21.4507 24.0475 21.6111 23.9381 21.7413 23.8138C21.8742 23.6869 21.9888 23.5333 22.0278 23.3326L21.9297 23.3135L21.8315 23.2944C21.8034 23.4389 21.7202 23.5575 21.6032 23.6691C21.4835 23.7834 21.3419 23.8789 21.198 23.9889L21.2588 24.0684Z" fill="#1D1C1D" mask="url(#path-4-outside-1_10052_41171)"/>
<mask id="path-6-outside-2_10052_41171" maskUnits="userSpaceOnUse" x="30.752" y="4.65234" width="9" height="9" fill="black">
<rect fill="white" x="30.752" y="4.65234" width="9" height="9"/>
<path d="M35.3018 5.65234C35.4319 5.67375 35.6896 5.70866 35.752 5.82031C36.1544 6.69674 36.1273 7.24547 36.6895 8.09082C37.2544 8.93922 39.1671 8.73769 39.1201 9.60059C38.735 10.2198 37.4945 10.0696 36.7812 10.7754C35.8535 11.6932 36.2938 12.7721 35.5889 13.3271C34.62 13.2329 34.927 11.8757 34.2285 10.9814C33.6092 10.1879 31.8311 10.143 31.7539 9.46582C31.6896 8.90335 33.7574 8.68231 34.0137 8.21484C34.9354 7.39988 34.5774 6.10566 35.3018 5.65234ZM35.4102 7.85547C34.9653 8.69964 34.662 9.04737 33.7783 9.49707C34.7305 10.0047 34.9056 10.2288 35.4297 11.1758C35.8732 10.2888 36.1175 9.94897 37.0635 9.51562C36.4324 9.16067 36.1667 9.00038 35.7441 8.37891C35.6227 8.20109 35.5517 8.01704 35.4102 7.85547Z"/>
</mask>
<path d="M35.3018 5.65234C35.4319 5.67375 35.6896 5.70866 35.752 5.82031C36.1544 6.69674 36.1273 7.24547 36.6895 8.09082C37.2544 8.93922 39.1671 8.73769 39.1201 9.60059C38.735 10.2198 37.4945 10.0696 36.7812 10.7754C35.8535 11.6932 36.2938 12.7721 35.5889 13.3271C34.62 13.2329 34.927 11.8757 34.2285 10.9814C33.6092 10.1879 31.8311 10.143 31.7539 9.46582C31.6896 8.90335 33.7574 8.68231 34.0137 8.21484C34.9354 7.39988 34.5774 6.10566 35.3018 5.65234ZM35.4102 7.85547C34.9653 8.69964 34.662 9.04737 33.7783 9.49707C34.7305 10.0047 34.9056 10.2288 35.4297 11.1758C35.8732 10.2888 36.1175 9.94897 37.0635 9.51562C36.4324 9.16067 36.1667 9.00038 35.7441 8.37891C35.6227 8.20109 35.5517 8.01704 35.4102 7.85547Z" fill="#1D1C1D"/>
<path d="M35.3018 5.65234L35.318 5.55367L35.2807 5.54754L35.2487 5.56758L35.3018 5.65234ZM35.752 5.82031L35.8431 5.77845L35.8392 5.77153L35.752 5.82031ZM36.6895 8.09082L36.6062 8.14619L36.6062 8.14625L36.6895 8.09082ZM39.1201 9.60059L39.205 9.6534L39.2186 9.63163L39.22 9.60602L39.1201 9.60059ZM36.7812 10.7754L36.8516 10.8465L36.8516 10.8465L36.7812 10.7754ZM35.5889 13.3271L35.5792 13.4267L35.6192 13.4306L35.6507 13.4057L35.5889 13.3271ZM34.2285 10.9814L34.1497 11.043L34.1497 11.043L34.2285 10.9814ZM31.7539 9.46582L31.8533 9.4545L31.8533 9.45446L31.7539 9.46582ZM34.0137 8.21484L33.9474 8.13993L33.9344 8.15148L33.926 8.16677L34.0137 8.21484ZM35.4102 7.85547L35.4854 7.78957L35.3895 7.68016L35.3217 7.80885L35.4102 7.85547ZM33.7783 9.49707L33.733 9.40795L33.5619 9.495L33.7313 9.58531L33.7783 9.49707ZM35.4297 11.1758L35.3422 11.2242L35.4342 11.3904L35.5191 11.2205L35.4297 11.1758ZM37.0635 9.51562L37.1051 9.60654L37.2837 9.52475L37.1125 9.42847L37.0635 9.51562ZM35.7441 8.37891L35.8268 8.32268L35.8267 8.3225L35.7441 8.37891ZM35.3018 5.65234L35.2855 5.75102C35.3535 5.7622 35.4433 5.77527 35.5247 5.79861C35.5651 5.8102 35.5994 5.82323 35.6252 5.83751C35.6521 5.85232 35.6619 5.86408 35.6647 5.8691L35.752 5.82031L35.8392 5.77153C35.8108 5.72072 35.765 5.68624 35.7219 5.66244C35.6779 5.6381 35.6279 5.62013 35.5798 5.60636C35.4843 5.57898 35.3802 5.5639 35.318 5.55367L35.3018 5.65234ZM35.752 5.82031L35.6611 5.86205C35.8591 6.2932 35.9503 6.64056 36.0657 6.99795C36.1811 7.35531 36.3182 7.71317 36.6062 8.14619L36.6895 8.09082L36.7727 8.03545C36.4985 7.62311 36.3682 7.28394 36.256 6.93649C36.1438 6.58907 36.0473 6.22385 35.8428 5.77858L35.752 5.82031ZM36.6895 8.09082L36.6062 8.14625C36.7628 8.38134 37.0084 8.5376 37.2738 8.65478C37.539 8.77183 37.8373 8.85524 38.1054 8.93602C38.3791 9.01846 38.6179 9.09724 38.7858 9.20429C38.9483 9.30781 39.0294 9.42714 39.0203 9.59515L39.1201 9.60059L39.22 9.60602C39.2343 9.34258 39.094 9.16352 38.8933 9.03563C38.6982 8.91126 38.4323 8.8256 38.1631 8.74452C37.8884 8.66176 37.6055 8.58256 37.3546 8.47181C37.104 8.3612 36.8986 8.2245 36.7727 8.03539L36.6895 8.09082ZM39.1201 9.60059L39.0352 9.54777C38.9531 9.67969 38.8226 9.77572 38.6505 9.85537C38.4773 9.93552 38.2717 9.99483 38.0462 10.0594C37.6035 10.1861 37.0888 10.3304 36.7109 10.7043L36.7812 10.7754L36.8516 10.8465C37.187 10.5146 37.6491 10.3811 38.1012 10.2517C38.3231 10.1881 38.5445 10.1248 38.7345 10.0369C38.9255 9.94848 39.0945 9.83108 39.205 9.6534L39.1201 9.60059ZM36.7812 10.7754L36.7109 10.7043C36.2248 11.1852 36.0983 11.7098 36.0036 12.167C35.9072 12.6322 35.8451 12.9981 35.527 13.2486L35.5889 13.3271L35.6507 13.4057C36.0376 13.1011 36.1077 12.6501 36.1994 12.2076C36.2927 11.7571 36.41 11.2834 36.8516 10.8465L36.7812 10.7754ZM35.5889 13.3271L35.5985 13.2276C35.3843 13.2068 35.2469 13.1186 35.1452 12.9858C35.0392 12.8475 34.969 12.6572 34.9035 12.4269C34.7759 11.9785 34.6722 11.387 34.3073 10.9199L34.2285 10.9814L34.1497 11.043C34.4833 11.4701 34.5753 12.0043 34.7111 12.4817C34.7773 12.7143 34.8556 12.9368 34.9864 13.1075C35.1214 13.2836 35.309 13.4004 35.5792 13.4267L35.5889 13.3271ZM34.2285 10.9814L34.3073 10.9199C34.1392 10.7044 33.8966 10.5447 33.6358 10.4155C33.3749 10.2861 33.0863 10.183 32.8223 10.0861C32.5546 9.98784 32.315 9.89701 32.1373 9.79087C31.9582 9.68387 31.8671 9.57621 31.8533 9.4545L31.7539 9.46582L31.6545 9.47714C31.6793 9.69401 31.8394 9.8459 32.0347 9.96257C32.2315 10.0801 32.4896 10.1771 32.7534 10.2739C33.021 10.372 33.298 10.4712 33.547 10.5947C33.7963 10.7182 34.0082 10.8617 34.1497 11.043L34.2285 10.9814ZM31.7539 9.46582L31.8533 9.45446C31.8491 9.41842 31.8603 9.37985 31.8987 9.33394C31.9386 9.28628 32.0034 9.23668 32.0932 9.18578C32.2726 9.08399 32.5243 8.99171 32.7958 8.89938C33.063 8.80848 33.3489 8.71769 33.5818 8.62075C33.6987 8.5721 33.8063 8.52033 33.8943 8.46393C33.9808 8.40851 34.0575 8.34291 34.1014 8.26292L34.0137 8.21484L33.926 8.16677C33.9058 8.20365 33.8618 8.24721 33.7864 8.29555C33.7125 8.34292 33.617 8.3895 33.505 8.4361C33.2802 8.52966 33.0051 8.61693 32.7313 8.71004C32.4618 8.80171 32.1927 8.89937 31.9945 9.01183C31.8954 9.06805 31.8072 9.13165 31.7453 9.20556C31.682 9.28123 31.6426 9.37261 31.6546 9.47718L31.7539 9.46582ZM34.0137 8.21484L34.0799 8.28976C34.5666 7.85942 34.7128 7.303 34.829 6.82142C34.8879 6.57694 34.9379 6.35661 35.0168 6.16795C35.0946 5.98197 35.1969 5.83593 35.3548 5.73711L35.3018 5.65234L35.2487 5.56758C35.0444 5.69542 34.9199 5.88115 34.8323 6.0908C34.7458 6.29777 34.6918 6.53692 34.6345 6.77453C34.5181 7.25713 34.3824 7.75531 33.9474 8.13993L34.0137 8.21484ZM35.4102 7.85547L35.3217 7.80885C35.1006 8.22845 34.9189 8.51624 34.6871 8.75447C34.4559 8.99218 34.1698 9.18564 33.733 9.40795L33.7783 9.49707L33.8237 9.58619C34.2705 9.3588 34.5779 9.15355 34.8305 8.89392C35.0825 8.63483 35.2749 8.32666 35.4986 7.90209L35.4102 7.85547ZM33.7783 9.49707L33.7313 9.58531C34.2054 9.83812 34.4755 10.015 34.6924 10.2409C34.9104 10.468 35.0795 10.7495 35.3422 11.2242L35.4297 11.1758L35.5172 11.1274C35.2558 10.6551 35.0753 10.351 34.8367 10.1024C34.5969 9.85266 34.3034 9.66369 33.8254 9.40883L33.7783 9.49707ZM35.4297 11.1758L35.5191 11.2205C35.7408 10.7771 35.9073 10.4823 36.1311 10.244C36.3534 10.0073 36.638 9.82055 37.1051 9.60654L37.0635 9.51562L37.0218 9.42471C36.543 9.64405 36.2325 9.84388 35.9853 10.1071C35.7395 10.3688 35.562 10.6875 35.3402 11.1311L35.4297 11.1758ZM37.0635 9.51562L37.1125 9.42847C36.7957 9.25026 36.5792 9.12552 36.389 8.96982C36.2005 8.81564 36.0346 8.62832 35.8268 8.32268L35.7441 8.37891L35.6614 8.43513C35.8762 8.75096 36.0545 8.95453 36.2623 9.1246C36.4683 9.29316 36.7002 9.42604 37.0145 9.60278L37.0635 9.51562ZM35.7441 8.37891L35.8267 8.3225C35.769 8.23793 35.7241 8.15329 35.6715 8.06142C35.6201 7.97158 35.5629 7.8781 35.4854 7.78957L35.4102 7.85547L35.3349 7.92137C35.3989 7.99441 35.4481 8.07374 35.4979 8.16077C35.5466 8.24578 35.5979 8.34207 35.6616 8.43531L35.7441 8.37891Z" fill="#1D1C1D" mask="url(#path-6-outside-2_10052_41171)"/>
<mask id="path-8-outside-3_10052_41171" maskUnits="userSpaceOnUse" x="-1" y="17.1211" width="9" height="9" fill="black">
<rect fill="white" x="-1" y="17.1211" width="9" height="9"/>
<path d="M3.57422 18.1211C3.70848 18.1436 3.95723 18.1891 4.02051 18.3027C4.41935 19.1727 4.3704 19.7368 4.92773 20.583C5.45094 21.3772 7.45036 21.275 7.32422 22.0869C6.91025 22.6867 5.79861 22.5419 5.06543 23.2402C4.10648 24.1538 4.55951 25.3282 3.78516 25.8291C3.10271 25.7401 3.11524 25.1571 2.96777 24.542C2.57598 22.9081 1.5707 22.8767 0.237305 22.332C0.0714489 22.2642 0.0295802 22.1312 0 21.9824C0.252707 21.2066 1.47871 21.4797 2.25293 20.7197C3.27913 19.7121 2.7939 18.6262 3.57422 18.1211ZM3.66602 20.3438C3.19881 21.2 2.94126 21.5452 2.03809 21.9951C3.06261 22.5657 3.10092 22.7013 3.69238 23.668C4.10182 22.7772 4.38625 22.4334 5.31738 22.0049C4.29808 21.443 4.25629 21.2803 3.66602 20.3438Z"/>
</mask>
<path d="M3.57422 18.1211C3.70848 18.1436 3.95723 18.1891 4.02051 18.3027C4.41935 19.1727 4.3704 19.7368 4.92773 20.583C5.45094 21.3772 7.45036 21.275 7.32422 22.0869C6.91025 22.6867 5.79861 22.5419 5.06543 23.2402C4.10648 24.1538 4.55951 25.3282 3.78516 25.8291C3.10271 25.7401 3.11524 25.1571 2.96777 24.542C2.57598 22.9081 1.5707 22.8767 0.237305 22.332C0.0714489 22.2642 0.0295802 22.1312 0 21.9824C0.252707 21.2066 1.47871 21.4797 2.25293 20.7197C3.27913 19.7121 2.7939 18.6262 3.57422 18.1211ZM3.66602 20.3438C3.19881 21.2 2.94126 21.5452 2.03809 21.9951C3.06261 22.5657 3.10092 22.7013 3.69238 23.668C4.10182 22.7772 4.38625 22.4334 5.31738 22.0049C4.29808 21.443 4.25629 21.2803 3.66602 20.3438Z" fill="#1D1C1D"/>
<path d="M3.57422 18.1211L3.59073 18.0225L3.55246 18.0161L3.51988 18.0371L3.57422 18.1211ZM4.02051 18.3027L4.11169 18.2609L4.10787 18.2541L4.02051 18.3027ZM4.92773 20.583L4.84422 20.638L4.84423 20.638L4.92773 20.583ZM7.32422 22.0869L7.40652 22.1437L7.41952 22.1249L7.42303 22.1023L7.32422 22.0869ZM5.06543 23.2402L4.99646 23.1678L4.99645 23.1678L5.06543 23.2402ZM3.78516 25.8291L3.77223 25.9283L3.80864 25.933L3.83947 25.9131L3.78516 25.8291ZM2.96777 24.542L3.06502 24.5187L3.06502 24.5187L2.96777 24.542ZM0.237305 22.332L0.199437 22.4246L0.199487 22.4246L0.237305 22.332ZM0 21.9824L-0.0950836 21.9515L-0.103175 21.9763L-0.0980801 22.0019L0 21.9824ZM2.25293 20.7197L2.32298 20.7911L2.32299 20.7911L2.25293 20.7197ZM3.66602 20.3438L3.75062 20.2904L3.65981 20.1463L3.57823 20.2959L3.66602 20.3438ZM2.03809 21.9951L1.99349 21.9056L1.82372 21.9902L1.98943 22.0825L2.03809 21.9951ZM3.69238 23.668L3.60708 23.7202L3.70494 23.8801L3.78324 23.7097L3.69238 23.668ZM5.31738 22.0049L5.35919 22.0957L5.53912 22.0129L5.36566 21.9173L5.31738 22.0049ZM3.57422 18.1211L3.55771 18.2197C3.62481 18.231 3.71391 18.247 3.79291 18.2728C3.83233 18.2857 3.8659 18.3 3.8915 18.3153C3.91785 18.3311 3.9291 18.3441 3.93315 18.3514L4.02051 18.3027L4.10787 18.2541C4.08027 18.2045 4.0367 18.1692 3.99443 18.1438C3.95139 18.118 3.90252 18.0982 3.85506 18.0827C3.7603 18.0517 3.65789 18.0337 3.59073 18.0225L3.57422 18.1211ZM4.02051 18.3027L3.92961 18.3444C4.12532 18.7713 4.2102 19.1203 4.31895 19.4807C4.42772 19.8411 4.55822 20.2038 4.84422 20.638L4.92773 20.583L5.01125 20.528C4.73992 20.1161 4.61622 19.7735 4.51042 19.4229C4.4046 19.0722 4.31453 18.7041 4.11141 18.2611L4.02051 18.3027ZM4.92773 20.583L4.84423 20.638C4.99093 20.8607 5.23533 21.0129 5.50014 21.1303C5.76556 21.2479 6.06779 21.3371 6.3391 21.4236C6.61603 21.5119 6.85709 21.5964 7.02161 21.7046C7.10267 21.758 7.15887 21.8132 7.19206 21.8713C7.22406 21.9274 7.23783 21.9916 7.2254 22.0716L7.32422 22.0869L7.42303 22.1023C7.44215 21.9793 7.42103 21.8691 7.36578 21.7722C7.31172 21.6775 7.22833 21.6012 7.13151 21.5376C6.94026 21.4118 6.67242 21.32 6.39986 21.233C6.12168 21.1443 5.83384 21.0594 5.58116 20.9474C5.32787 20.8352 5.12614 20.7024 5.01124 20.528L4.92773 20.583ZM7.32422 22.0869L7.24192 22.0301C7.15194 22.1605 7.02172 22.2542 6.85723 22.3314C6.69137 22.4093 6.4983 22.4672 6.28586 22.5308C5.86752 22.656 5.38294 22.7997 4.99646 23.1678L5.06543 23.2402L5.1344 23.3126C5.4811 22.9824 5.91893 22.8494 6.34319 22.7224C6.55205 22.6599 6.76035 22.5979 6.94226 22.5125C7.12554 22.4264 7.28951 22.3132 7.40652 22.1437L7.32422 22.0869ZM5.06543 23.2402L4.99645 23.1678C4.49334 23.6471 4.36213 24.1961 4.2584 24.668C4.15251 25.1497 4.07709 25.5212 3.73085 25.7451L3.78516 25.8291L3.83947 25.9131C4.26757 25.6362 4.35282 25.17 4.45374 24.7109C4.55682 24.2419 4.67857 23.7469 5.13441 23.3126L5.06543 23.2402ZM3.78516 25.8291L3.79808 25.7299C3.64187 25.7096 3.53264 25.662 3.4523 25.5985C3.37168 25.5348 3.31345 25.4496 3.2677 25.3433C3.2215 25.2359 3.18953 25.1107 3.15956 24.9693C3.13037 24.8317 3.10217 24.6736 3.06502 24.5187L2.96777 24.542L2.87053 24.5653C2.90711 24.7179 2.93265 24.8634 2.96391 25.0108C2.9944 25.1546 3.0296 25.296 3.08399 25.4224C3.13886 25.5498 3.21467 25.6656 3.32824 25.7554C3.4421 25.8454 3.58722 25.9041 3.77223 25.9283L3.78516 25.8291ZM2.96777 24.542L3.06502 24.5187C2.8635 23.6783 2.49933 23.2382 2.00709 22.9428C1.76498 22.7976 1.49455 22.6889 1.20566 22.5834C0.91435 22.4771 0.606186 22.3747 0.275122 22.2395L0.237305 22.332L0.199487 22.4246C0.535119 22.5617 0.852639 22.6675 1.13708 22.7713C1.42394 22.876 1.67933 22.9794 1.90419 23.1143C2.34589 23.3793 2.68026 23.7718 2.87053 24.5653L2.96777 24.542ZM0.237305 22.332L0.275172 22.2395C0.213151 22.2141 0.178153 22.1791 0.154109 22.1375C0.128017 22.0924 0.112593 22.0359 0.0980801 21.9629L0 21.9824L-0.0980801 22.0019C-0.0830123 22.0777 -0.0627126 22.1621 -0.0190107 22.2376C0.0267383 22.3167 0.0956031 22.3821 0.199437 22.4246L0.237305 22.332ZM0 21.9824L0.0950836 22.0134C0.202623 21.6832 0.513885 21.5677 0.958257 21.4413C1.38616 21.3196 1.91412 21.1924 2.32298 20.7911L2.25293 20.7197L2.18288 20.6484C1.81752 21.007 1.34537 21.1232 0.903537 21.2489C0.478176 21.3699 0.0500837 21.5058 -0.0950836 21.9515L0 21.9824ZM2.25293 20.7197L2.32299 20.7911C2.85752 20.2662 2.99786 19.7188 3.1033 19.2541C3.21026 18.7827 3.27883 18.4314 3.62856 18.205L3.57422 18.1211L3.51988 18.0371C3.0893 18.3159 3.01031 18.7601 2.90826 19.2098C2.80469 19.6663 2.67453 20.1656 2.18287 20.6484L2.25293 20.7197ZM3.66602 20.3438L3.57823 20.2959C3.34478 20.7237 3.16883 21.0138 2.94284 21.2531C2.71819 21.491 2.43929 21.6835 1.99349 21.9056L2.03809 21.9951L2.08268 22.0846C2.54006 21.8568 2.84152 21.6517 3.08824 21.3904C3.33363 21.1306 3.52005 20.82 3.7538 20.3916L3.66602 20.3438ZM2.03809 21.9951L1.98943 22.0825C2.5011 22.3675 2.75461 22.5377 2.95462 22.7513C3.15728 22.9679 3.30799 23.2313 3.60708 23.7202L3.69238 23.668L3.77768 23.6158C3.48531 23.1379 3.32113 22.8503 3.10064 22.6147C2.8775 22.3763 2.5996 22.1934 2.08674 21.9078L2.03809 21.9951ZM3.69238 23.668L3.78324 23.7097C3.98691 23.2666 4.15482 22.9704 4.38169 22.732C4.60791 22.4942 4.89889 22.3075 5.35919 22.0957L5.31738 22.0049L5.27558 21.914C4.80474 22.1307 4.48795 22.3302 4.2368 22.5941C3.98631 22.8574 3.8073 23.1785 3.60152 23.6262L3.69238 23.668ZM5.31738 22.0049L5.36566 21.9173C4.85769 21.6373 4.6043 21.4624 4.4041 21.2468C4.20069 21.0277 4.04952 20.7647 3.75062 20.2904L3.66602 20.3438L3.58142 20.3971C3.87278 20.8594 4.03765 21.146 4.25753 21.3829C4.48061 21.6232 4.75777 21.8106 5.26911 22.0925L5.31738 22.0049Z" fill="#1D1C1D" mask="url(#path-8-outside-3_10052_41171)"/>
<mask id="path-10-outside-4_10052_41171" maskUnits="userSpaceOnUse" x="27.3193" y="29" width="9" height="9" fill="black">
<rect fill="white" x="27.3193" y="29" width="9" height="9"/>
<path d="M31.7344 30C31.9027 30.0111 31.9505 30.0221 32.1162 30.0508C32.398 30.2469 32.7425 31.4066 32.8076 31.7744C33.0506 33.158 35.2728 32.9982 35.5352 33.7412C35.4087 34.5152 34.1744 34.2459 33.4277 34.8555C32.3585 35.7278 32.7737 36.9085 32.0908 37.502C31.1118 37.4484 31.4019 36.3861 30.9912 35.6309C30.496 34.7195 29.9235 34.6691 29.0156 34.3271C28.6959 34.2067 28.4655 34.1358 28.3193 33.8096C28.4079 33.0757 29.7612 33.2181 30.4785 32.6104C31.4768 31.7631 31.1084 30.5616 31.7344 30ZM31.915 32.2109C31.4869 33.0202 31.3131 33.2294 30.5166 33.6953L30.4121 33.7578L30.3477 33.7939C31.1428 34.2187 31.5349 34.4918 31.9053 35.3789C32.338 34.559 32.5697 34.2319 33.4404 33.791C32.6768 33.3494 32.4889 33.1162 32.0205 32.3467C31.9569 32.2423 31.9935 32.2856 31.915 32.2109Z"/>
</mask>
<path d="M31.7344 30C31.9027 30.0111 31.9505 30.0221 32.1162 30.0508C32.398 30.2469 32.7425 31.4066 32.8076 31.7744C33.0506 33.158 35.2728 32.9982 35.5352 33.7412C35.4087 34.5152 34.1744 34.2459 33.4277 34.8555C32.3585 35.7278 32.7737 36.9085 32.0908 37.502C31.1118 37.4484 31.4019 36.3861 30.9912 35.6309C30.496 34.7195 29.9235 34.6691 29.0156 34.3271C28.6959 34.2067 28.4655 34.1358 28.3193 33.8096C28.4079 33.0757 29.7612 33.2181 30.4785 32.6104C31.4768 31.7631 31.1084 30.5616 31.7344 30ZM31.915 32.2109C31.4869 33.0202 31.3131 33.2294 30.5166 33.6953L30.4121 33.7578L30.3477 33.7939C31.1428 34.2187 31.5349 34.4918 31.9053 35.3789C32.338 34.559 32.5697 34.2319 33.4404 33.791C32.6768 33.3494 32.4889 33.1162 32.0205 32.3467C31.9569 32.2423 31.9935 32.2856 31.915 32.2109Z" fill="#1D1C1D"/>
<path d="M31.7344 30L31.7409 29.9002L31.6989 29.8975L31.6676 29.9256L31.7344 30ZM32.1162 30.0508L32.1733 29.9687L32.1551 29.956L32.1332 29.9522L32.1162 30.0508ZM32.8076 31.7744L32.9061 31.7571L32.9061 31.757L32.8076 31.7744ZM35.5352 33.7412L35.6338 33.7573L35.638 33.7321L35.6295 33.7079L35.5352 33.7412ZM33.4277 34.8555L33.491 34.933L33.491 34.9329L33.4277 34.8555ZM32.0908 37.502L32.0854 37.6018L32.1258 37.604L32.1564 37.5774L32.0908 37.502ZM30.9912 35.6309L30.9033 35.6786L30.9034 35.6786L30.9912 35.6309ZM29.0156 34.3271L28.9804 34.4207L28.9804 34.4207L29.0156 34.3271ZM28.3193 33.8096L28.2201 33.7976L28.2167 33.8251L28.2281 33.8505L28.3193 33.8096ZM30.4785 32.6104L30.5432 32.6866L30.5432 32.6866L30.4785 32.6104ZM31.915 32.2109L31.984 32.1385L31.8884 32.0475L31.8266 32.1642L31.915 32.2109ZM30.5166 33.6953L30.4661 33.609L30.4653 33.6095L30.5166 33.6953ZM30.4121 33.7578L30.461 33.8451L30.4634 33.8436L30.4121 33.7578ZM30.3477 33.7939L30.2988 33.7067L30.1394 33.7961L30.3005 33.8821L30.3477 33.7939ZM31.9053 35.3789L31.813 35.4174L31.8947 35.6132L31.9937 35.4256L31.9053 35.3789ZM33.4404 33.791L33.4856 33.8802L33.6503 33.7969L33.4905 33.7045L33.4404 33.791ZM32.0205 32.3467L32.1059 32.2947L32.1059 32.2946L32.0205 32.3467ZM31.7344 30L31.7278 30.0998C31.8901 30.1105 31.933 30.1206 32.0992 30.1493L32.1162 30.0508L32.1332 29.9522C31.9681 29.9237 31.9153 29.9117 31.7409 29.9002L31.7344 30ZM32.1162 30.0508L32.0591 30.1329C32.1072 30.1663 32.1721 30.2548 32.245 30.3968C32.3152 30.5335 32.3851 30.7039 32.4491 30.882C32.5773 31.2389 32.6779 31.6151 32.7091 31.7918L32.8076 31.7744L32.9061 31.757C32.8723 31.5659 32.768 31.1783 32.6373 30.8144C32.5718 30.632 32.4986 30.4528 32.4229 30.3054C32.3499 30.1633 32.2661 30.0333 32.1733 29.9687L32.1162 30.0508ZM32.8076 31.7744L32.7091 31.7917C32.8414 32.5449 33.514 32.8671 34.1298 33.0919C34.4478 33.208 34.7465 33.2969 34.9917 33.4063C35.2386 33.5165 35.3903 33.6313 35.4409 33.7745L35.5352 33.7412L35.6295 33.7079C35.5488 33.4796 35.3243 33.3357 35.0732 33.2237C34.8204 33.1108 34.4992 33.0139 34.1984 32.9041C33.5768 32.6771 33.0168 32.3875 32.9061 31.7571L32.8076 31.7744ZM35.5352 33.7412L35.4365 33.7251C35.41 33.8868 35.3283 33.9919 35.2035 34.0719C35.0734 34.1554 34.8983 34.2103 34.6895 34.263C34.2843 34.3655 33.7597 34.4554 33.3645 34.778L33.4277 34.8555L33.491 34.9329C33.8425 34.646 34.3083 34.5657 34.7385 34.4569C34.9475 34.4041 35.1513 34.3431 35.3115 34.2403C35.4771 34.1341 35.597 33.9826 35.6338 33.7573L35.5352 33.7412ZM33.4277 34.8555L33.3645 34.778C32.8041 35.2352 32.6339 35.7751 32.5172 36.2599C32.4582 36.5049 32.4147 36.7261 32.3432 36.9273C32.2729 37.1252 32.1787 37.2931 32.0252 37.4265L32.0908 37.502L32.1564 37.5774C32.3444 37.4141 32.4543 37.2119 32.5317 36.9942C32.6078 36.7799 32.6554 36.5401 32.7116 36.3067C32.8253 35.8347 32.9822 35.3481 33.491 34.933L33.4277 34.8555ZM32.0908 37.502L32.0963 37.4021C31.8714 37.3898 31.7313 37.321 31.6351 37.2231C31.5359 37.1223 31.4733 36.9804 31.4243 36.8029C31.3744 36.622 31.3441 36.4283 31.2962 36.2127C31.2497 36.0031 31.1884 35.7843 31.0791 35.5831L30.9912 35.6309L30.9034 35.6786C30.9993 35.8551 31.0558 36.0523 31.101 36.256C31.1448 36.4536 31.1802 36.6704 31.2315 36.8562C31.2837 37.0453 31.3578 37.2263 31.4924 37.3633C31.63 37.5033 31.8207 37.5873 32.0854 37.6018L32.0908 37.502ZM30.9912 35.6309L31.0791 35.5831C30.8226 35.1111 30.5418 34.8561 30.2051 34.6772C30.0391 34.589 29.8613 34.5202 29.6711 34.4527C29.4787 34.3845 29.2769 34.3187 29.0509 34.2336L29.0156 34.3271L28.9804 34.4207C29.2082 34.5065 29.4185 34.5753 29.6042 34.6412C29.7922 34.7078 29.9587 34.7727 30.1112 34.8538C30.4115 35.0134 30.6646 35.2393 30.9033 35.6786L30.9912 35.6309ZM29.0156 34.3271L29.0509 34.2336C28.8861 34.1714 28.7609 34.1277 28.656 34.0611C28.5566 33.998 28.4756 33.9138 28.4106 33.7687L28.3193 33.8096L28.2281 33.8505C28.3093 34.0316 28.4165 34.1459 28.5488 34.2299C28.6756 34.3104 28.8255 34.3624 28.9804 34.4207L29.0156 34.3271ZM28.3193 33.8096L28.4186 33.8216C28.4364 33.6745 28.5154 33.5692 28.6483 33.4815C28.7853 33.3911 28.9724 33.3245 29.192 33.2584C29.4065 33.1939 29.6526 33.1298 29.8853 33.0449C30.1195 32.9594 30.351 32.8495 30.5432 32.6866L30.4785 32.6104L30.4139 32.5341C30.2474 32.6751 30.0407 32.7753 29.8167 32.857C29.5911 32.9393 29.3589 32.9994 29.1343 33.0669C28.9149 33.133 28.7021 33.2064 28.5381 33.3146C28.37 33.4256 28.2466 33.5777 28.2201 33.7976L28.3193 33.8096ZM30.4785 32.6104L30.5432 32.6866C31.0678 32.2414 31.2313 31.7024 31.3435 31.2207C31.4002 30.9768 31.4422 30.7564 31.5092 30.5576C31.5753 30.3617 31.6623 30.199 31.8012 30.0744L31.7344 30L31.6676 29.9256C31.4935 30.0818 31.3918 30.2799 31.3197 30.4937C31.2486 30.7047 31.2028 30.9428 31.1487 31.1754C31.0389 31.6467 30.8875 32.1321 30.4138 32.5341L30.4785 32.6104ZM31.915 32.2109L31.8266 32.1642C31.6126 32.5687 31.4674 32.8127 31.2807 33.0138C31.0945 33.2143 30.8625 33.3771 30.4661 33.609L30.5166 33.6953L30.5671 33.7816C30.9671 33.5476 31.2203 33.3728 31.4272 33.1499C31.6336 32.9276 31.7894 32.6623 32.0034 32.2577L31.915 32.2109ZM30.5166 33.6953L30.4653 33.6095L30.3608 33.672L30.4121 33.7578L30.4634 33.8436L30.5679 33.7811L30.5166 33.6953ZM30.4121 33.7578L30.3632 33.6706L30.2988 33.7067L30.3477 33.7939L30.3966 33.8812L30.461 33.845L30.4121 33.7578ZM30.3477 33.7939L30.3005 33.8821C30.6979 34.0945 30.9838 34.2635 31.2168 34.4855C31.4477 34.7056 31.6315 34.9827 31.813 35.4174L31.9053 35.3789L31.9976 35.3404C31.8087 34.888 31.6112 34.5851 31.3547 34.3407C31.1002 34.0981 30.7925 33.9182 30.3948 33.7057L30.3477 33.7939ZM31.9053 35.3789L31.9937 35.4256C32.2101 35.0156 32.371 34.7394 32.5821 34.5106C32.7918 34.2834 33.0559 34.0978 33.4856 33.8802L33.4404 33.791L33.3953 33.7018C32.9542 33.9251 32.6671 34.1236 32.4351 34.375C32.2045 34.625 32.0332 34.9223 31.8168 35.3322L31.9053 35.3789ZM33.4404 33.791L33.4905 33.7045C33.1119 33.4855 32.8834 33.3223 32.6919 33.1226C32.4994 32.9217 32.3403 32.6798 32.1059 32.2947L32.0205 32.3467L31.9351 32.3987C32.169 32.7831 32.3381 33.0425 32.5476 33.261C32.7581 33.4807 33.0054 33.6549 33.3904 33.8776L33.4404 33.791ZM32.0205 32.3467L32.1059 32.2946C32.0907 32.2697 32.0816 32.2538 32.075 32.2423C32.0694 32.2325 32.0623 32.2196 32.0535 32.2079C32.0436 32.1945 32.0332 32.1846 32.0241 32.176C32.0139 32.1664 32.0036 32.1572 31.984 32.1385L31.915 32.2109L31.8461 32.2834C31.8657 32.302 31.8803 32.3154 31.8872 32.3219C31.8953 32.3295 31.8945 32.3292 31.8931 32.3274C31.893 32.3272 31.8936 32.3278 31.9014 32.3415C31.9083 32.3536 31.9185 32.3714 31.9351 32.3987L32.0205 32.3467Z" fill="#1D1C1D" mask="url(#path-10-outside-4_10052_41171)"/>
<path d="M38.9893 16.458C39.1891 16.4723 39.3437 16.5155 39.4629 16.5869C39.5827 16.6587 39.6637 16.7572 39.7207 16.875C39.7772 16.9919 39.8101 17.1279 39.834 17.2764C39.8578 17.4244 39.8736 17.5903 39.8945 17.7637C40.3289 21.3438 39.8623 24.94 38.4092 28.2529C38.31 28.4788 38.2018 28.762 38.0742 29.0273C37.9462 29.2934 37.7953 29.5513 37.6055 29.7324L37.5918 29.7451L37.5723 29.7461C37.4185 29.7522 37.3124 29.7459 37.2168 29.7129C37.1214 29.6799 37.0407 29.6216 36.9346 29.5342L36.9258 29.5264L36.8877 29.4502C36.8755 29.4263 36.8626 29.3996 36.8516 29.374C36.8407 29.3488 36.8305 29.322 36.8252 29.2959C36.82 29.2702 36.8178 29.2402 36.8281 29.2119H36.8291C36.9822 28.7959 37.1615 28.3657 37.3408 27.9375C37.5202 27.509 37.6997 27.0823 37.8516 26.6699C38.9655 23.6482 39.189 20.3989 38.6709 17.2295C38.6395 17.0354 38.6445 16.9142 38.6953 16.8047C38.7201 16.7511 38.755 16.7028 38.7969 16.6514C38.838 16.6008 38.8904 16.5434 38.9482 16.4756L38.9639 16.4561L38.9893 16.458Z" fill="#1D1C1D" stroke="#1D1C1D" stroke-width="0.1"/>
<path d="M27.7715 17.6963C27.7914 17.7011 27.8122 17.7073 27.8311 17.7158L27.8818 17.75L27.8887 17.7568H27.8877C28.2562 18.3028 28.3048 19.0851 28.291 19.8838C28.2876 20.0841 28.2799 20.2865 28.2725 20.4873C28.265 20.6883 28.2577 20.8879 28.2539 21.083C28.2463 21.4738 28.2532 21.8454 28.3057 22.1738C28.386 22.6778 28.542 22.9798 28.7275 23.1689C28.913 23.3578 29.1333 23.4402 29.3555 23.4951C29.4686 23.5231 29.5759 23.5418 29.6846 23.5664C29.7907 23.5905 29.8941 23.6188 29.9863 23.6621C30.079 23.7057 30.1619 23.7655 30.2266 23.8525C30.2912 23.9396 30.3355 24.0516 30.3564 24.1963L30.3594 24.2139L30.3496 24.2285C30.2163 24.4557 29.9921 24.5515 29.7578 24.583C29.5444 24.6116 29.3168 24.5875 29.1289 24.5586C29.0309 25.6625 29.0586 26.2118 29.2295 27.3262L29.2754 27.5947C29.282 27.6723 29.2777 27.75 29.2607 27.876L29.2598 27.8867L29.2539 27.8955C29.1926 27.9976 29.155 28.067 29.1074 28.127C29.0582 28.1889 28.9984 28.2406 28.8945 28.3145L28.8799 28.3252L28.8613 28.3242C28.7247 28.3118 28.6111 28.2389 28.5186 28.1279C28.4268 28.0177 28.3532 27.8677 28.2949 27.6924C28.1782 27.3411 28.1169 26.8762 28.0889 26.3965C28.0339 25.4571 28.1084 24.4444 28.165 24.0703C27.665 23.5205 27.4158 22.9941 27.2979 22.4277C27.1792 21.8578 27.1935 21.2486 27.2109 20.542C27.2151 20.3736 27.2035 20.1449 27.1895 19.8867C27.1754 19.6292 27.1589 19.343 27.1523 19.0635C27.1458 18.784 27.1494 18.5086 27.1768 18.2725C27.2038 18.0385 27.2547 17.8345 27.3486 17.7031L27.3623 17.6836L27.3867 17.6816C27.4456 17.6784 27.5436 17.6735 27.6367 17.6787C27.6831 17.6813 27.7304 17.6864 27.7715 17.6963Z" fill="#1D1C1D" stroke="#1D1C1D" stroke-width="0.1"/>
<path d="M23.084 19.0205C23.2608 19.0242 23.391 19.0467 23.4951 19.0811C23.5997 19.1155 23.6759 19.1613 23.7441 19.207C23.8784 19.2969 23.9803 19.3853 24.2266 19.418C24.3035 19.4281 24.4124 19.3995 24.5479 19.3496C24.6144 19.3251 24.6845 19.2958 24.7578 19.2666C24.8307 19.2375 24.9064 19.208 24.9824 19.1816C25.1335 19.1292 25.2909 19.0883 25.4365 19.0938C25.5847 19.0993 25.7218 19.1539 25.8262 19.2891L25.8369 19.3027V19.3203C25.8318 19.6196 25.6583 19.8181 25.501 20.0322L25.4971 20.0381L25.4902 20.043C24.9297 20.4436 24.1094 20.4984 23.5342 20.3076C23.2466 20.2122 23.0103 20.0524 22.9033 19.833C22.7944 19.6095 22.826 19.3389 23.042 19.041L23.0576 19.0195L23.084 19.0205Z" fill="#1D1C1D" stroke="#1D1C1D" stroke-width="0.1"/>
<path d="M18.1953 18.959C18.5378 19.0436 18.7204 19.2173 18.7461 19.4316C18.771 19.6407 18.6425 19.8626 18.4277 20.0381C17.9949 20.3919 17.1749 20.5904 16.2969 20.167L16.2871 20.1621L16.2881 20.1611C16.1309 20.0402 15.9606 19.9014 15.8682 19.7354C15.8213 19.6511 15.7934 19.5586 15.7979 19.457C15.8023 19.3554 15.8391 19.2483 15.9141 19.1357L15.9209 19.125L15.9336 19.1191C16.1617 19.0061 16.4063 19.0713 16.6348 19.1631C16.7476 19.2084 16.8686 19.2651 16.9766 19.3105C17.0879 19.3574 17.1937 19.3957 17.2939 19.4121C17.3511 19.4215 17.4189 19.412 17.4941 19.3857C17.569 19.3596 17.6481 19.3179 17.7275 19.2695C17.8873 19.1723 18.0397 19.051 18.1543 18.9678L18.1729 18.9541L18.1953 18.959Z" fill="#1D1C1D" stroke="#1D1C1D" stroke-width="0.1"/>
</g>
<defs>
<clipPath id="clip0_10052_41171">
<rect width="40" height="40"/>
</clipPath>
</defs>
</svg>
