<svg width="40" height="40" viewBox="0 0 40 40" fill="none" xmlns="http://www.w3.org/2000/svg">
<g clip-path="url(#clip0_10051_40880)">

<path d="M27.043 5.51074C30.3561 5.31369 32.5327 6.62621 33.751 8.69141C34.9713 10.7603 35.2344 13.5925 34.7002 16.4385C34.3914 18.0816 33.6058 19.5149 32.876 21.0381L32.8525 21.0869L32.9023 21.1064C35.9269 22.3147 36.9593 22.3511 39.9072 22.915C39.9357 24.1254 39.9468 25.3363 39.9375 26.5469L39.9502 28.0791C39.9542 29.5392 39.8777 30.8278 39.2246 32.3262C37.988 35.1636 35.7839 36.8645 32.9541 37.9795C31.2783 37.3465 29.7522 36.3733 28.4727 35.1201L28.4424 35.0908L28.4082 35.1143C27.6809 35.6249 27.2744 35.9993 26.3496 36.0684C25.3697 36.1416 24.6682 35.7691 24.1484 35.1289C23.6264 34.4858 23.2866 33.5715 23.0391 32.5635C22.7917 31.5561 22.6383 30.4615 22.4844 29.46C22.3308 28.4609 22.1767 27.551 21.9277 26.9219C21.7034 26.3536 21.3248 25.8592 20.8359 25.4932C20.5311 25.2678 20.2484 25.1778 19.9873 25.2051C19.7265 25.2324 19.4959 25.3754 19.293 25.5957C18.889 26.0345 18.5801 26.7954 18.3389 27.6396C18.097 28.4863 17.9206 29.4259 17.7871 30.2285C17.6532 31.0338 17.5629 31.6969 17.4912 31.999V32.002C17.3683 32.716 17.0793 33.6409 16.623 34.4258C16.166 35.2119 15.5459 35.8483 14.7637 36.0049C13.791 36.1994 12.9983 35.8562 12.3447 35.1865C11.6891 34.5147 11.1753 33.5154 10.7695 32.4062C10.1611 30.7429 9.79897 28.8445 9.55859 27.459L9.35449 26.2715C8.93353 23.7319 8.11691 21.6792 6.73438 19.4863L6.82812 19.4316C7.10337 19.266 7.29988 19.1704 7.44824 19.1328C7.59326 19.0962 7.6863 19.1168 7.76367 19.1787C7.84634 19.2449 7.91748 19.362 8.00293 19.5371C8.08594 19.7072 8.18355 19.9324 8.31641 20.1924V20.1934C8.58215 20.7708 8.91394 21.3898 9.20898 22.0088C9.50585 22.6316 9.77073 23.2633 9.91406 23.8828C10.2479 25.3261 10.4819 26.7867 10.7822 28.2383C11.082 29.6874 11.4469 31.1225 12.0391 32.5029C12.228 32.9434 12.4696 33.5916 12.8164 34.1182C13.163 34.6444 13.6253 35.066 14.2607 35.0273C14.9268 34.9866 15.3615 34.4674 15.6689 33.8564C15.9764 33.2453 16.1679 32.5186 16.3359 32.041V32.04C16.552 31.3509 16.7038 30.5912 16.8428 29.834C16.9819 29.0757 17.1083 28.3202 17.2764 27.6348C17.427 27.0202 17.734 26.0977 18.1992 25.3506C18.6662 24.6008 19.2814 24.0454 20.0459 24.123C21.1948 24.24 21.9251 24.7934 22.418 25.5996C22.913 26.4093 23.1695 27.475 23.3643 28.6133C23.5584 29.7474 23.6906 30.9573 23.9404 32.0381C24.1905 33.1198 24.5604 34.0869 25.2354 34.7373C25.4993 34.9916 25.9339 35.1562 26.2959 35.1045H26.2979C26.6575 35.0402 26.9034 34.931 27.1123 34.7734C27.3195 34.6172 27.4886 34.4141 27.6943 34.168L27.7188 34.1387L27.6963 34.1064C25.495 31.044 25.925 28.7134 25.8604 25.1621C25.8472 24.4434 25.8484 23.9539 25.8975 23.6133C25.9464 23.2742 26.0417 23.0931 26.21 22.9795C26.3838 22.8622 26.6423 22.8106 27.0371 22.7539C27.4286 22.6977 27.9457 22.6373 28.6201 22.4971C29.4791 22.3185 30.5226 22.0374 31.3809 21.793L31.4033 21.7861L31.4131 21.7646C31.6928 21.1178 32.0116 20.4679 32.3262 19.8154C32.562 19.3264 32.7954 18.8357 33.0088 18.3457L33.2148 17.8555C34.12 15.5128 34.1883 12.7811 33.4023 10.3965C32.997 9.16692 32.4124 8.33187 31.6211 7.76172C30.8308 7.19235 29.839 6.89012 28.625 6.71777C26.9222 6.47605 25.5377 6.78436 24.208 7.28516C23.5441 7.5352 22.8931 7.83387 22.2236 8.13574C21.5577 8.436 20.8721 8.73878 20.1348 9.00391C19.2803 8.7384 18.4267 8.30358 17.5498 7.88477C16.6689 7.46405 15.7654 7.06017 14.8242 6.87207C14.6091 6.82914 14.2667 6.8213 13.9014 6.80762C13.5326 6.79381 13.136 6.77457 12.8037 6.70996C12.6379 6.67771 12.4904 6.63407 12.3711 6.57617C12.2516 6.51812 12.1631 6.44637 12.1123 6.35938C12.0153 6.1926 12.0409 5.93962 12.3223 5.5459C15.5124 5.42286 17.2019 6.5977 20.124 7.9248L20.1436 7.93359L20.1641 7.92578C20.7884 7.67459 21.3574 7.40823 21.9023 7.14746C22.4476 6.88653 22.9679 6.63105 23.498 6.40234C24.5574 5.94536 25.6527 5.59344 27.043 5.51074Z" fill="#252425" stroke="#252425" stroke-width="0.1"/>
<path d="M33.0303 22.3359C33.0788 22.3534 33.1433 22.378 33.2188 22.4062C33.3696 22.4628 33.5641 22.5369 33.7646 22.6133C34.1646 22.7656 34.5909 22.9272 34.7344 22.9727C36.1912 23.4339 37.339 23.6785 38.8262 23.873C38.8099 25.5529 38.852 26.966 38.8203 28.208C38.7884 29.4584 38.6824 30.5252 38.3711 31.4941C37.7511 33.4239 36.3112 34.9788 32.9756 36.8193C29.7401 35.3607 28.2584 33.6445 27.584 31.5391C26.9089 29.4317 27.0396 26.9312 27.0527 23.8867C29.3561 23.6093 30.8623 23.2075 32.9541 22.3105C32.9688 22.3152 32.9944 22.3231 33.0303 22.3359Z" fill="white" stroke="#252425" stroke-width="0.1"/>
<path d="M35.6309 26.8438C35.8243 26.9035 35.9655 26.9611 36.0654 27.0508C36.1629 27.1384 36.2255 27.2612 36.2539 27.4609C36.1566 27.5972 35.9031 27.889 35.5615 28.2598C35.208 28.6435 34.7645 29.1096 34.3154 29.5723C33.8663 30.0351 33.4115 30.4947 33.0352 30.8633C32.6709 31.22 32.3813 31.4879 32.2422 31.5957C32.2036 31.595 32.1565 31.5869 32.1016 31.5654C32.0404 31.5414 31.9721 31.5051 31.8984 31.459C31.7508 31.3667 31.586 31.2368 31.4189 31.0947C31.2521 30.9528 31.0841 30.7996 30.9316 30.6592L30.5361 30.3027C30.3371 30.1202 30.1307 29.9084 30.0098 29.6758C29.8923 29.4496 29.8559 29.2066 29.9844 28.9512C30.391 28.8019 30.7992 28.9981 31.1787 29.3223C31.5624 29.6501 31.8989 30.0933 32.1553 30.3926L32.1973 30.4414L32.2344 30.3887C32.5332 29.9648 33.1665 29.1939 33.8369 28.4688C34.1721 28.1063 34.5158 27.7552 34.8311 27.4658C35.1382 27.1838 35.4162 26.9631 35.6309 26.8438Z" fill="#252425" stroke="#252425" stroke-width="0.1"/>
<path d="M8.81836 2.09668C8.86904 2.10887 8.91637 2.12315 8.95312 2.1377C8.97145 2.14496 8.98644 2.15169 8.99707 2.1582C9.00223 2.16138 9.00624 2.16479 9.00879 2.16699C9.01081 2.16879 9.01172 2.16992 9.01172 2.16992C9.19596 2.45073 9.31409 2.88036 9.41992 3.33301C9.52469 3.78111 9.61706 4.25142 9.75391 4.59668C10.0475 5.33754 10.1373 5.54345 10.5059 6.15527C10.6972 6.47294 11.0076 6.72712 11.3711 6.93945C11.7347 7.15182 12.1557 7.32511 12.5732 7.48047C12.9931 7.63669 13.4062 7.77375 13.7627 7.91602C14.1045 8.05243 14.3832 8.19077 14.5566 8.34668C14.5366 8.42561 14.4903 8.5019 14.4141 8.57617C14.3294 8.65865 14.2134 8.73693 14.0723 8.8125C13.7897 8.96379 13.4164 9.10002 13.0195 9.23926C12.6244 9.3779 12.2064 9.51921 11.8398 9.68066C11.4744 9.84167 11.1527 10.0255 10.9541 10.252C10.1274 11.1711 9.67313 12.3352 9.4082 13.5205C9.37807 13.6554 9.35482 13.7912 9.33008 13.9209C9.30518 14.0515 9.27876 14.1774 9.24219 14.2959C9.1713 14.5253 9.06233 14.7248 8.85645 14.8779C8.77712 14.8628 8.67343 14.8407 8.58203 14.8008C8.48033 14.7564 8.40666 14.6972 8.38477 14.6201C8.03935 13.3992 7.89502 12.3829 7.22168 11.25C6.39504 9.85913 5.09757 9.41729 3.65332 8.94336C3.2926 8.82502 3.0077 8.68045 2.8623 8.37305C2.97532 8.23305 3.18013 8.11299 3.45508 7.99707C3.74397 7.8753 4.09811 7.76154 4.47949 7.62891C5.23839 7.36497 6.10099 7.02971 6.71484 6.42188C7.4753 5.66868 7.77115 4.74123 7.96582 3.91895C8.06369 3.50549 8.13461 3.12393 8.22656 2.7959C8.3152 2.47972 8.42116 2.22569 8.5791 2.05371C8.63686 2.0613 8.73077 2.07563 8.81836 2.09668Z" fill="#252425" stroke="#252425" stroke-width="0.1"/>
<path d="M8.73145 5.2832C8.74731 5.29709 8.75777 5.30632 8.7666 5.31543C8.78242 5.33178 8.79472 5.34961 8.81934 5.39941C9.25937 6.28967 9.57334 6.86436 10.0059 7.31738C10.4231 7.75437 10.9483 8.07431 11.7939 8.46094C10.9091 8.86382 10.3477 9.2313 9.90918 9.72266C9.46904 10.2159 9.15553 10.8305 8.75879 11.7188C8.74256 11.6931 8.72161 11.6634 8.70117 11.6279C8.65628 11.55 8.60481 11.4545 8.55371 11.3574C8.45161 11.1634 8.35157 10.9637 8.31055 10.8818C7.95064 10.164 7.61563 9.70958 7.1875 9.35449C6.77913 9.01582 6.28817 8.7703 5.61914 8.46875C6.51521 7.99913 7.08555 7.68651 7.53223 7.25098C7.98496 6.80944 8.30751 6.24445 8.72168 5.27441C8.725 5.27733 8.72843 5.28057 8.73145 5.2832Z" fill="white" stroke="#252425" stroke-width="0.1"/>
<path d="M3.7666 13.3252C3.86334 13.3329 3.99752 13.3445 4.07324 13.3652L4.0752 13.3662C4.10384 13.3727 4.14067 13.3963 4.18359 13.4434C4.22556 13.4895 4.26906 13.5534 4.31348 13.6309C4.40241 13.786 4.49081 13.9898 4.56934 14.2021C4.64776 14.4142 4.71599 14.6333 4.7666 14.8164C4.81759 15.0008 4.85006 15.1459 4.85645 15.2119C4.93919 16.0654 5.65222 16.4519 6.34961 16.7441C6.70301 16.8922 7.05078 17.016 7.33105 17.1641C7.60293 17.3077 7.79379 17.4679 7.8623 17.6797C7.80559 17.7965 7.68645 17.8992 7.51465 17.9932C7.33638 18.0907 7.11306 18.176 6.87402 18.2617C6.63629 18.347 6.38334 18.4333 6.15137 18.5312C5.91959 18.6291 5.70413 18.7405 5.54199 18.8799C5.03862 19.3127 4.85606 19.8829 4.71387 20.4268C4.64238 20.7002 4.58197 20.9651 4.49609 21.209C4.41366 21.4431 4.30719 21.6519 4.15234 21.8262C3.90177 21.7785 3.73478 21.6551 3.61328 21.4814C3.48542 21.2985 3.40709 21.0597 3.33887 20.7939C3.2715 20.5316 3.21358 20.2396 3.12695 19.9658C3.03981 19.6904 2.92091 19.4251 2.72754 19.209C2.55826 19.0198 2.32265 18.8684 2.06348 18.7363C1.80428 18.6042 1.51693 18.4897 1.24316 18.376C0.967999 18.2617 0.706104 18.1481 0.493164 18.0186C0.286819 17.8929 0.132581 17.7549 0.0537109 17.5918C0.0716592 17.5397 0.108909 17.4861 0.166016 17.4307C0.229405 17.3692 0.314845 17.3074 0.416992 17.2461C0.621355 17.1235 0.887097 17.0045 1.16895 16.8828C1.44974 16.7616 1.74642 16.6377 2.00684 16.5068C2.26641 16.3764 2.49634 16.236 2.6416 16.0791C3.0079 15.6835 3.15304 15.1307 3.27734 14.6123C3.33997 14.3511 3.39678 14.0987 3.47363 13.873C3.54752 13.6561 3.63944 13.469 3.7666 13.3252Z" fill="#252425" stroke="#252425" stroke-width="0.1"/>
<path d="M3.92871 16.1055C4.20696 16.377 4.29601 16.5482 4.45703 16.7627C4.6214 16.9816 4.85532 17.2307 5.4248 17.6494C5.06944 17.8521 4.82212 18.0424 4.61133 18.2666C4.39572 18.496 4.21848 18.7585 4.00098 19.0967L3.9707 19.085C3.53071 18.4056 3.16965 18.0245 2.49316 17.624C2.84454 17.3912 3.10474 17.2002 3.3252 16.9727C3.54776 16.7429 3.72805 16.4783 3.92871 16.1055Z" fill="white" stroke="#252425" stroke-width="0.1"/>
<path d="M29.002 9.97852C29.1638 10.0875 29.2768 10.2452 29.3643 10.4365C29.4537 10.6322 29.5159 10.8587 29.5781 11.0977C29.7013 11.571 29.8255 12.094 30.1826 12.459C30.4947 12.778 30.9458 12.9313 31.3672 13.0889C31.7901 13.247 32.1832 13.4102 32.4248 13.7354C32.4451 13.9193 32.378 14.0519 32.2529 14.1602C32.1216 14.2738 31.9279 14.3592 31.7041 14.4385C31.4854 14.5159 31.2312 14.5902 31.0039 14.6768C30.7741 14.7643 30.5567 14.8698 30.3984 15.0195C29.9821 15.4134 29.7963 15.8878 29.6514 16.3633C29.5089 16.831 29.4048 17.2924 29.1689 17.7012C29.1446 17.6978 29.1164 17.6944 29.0869 17.6904C29.0407 17.6842 28.9901 17.6766 28.9414 17.668C28.8925 17.6593 28.8471 17.6492 28.8105 17.6377C28.7712 17.6253 28.751 17.6138 28.7451 17.6074C28.4683 17.2511 28.3394 16.8601 28.208 16.4502C28.0767 16.0405 27.9427 15.6117 27.6523 15.1973H27.6514C27.5174 15.0065 27.2937 14.8673 27.0439 14.7529C26.7937 14.6384 26.5074 14.5445 26.249 14.4473C25.9876 14.3488 25.7545 14.2474 25.5967 14.1191C25.5184 14.0555 25.4606 13.9865 25.4268 13.9102C25.3955 13.8395 25.3837 13.7596 25.3975 13.667C25.6088 13.5025 25.9261 13.3659 26.2676 13.2285C26.6131 13.0895 26.9812 12.9491 27.2666 12.7773C27.7245 12.5016 27.9963 12.023 28.1865 11.5C28.3711 10.9923 28.4841 10.4285 28.6123 9.96094L29.002 9.97852Z" fill="#252425" stroke="#252425" stroke-width="0.1"/>
<path d="M28.9209 12.5742C29.1742 12.8247 29.3063 13.0044 29.4629 13.1904C29.6207 13.3778 29.8017 13.5645 30.1475 13.8232C29.8602 14.0374 29.658 14.2103 29.4785 14.4004C29.3001 14.5894 29.1453 14.795 28.9531 15.0742C28.7419 14.794 28.582 14.5813 28.3965 14.3936C28.2105 14.2053 27.9996 14.043 27.6875 13.8584C27.9853 13.6376 28.1947 13.4678 28.3779 13.2773C28.563 13.085 28.7205 12.8733 28.9209 12.5742Z" fill="white" stroke="#252425" stroke-width="0.1"/>
</g>
<defs>
<clipPath id="clip0_10051_40880">
<rect width="40" height="40"/>
</clipPath>
</defs>
</svg>
